<svg width="512" height="512" viewBox="0 0 512 512" fill="none" xmlns="http://www.w3.org/2000/svg">
<path fill-rule="evenodd" clip-rule="evenodd" d="M244.359 21.2257C228.884 22.503 203.431 28.2791 203.431 30.5143C203.431 30.9367 203.73 32.1416 204.096 33.192C204.864 35.3943 203.983 35.4567 214.778 32.4344C238.401 25.8199 264.191 24.9597 288.255 29.9823C311.567 34.8487 334.138 45.506 353.011 60.5583C357.58 64.2029 371.856 77.9131 371.856 78.6572C371.856 78.8888 367.266 82.895 361.655 87.5599L351.456 96.0414L345.51 90.3526C342.239 87.2241 337.074 82.7672 334.031 80.4488L328.499 76.234L256.395 76.2381L184.292 76.2417L179.232 80.06C176.449 82.1597 171.301 86.6303 167.792 89.9943L161.413 96.1116L151.211 87.5617C145.599 82.8591 141.008 78.8304 141.008 78.6083C141.008 78.3868 144.519 74.7635 148.81 70.5563C156.603 62.9179 164.601 56.4572 172.661 51.2891C175.009 49.7833 176.93 48.4323 176.93 48.2868C176.93 47.5397 174.376 43.8304 173.861 43.8304C173.532 43.8304 170.445 45.7222 167 48.034C137.166 68.0559 114.917 97.5414 103.551 132.12C101.186 139.317 98.694 150.11 97.3431 159.01C95.5422 170.873 95.554 191.947 97.3684 204.081C101.104 229.069 110.012 252.013 123.788 272.128C130.068 281.3 134.26 286.314 143.197 295.342L151.012 303.238L151.162 353.08L151.313 402.921L159.048 403.085L166.783 403.249L170.688 413.69L174.592 424.131L174.584 457.565L174.575 491H194.008H213.442L213.479 457.565L213.516 424.131L217.454 413.821L221.392 403.51L225.259 403.338L229.126 403.167L233.062 413.704L236.998 424.242V457.621V491H256.432H275.865V457.585V424.17L279.84 413.683L283.815 403.195L288.171 403.353L292.528 403.51L296.269 413.453L300.01 423.395V457.198V491H319.444H338.877V458.003V425.006L342.986 414.321C345.246 408.444 347.211 403.519 347.354 403.376C347.497 403.233 350.75 403.072 354.582 403.018L361.55 402.921L361.701 353.08L361.851 303.238L369.666 295.342C380.671 284.224 386.777 276.433 394.485 263.675C415.699 228.56 422.407 183.978 412.536 143.692C396.929 79.9952 345.238 32.6742 280.282 22.6179C272.239 21.3724 252.057 20.5906 244.359 21.2257ZM182.183 85.2434C176.41 89.8135 169.574 96.0562 167.814 98.3645C166.264 100.398 166.262 100.407 167.375 102.017C169.431 104.989 170.453 108.545 170.427 112.626C170.394 117.599 169.509 120.093 165.931 125.291C159.229 135.031 155.226 137.721 147.376 137.762L142.85 137.786L141.051 143.39C136.628 157.168 135.114 166.901 135.129 181.474C135.144 196.147 136.666 206.045 140.97 219.486L142.791 225.17L147.684 225.378C155.038 225.689 158.389 227.585 163.429 234.286C169.147 241.888 170.104 244.066 170.352 250.037C170.551 254.848 170.473 255.212 168.402 259.169L166.246 263.291L172.131 268.987C175.368 272.12 179.982 276.162 182.384 277.972L186.752 281.26H256.522H326.293L332.438 276.306C335.817 273.58 340.434 269.467 342.697 267.165C346.262 263.54 346.715 262.844 346.09 261.958C343.196 257.857 342.72 256.261 342.713 250.624C342.704 243.992 343.308 242.523 349.369 234.451C354.63 227.445 357.541 225.747 364.891 225.395L370.077 225.147L372.126 218.804C376.056 206.643 377.238 199.355 377.578 185.185C377.967 168.974 377.003 161.026 372.934 146.933C370.272 137.711 370.506 137.992 365.328 137.839C357.85 137.617 354.151 135.305 348.296 127.19C343.403 120.41 342.44 118.081 342.424 112.997C342.41 108.418 343.055 105.976 345.177 102.582L346.568 100.357L345.06 98.378C343.286 96.0515 336.091 89.5042 330.554 85.178L326.647 82.1256L256.353 82.1503L186.058 82.1757L182.183 85.2434ZM132.336 89.0505C129.996 92.2084 126.741 96.9134 125.104 99.5057C121.971 104.464 116.034 115.672 116.37 115.989C117.356 116.913 141.858 130.786 143.658 131.438C147.713 132.907 153.672 131.329 156.682 127.99C160.101 124.196 164.391 116.974 164.741 114.425C165.182 111.202 164.338 107.8 162.486 105.344C161.34 103.824 137.409 83.2986 136.792 83.3062C136.681 83.308 134.676 85.8926 132.336 89.0505ZM363.341 93.7973C356.553 99.5292 350.483 105.109 349.853 106.196C346.86 111.361 347.647 116.169 352.646 123.266C356.683 128.998 358.821 130.756 362.896 131.697C367.759 132.82 368.162 132.65 387.461 121.339C392.32 118.491 396.378 116.086 396.479 115.996C396.812 115.696 391.842 106.211 388.486 100.741C385.139 95.2861 376.513 83.2897 375.978 83.3457C375.816 83.3622 370.13 88.0654 363.341 93.7973ZM226.398 118.103C222.673 122.651 219.216 126.851 218.716 127.436C218.216 128.021 214.241 129.903 209.883 131.618C205.524 133.334 200.501 135.309 198.72 136.009L195.481 137.281L195.113 144.414C194.911 148.337 194.558 153.786 194.33 156.523L193.916 161.5L187.549 171.449C184.047 176.921 181.337 181.664 181.527 181.988C181.717 182.312 184.584 186.845 187.899 192.062L193.925 201.546L194.555 209.412C194.902 213.738 195.186 219.048 195.186 221.212C195.186 223.66 195.464 225.363 195.922 225.721C196.327 226.037 201.387 228.124 207.167 230.359L217.674 234.422L225.348 243.702C229.568 248.806 233.264 252.981 233.56 252.981C233.856 252.981 239.121 251.646 245.259 250.016L256.419 247.05L267.998 250.117L279.578 253.184L281.108 251.417C281.949 250.445 284.095 247.853 285.876 245.658C290.481 239.982 292.438 237.649 294.121 235.829C295.143 234.725 298.974 232.931 306.635 229.967L317.677 225.696V221.488C317.677 219.172 317.96 213.752 318.305 209.443L318.933 201.609L325.128 191.876C328.887 185.97 331.216 181.737 331.053 181.111C330.904 180.543 328.184 176.001 325.006 171.017C318.445 160.724 318.559 161.108 317.928 147.3C317.699 142.29 317.348 137.927 317.148 137.603C316.948 137.279 313.606 135.776 309.722 134.263C305.838 132.75 300.938 130.832 298.832 130.002C296.52 129.091 294.421 127.784 293.532 126.702C292.722 125.718 289.435 121.715 286.226 117.806C283.017 113.898 280.232 110.512 280.038 110.283C279.844 110.054 274.69 111.181 268.584 112.787C262.478 114.393 257.005 115.707 256.42 115.707C255.607 115.707 240.055 111.798 234.053 110.086C233.479 109.922 230.803 112.725 226.398 118.103ZM228.192 125.13L221.447 133.355L211.408 137.281C205.887 139.439 201.331 141.235 201.283 141.27C201.235 141.306 200.877 146.24 200.487 152.235L199.777 163.135L193.922 172.353L188.067 181.572L191.421 186.787C193.265 189.656 195.883 193.726 197.239 195.833L199.704 199.662L200.398 209.678C200.779 215.186 201.088 220.137 201.083 220.679C201.078 221.407 203.645 222.679 210.942 225.562C216.368 227.706 221.087 229.649 221.428 229.879C221.769 230.11 224.894 233.803 228.373 238.087C231.852 242.371 234.907 246.005 235.164 246.164C235.42 246.322 240.321 245.241 246.056 243.76L256.483 241.068L266.872 243.794C274.139 245.7 277.449 246.333 277.888 245.9C278.233 245.56 281.43 241.781 284.993 237.503L291.471 229.723L301.401 225.771C306.862 223.598 311.406 221.739 311.498 221.641C311.591 221.542 312.002 216.556 312.413 210.562L313.16 199.662L318.976 190.613L324.791 181.565L318.937 172.35L313.083 163.135L312.359 152.208L311.634 141.282L301.527 137.338L291.421 133.394L284.673 125.144C280.963 120.607 277.529 116.896 277.043 116.899C276.557 116.901 271.737 118.036 266.332 119.421L256.503 121.938L246.603 119.413C241.159 118.024 236.306 116.892 235.82 116.896C235.334 116.901 231.902 120.605 228.192 125.13ZM113.146 122.63C112.97 123.197 111.735 126.691 110.402 130.393C98.5609 163.282 98.8018 201.888 111.053 234.718C112.382 238.282 113.742 241.198 114.074 241.198C114.554 241.198 133.51 230.451 136.809 228.308C137.471 227.879 137.233 226.621 135.5 221.382C131.031 207.873 129.228 196.408 129.233 181.526C129.236 166.799 131.652 152.039 136.058 139.819C136.978 137.266 137.364 135.393 137.037 135.066C136.307 134.335 114.409 121.599 113.883 121.599C113.654 121.599 113.322 122.063 113.146 122.63ZM387.445 128.116C381.3 131.7 376.072 134.83 375.827 135.072C375.582 135.313 376.055 137.484 376.879 139.896C385.807 166.05 385.985 195.317 377.374 221.351C376.215 224.855 375.361 227.806 375.475 227.909C375.699 228.111 385.609 233.934 393.402 238.442C396.022 239.958 398.44 241.198 398.775 241.198C399.112 241.198 400.352 238.613 401.534 235.453C414.448 200.918 414.412 161.622 401.434 127.343C400.238 124.184 399.115 121.599 398.938 121.599C398.762 121.599 393.59 124.532 387.445 128.116ZM244.794 167.118C232.409 179.512 222.275 189.933 222.275 190.276C222.275 190.619 223.079 191.669 224.06 192.61L225.846 194.321L248.642 171.515L271.438 148.709L269.376 146.646L267.313 144.583L244.794 167.118ZM264.102 187.275L241.449 209.943L243.476 212.035L245.502 214.126L268.327 191.297L291.152 168.468L289.282 166.538C288.253 165.476 287.264 164.607 287.083 164.607C286.902 164.607 276.561 174.808 264.102 187.275ZM142.924 231.788C141.045 232.545 117.912 245.935 116.933 246.834C116.25 247.461 116.615 248.507 119.221 253.374C124.055 262.4 135.568 279.493 136.815 279.493C137.034 279.493 142.78 274.869 149.583 269.217C163.46 257.689 164.762 256.097 164.757 250.664C164.753 246.874 163.983 245.156 159.415 238.755C155.448 233.196 152.207 231.163 147.406 231.219C145.668 231.24 143.652 231.496 142.924 231.788ZM360.372 232.02C357.711 233.308 356.388 234.613 353.162 239.136C348.89 245.125 348.11 246.91 348.107 250.707C348.102 256.033 349.47 257.696 363.36 269.244C370.138 274.878 375.855 279.489 376.066 279.491C377.292 279.498 388.69 262.546 393.626 253.374C396.241 248.514 396.613 247.461 395.93 246.841C395.483 246.435 389.427 242.817 382.473 238.801C370.198 231.714 369.716 231.496 365.984 231.333C363.512 231.225 361.508 231.471 360.372 232.02ZM151.287 275.432C145.795 280.004 141.224 284.074 141.128 284.476C141.033 284.879 144.478 288.604 148.784 292.754L156.613 300.3L156.908 348.665L157.202 397.03H162.771H168.339L171.548 392.464L174.757 387.898H193.419H212.082L215.291 392.464L218.5 397.03H224.928H231.356L234.598 392.464L237.839 387.898H256.522H275.204L278.34 392.464L281.477 397.03H287.938H294.398L297.535 392.464L300.671 387.898H319.41H338.148L340.917 391.991C342.441 394.242 344.036 396.373 344.463 396.727C344.933 397.118 347.291 397.304 350.45 397.2L355.661 397.03L355.812 348.818L355.962 300.606L363.992 292.803C368.408 288.51 371.918 284.722 371.791 284.383C371.457 283.489 351.71 267.06 351.202 267.253C350.966 267.342 348.013 270.083 344.641 273.344C341.268 276.604 336.355 280.913 333.722 282.918L328.936 286.563H256.503H184.07L179.178 282.881C176.487 280.856 171.471 276.481 168.032 273.159C164.592 269.838 161.664 267.121 161.525 267.121C161.386 267.121 156.779 270.861 151.287 275.432ZM190.475 327.176C185.347 328.743 180.55 332.796 178.085 337.646C176.023 341.703 175.748 349.171 177.489 353.813C179.224 358.442 182.644 362.114 187.402 364.457C190.857 366.158 191.907 366.393 196.057 366.393C199.997 366.393 201.367 366.119 204.314 364.742C210.506 361.849 214.416 356.894 215.875 350.089C217.862 340.818 211.528 330.184 202.378 327.428C199.534 326.572 192.912 326.432 190.475 327.176ZM248.797 327.923C244.866 329.433 239.85 334.234 238.008 338.252C236.032 342.563 236.153 350.49 238.265 354.996C240.2 359.125 243.729 362.62 248.092 364.728C250.898 366.084 252.219 366.343 256.432 366.366C262.477 366.399 266.435 364.817 270.51 360.741C271.937 359.314 273.792 356.687 274.632 354.905C275.924 352.166 276.16 350.844 276.16 346.362C276.16 341.747 275.946 340.624 274.511 337.7C272.446 333.493 268.016 329.435 263.742 327.836C259.403 326.211 253.158 326.248 248.797 327.923ZM309.588 327.688C303.885 329.972 299.157 334.961 297.507 340.436C294.954 348.909 298.559 358.717 305.976 363.475C316.367 370.141 331.063 365.311 335.375 353.813C337.095 349.225 336.849 341.669 334.853 337.819C332.827 333.912 329.04 330.248 325.038 328.325C322.022 326.875 320.815 326.631 316.794 326.658C313.806 326.678 311.17 327.055 309.588 327.688ZM193.253 332.558C184.97 334.557 180.16 342.468 182.457 350.317C186.097 362.759 202.912 364.438 208.817 352.95C214.206 342.466 204.561 329.83 193.253 332.558ZM252.793 332.758C246.325 334.48 242.281 339.933 242.311 346.892C242.35 356.091 251.672 362.8 260.668 360.104C263.692 359.197 268.098 355.274 269.459 352.277C271.575 347.616 270.629 341.25 267.23 337.277C263.736 333.193 257.956 331.385 252.793 332.758ZM313.526 332.731C307.954 334.233 304.313 337.796 302.899 343.137C300.996 350.316 305.778 358.269 313.202 360.272C320.453 362.229 328.142 357.805 330.419 350.365C333.512 340.26 323.68 329.996 313.526 332.731ZM175.179 397.471C173.768 399.497 172.64 401.551 172.672 402.037C172.704 402.523 174.47 407.527 176.597 413.155L180.464 423.39V454.249V485.108H193.913H207.362L207.752 462.918C207.966 450.714 208.147 436.464 208.152 431.251L208.162 421.774L211.685 412.686C213.623 407.687 215.209 403.389 215.209 403.135C215.209 402.881 213.84 400.675 212.166 398.231L209.123 393.789H193.434H177.744L175.179 397.471ZM237.968 397.906C236.463 400.17 235.231 402.291 235.231 402.619C235.231 402.947 236.954 407.865 239.059 413.548L242.887 423.881V454.495V485.108H256.407H269.928L270.112 453.441L270.295 421.774L273.964 412.421C275.981 407.277 277.632 402.795 277.632 402.461C277.632 402.127 276.393 400.04 274.878 397.821L272.124 393.789H256.414H240.704L237.968 397.906ZM300.893 397.914L298.05 402.039L301.979 412.496L305.908 422.952L305.903 454.03L305.899 485.108H319.381C331.131 485.108 332.908 484.989 333.22 484.176C333.416 483.664 333.577 469.566 333.577 452.848V422.452L337.383 412.567L341.189 402.683L338.155 398.236L335.122 393.789H319.429H303.735L300.893 397.914Z" fill="#000000" stroke="#000000" stroke-width="4"/>
</svg>
