<?xml version="1.0" encoding="UTF-8"?>
<svg id="Layer_2" data-name="Layer 2" xmlns="http://www.w3.org/2000/svg" viewBox="0 0 64.82 77.77">
  <defs>
    <style>
      .cls-1 {
        fill: none;
        stroke: #000000;
        stroke-miterlimit: 10;
        stroke-width: 2px;
      }
    </style>
  </defs>
  <g id="Layer_1-2" data-name="Layer 1">
    <g>
      <path class="cls-1" d="M9.36,55.53h46.09c2.13,0,3.87,1.74,3.87,3.87v13.5c0,2.13-1.74,3.88-3.87,3.88H9.36c-2.13,0-3.87-1.75-3.87-3.88v-13.5c0-2.13,1.74-3.87,3.87-3.87h0Z"/>
      <rect class="cls-1" x="11.96" y="62" width="40.9" height="8.31"/>
      <path class="cls-1" d="M46.27,55.53v-3.53c0-1.94-1.59-3.53-3.53-3.53h-20.67c-1.94,0-3.53,1.59-3.53,3.53v3.53"/>
      <polyline class="cls-1" points="28.86 48.47 28.86 39.28 20.63 32.51 20.63 1 27.73 1 27.73 29.39 37.09 29.39 37.09 1 44.19 1 44.19 32.51 35.96 39.28 35.96 48.47"/>
      <path class="cls-1" d="M59.46,10.51c5.81,5.82,5.81,15.26,0,21.08M54.84,15.14c3.27,3.27,3.27,8.57,0,11.83"/>
      <path class="cls-1" d="M5.36,10.51C-.45,16.33-.45,25.77,5.36,31.59M9.98,15.14c-3.27,3.27-3.27,8.57,0,11.83"/>
    </g>
  </g>
</svg>