<?xml version="1.0" encoding="UTF-8"?>
<svg id="Layer_2" data-name="Layer 2" xmlns="http://www.w3.org/2000/svg" viewBox="0 0 69.94 69.94">
  <defs>
    <style>
      .cls-1 {
        fill: none;
        stroke: #000000;
        stroke-miterlimit: 10;
        stroke-width: 2px;
      }
    </style>
  </defs>
  <g id="Layer_1-2" data-name="Layer 1">
    <g>
      <g>
        <g>
          <path class="cls-1" d="M3.69,45.01c-1.71-2.96-2.69-6.38-2.69-10.04s.98-7.08,2.69-10.04"/>
          <path class="cls-1" d="M7.2,42.87c-1.33-2.33-2.09-5.03-2.09-7.9s.76-5.57,2.09-7.9"/>
        </g>
        <g>
          <path class="cls-1" d="M66.26,45.01c1.71-2.96,2.69-6.38,2.69-10.04s-.98-7.08-2.69-10.04"/>
          <path class="cls-1" d="M62.75,42.87c1.33-2.33,2.09-5.03,2.09-7.9s-.76-5.57-2.09-7.9"/>
        </g>
        <g>
          <path class="cls-1" d="M45.01,66.26c-2.96,1.71-6.38,2.69-10.04,2.69s-7.08-.98-10.04-2.69"/>
          <path class="cls-1" d="M42.87,62.75c-2.33,1.33-5.03,2.09-7.9,2.09s-5.57-.76-7.9-2.09"/>
        </g>
        <g>
          <path class="cls-1" d="M45.01,3.69c-2.96-1.71-6.38-2.69-10.04-2.69s-7.08.98-10.04,2.69"/>
          <path class="cls-1" d="M42.87,7.2c-2.33-1.33-5.03-2.09-7.9-2.09s-5.57.76-7.9,2.09"/>
        </g>
      </g>
      <path class="cls-1" d="M13.78,44.68V15.7c0-1.06.86-1.91,1.91-1.91h29.65"/>
      <path class="cls-1" d="M50.22,13.78h4.03c1.06,0,1.91.86,1.91,1.91v38.55c0,1.06-.86,1.91-1.91,1.91H15.7c-1.06,0-1.91-.86-1.91-1.91v-4.95"/>
      <path class="cls-1" d="M22.4,45.91v-21.87c0-.91.73-1.64,1.64-1.64h21.87c.91,0,1.64.73,1.64,1.64v21.87c0,.91-.73,1.64-1.64,1.64h-21.87c-.91,0-1.64-.73-1.64-1.64Z"/>
      <path class="cls-1" d="M26.5,32.75v-5.12c0-.62.51-1.13,1.13-1.13h5.12c.62,0,1.13.51,1.13,1.13v5.12c0,.62-.51,1.13-1.13,1.13h-5.12c-.62,0-1.13-.51-1.13-1.13Z"/>
      <g>
        <g>
          <g>
            <line class="cls-1" x1="27.45" y1="19.73" x2="27.45" y2="22.19"/>
            <line class="cls-1" x1="32.47" y1="19.73" x2="32.47" y2="22.19"/>
            <line class="cls-1" x1="37.48" y1="19.73" x2="37.48" y2="22.19"/>
            <line class="cls-1" x1="42.49" y1="19.73" x2="42.49" y2="22.19"/>
          </g>
          <g>
            <line class="cls-1" x1="27.45" y1="47.75" x2="27.45" y2="50.22"/>
            <line class="cls-1" x1="32.47" y1="47.75" x2="32.47" y2="50.22"/>
            <line class="cls-1" x1="37.48" y1="47.75" x2="37.48" y2="50.22"/>
            <line class="cls-1" x1="42.49" y1="47.75" x2="42.49" y2="50.22"/>
          </g>
        </g>
        <g>
          <g>
            <line class="cls-1" x1="50.22" y1="27.45" x2="47.75" y2="27.45"/>
            <line class="cls-1" x1="50.22" y1="32.47" x2="47.75" y2="32.47"/>
            <line class="cls-1" x1="50.22" y1="37.48" x2="47.75" y2="37.48"/>
            <line class="cls-1" x1="50.22" y1="42.49" x2="47.75" y2="42.49"/>
          </g>
          <g>
            <line class="cls-1" x1="22.19" y1="27.45" x2="19.73" y2="27.45"/>
            <line class="cls-1" x1="22.19" y1="32.47" x2="19.73" y2="32.47"/>
            <line class="cls-1" x1="22.19" y1="37.48" x2="19.73" y2="37.48"/>
            <line class="cls-1" x1="22.19" y1="42.49" x2="19.73" y2="42.49"/>
          </g>
        </g>
      </g>
      <line class="cls-1" x1="22.88" y1="39.8" x2="47.16" y2="39.8"/>
      <path class="cls-1" d="M13.78,38.17l-2.14-.61c-1.16-.33-1.96-1.39-1.96-2.59h0c0-1.2.8-2.26,1.96-2.59l2.14-.61v6.4Z"/>
      <path class="cls-1" d="M56.16,38.17l2.14-.61c1.16-.33,1.96-1.39,1.96-2.59h0c0-1.2-.8-2.26-1.96-2.59l-2.14-.61v6.4Z"/>
      <path class="cls-1" d="M38.17,56.16l-.61,2.14c-.33,1.16-1.39,1.96-2.59,1.96h0c-1.2,0-2.26-.8-2.59-1.96l-.61-2.14h6.4Z"/>
      <path class="cls-1" d="M38.17,13.78l-.61-2.14c-.33-1.16-1.39-1.96-2.59-1.96h0c-1.2,0-2.26.8-2.59,1.96l-.61,2.14h6.4Z"/>
    </g>
  </g>
</svg>