<?xml version="1.0" encoding="UTF-8"?>
<svg id="Layer_2" data-name="Layer 2" xmlns="http://www.w3.org/2000/svg" viewBox="0 0 64 46.2">
  <defs>
    <style>
      .cls-1 {
        fill: #000000;
      }
    </style>
  </defs>
  <g id="Layer_1-2" data-name="Layer 1">
    <g>
      <path class="cls-1" d="M15.7,5.2c0-.6-.4-1-1-1s-1,.4-1,1v1.1h-3.2v8.3h3.2v1.1c0,.6.4,1,1,1s1-.4,1-1v-1.1h3.2V6.3h-3.2v-1.1ZM16.8,8.3v4.3h-4.3v-4.3h4.3Z"/>
      <path class="cls-1" d="M27.2,5.2c0-.6-.4-1-1-1s-1,.4-1,1v1.1h-3.2v8.3h3.2v1.1c0,.6.4,1,1,1s1-.4,1-1v-1.1h3.2V6.3h-3.2v-1.1ZM28.4,8.3v4.3h-4.3v-4.3h4.3Z"/>
      <path class="cls-1" d="M38.8,5.2c0-.6-.4-1-1-1s-1,.4-1,1v1.1h-3.2v8.3h3.2v1.1c0,.6.4,1,1,1s1-.4,1-1v-1.1h3.2V6.3h-3.2v-1.1ZM39.9,8.3v4.3h-4.3v-4.3h4.3Z"/>
      <path class="cls-1" d="M50.4,5.2c0-.6-.4-1-1-1s-1,.4-1,1v1.1h-3.2v8.3h3.2v1.1c0,.6.4,1,1,1s1-.4,1-1v-1.1h3.2V6.3h-3.2v-1.1ZM51.5,8.3v4.3h-4.3v-4.3h4.3Z"/>
      <path class="cls-1" d="M5.3,20.9h53.5V0H5.3v6.3H1c-.6,0-1,.4-1,1s.4,1,1,1h4.3v4.3H1c-.6,0-1,.4-1,1s.4,1,1,1h4.3v6.3ZM7.3,2h49.5v16.9H7.3V2Z"/>
      <path class="cls-1" d="M48.3,41c0,.6.4,1,1,1s1-.4,1-1v-1.1h3.2v-8.3h-3.2v-1.1c0-.6-.4-1-1-1s-1,.4-1,1v1.1h-3.2v8.3h3.2v1.1ZM47.2,37.9v-4.3h4.3v4.3h-4.3Z"/>
      <path class="cls-1" d="M36.8,41c0,.6.4,1,1,1s1-.4,1-1v-1.1h3.2v-8.3h-3.2v-1.1c0-.6-.4-1-1-1s-1,.4-1,1v1.1h-3.2v8.3h3.2v1.1ZM35.6,37.9v-4.3h4.3v4.3h-4.3Z"/>
      <path class="cls-1" d="M25.2,41c0,.6.4,1,1,1s1-.4,1-1v-1.1h3.2v-8.3h-3.2v-1.1c0-.6-.4-1-1-1s-1,.4-1,1v1.1h-3.2v8.3h3.2v1.1ZM24.1,37.9v-4.3h4.3v4.3h-4.3Z"/>
      <path class="cls-1" d="M13.6,41c0,.6.4,1,1,1s1-.4,1-1v-1.1h3.2v-8.3h-3.2v-1.1c0-.6-.4-1-1-1s-1,.4-1,1v1.1h-3.2v8.3h3.2v1.1ZM12.5,37.9v-4.3h4.3v4.3h-4.3Z"/>
      <path class="cls-1" d="M63,37.9h-4.3v-4.3h4.3c.6,0,1-.4,1-1s-.4-1-1-1h-4.3v-6.3H5.2v20.9h53.5v-6.3h4.3c.6,0,1-.4,1-1s-.4-1-1-1ZM56.7,44.2H7.2v-16.9h49.5v16.9Z"/>
    </g>
  </g>
</svg>