<?xml version="1.0" encoding="UTF-8"?>
<svg id="Layer_2" data-name="Layer 2" xmlns="http://www.w3.org/2000/svg" viewBox="0 0 64 51.61">
  <defs>
    <style>
      .cls-1 {
        fill: #000000;
      }
    </style>
  </defs>
  <g id="Layer_1-2" data-name="Layer 1">
    <g>
      <path class="cls-1" d="M21.68,24.77c-2.85,0-5.16,2.32-5.16,5.16s2.32,5.16,5.16,5.16,5.16-2.32,5.16-5.16-2.32-5.16-5.16-5.16ZM21.68,33.03c-1.71,0-3.1-1.39-3.1-3.1s1.39-3.1,3.1-3.1,3.1,1.39,3.1,3.1-1.39,3.1-3.1,3.1Z"/>
      <path class="cls-1" d="M24.77,10.32c1.71,0,3.1-1.39,3.1-3.1s-1.39-3.1-3.1-3.1-3.1,1.39-3.1,3.1,1.39,3.1,3.1,3.1ZM24.77,6.19c.57,0,1.03.46,1.03,1.03s-.46,1.03-1.03,1.03-1.03-.46-1.03-1.03.46-1.03,1.03-1.03Z"/>
      <path class="cls-1" d="M28.9,34.06h6.19v-8.26h-6.19v8.26ZM30.97,27.87h2.06v4.13h-2.06v-4.13Z"/>
      <path class="cls-1" d="M42.32,24.77c-2.85,0-5.16,2.32-5.16,5.16s2.32,5.16,5.16,5.16,5.16-2.32,5.16-5.16-2.32-5.16-5.16-5.16ZM42.32,33.03c-1.71,0-3.1-1.39-3.1-3.1s1.39-3.1,3.1-3.1,3.1,1.39,3.1,3.1-1.39,3.1-3.1,3.1Z"/>
      <path class="cls-1" d="M39.23,10.32c1.71,0,3.1-1.39,3.1-3.1s-1.39-3.1-3.1-3.1-3.1,1.39-3.1,3.1,1.39,3.1,3.1,3.1ZM39.23,6.19c.57,0,1.03.46,1.03,1.03s-.46,1.03-1.03,1.03-1.03-.46-1.03-1.03.46-1.03,1.03-1.03Z"/>
      <path class="cls-1" d="M57.81,2.06h-9.48c-.1-.28-.22-.55-.4-.8-.58-.81-1.49-1.27-2.47-1.27h-26.9c-.99,0-1.89.46-2.47,1.27-.18.24-.3.52-.4.8H6.19C2.78,2.06,0,4.84,0,8.26v37.16c0,3.42,2.78,6.19,6.19,6.19h51.61c3.42,0,6.19-2.78,6.19-6.19V8.26c0-3.42-2.78-6.19-6.19-6.19ZM6.19,26.84h6.19v5.16h-6.19v-5.16ZM6.19,34.06h6.19v7.23h39.23v-7.23h6.19v10.32c0,.57-.46,1.03-1.03,1.03H7.23c-.57,0-1.03-.46-1.03-1.03v-10.32ZM14.45,39.23v-18.58h35.1v18.58H14.45ZM57.81,32h-6.19v-5.16h6.19v5.16ZM57.81,24.77h-6.19v-6.19H12.39v6.19h-6.19v-15.48c0-.57.46-1.03,1.03-1.03h9.79l1.34,4.07c.42,1.27,1.59,2.12,2.91,2.12h21.47c1.32,0,2.49-.85,2.91-2.12l1.34-4.07h9.79c.57,0,1.03.46,1.03,1.03v15.48ZM17.75,2.48c.19-.26.48-.41.8-.41h26.9c.32,0,.61.15.8.41.2.28.25.62.15.95l-2.71,8.26c-.14.42-.52.7-.95.7h-21.47c-.43,0-.81-.28-.95-.7l-2.71-8.26c-.11-.33-.05-.67.15-.95ZM61.94,45.42c0,2.28-1.85,4.13-4.13,4.13H6.19c-2.28,0-4.13-1.85-4.13-4.13V8.26c0-2.28,1.85-4.13,4.13-4.13h9.47l.68,2.06H7.23c-1.71,0-3.1,1.39-3.1,3.1v35.1c0,1.71,1.39,3.1,3.1,3.1h49.55c1.71,0,3.1-1.39,3.1-3.1V9.29c0-1.71-1.39-3.1-3.1-3.1h-9.11l.68-2.06h9.47c2.28,0,4.13,1.85,4.13,4.13v37.16Z"/>
    </g>
  </g>
</svg>