<svg width="512" height="512" viewBox="0 0 512 512" fill="none" xmlns="http://www.w3.org/2000/svg">
<path fill-rule="evenodd" clip-rule="evenodd" d="M245.691 21.6316C242.24 21.9535 238.918 22.3499 238.309 22.5116C237.701 22.6733 235.874 23.052 234.25 23.3539C224.705 25.1278 211.876 30.9671 203.234 37.4716C196.6 42.4649 188.142 51.3501 183.524 58.1757C176.787 68.1343 171.06 82.7975 169.136 95.0187C168.816 97.0489 168.66 151.402 168.788 215.803L169.021 332.897L161.1 333.249C153.32 333.595 153.142 333.643 151.087 335.943L148.994 338.286V353.666C148.994 370.266 149.448 373.054 152.583 375.723C154.509 377.363 154.778 377.38 177.228 377.384L199.926 377.388V430.861C199.926 463.057 200.207 485.072 200.631 486.189C201.868 489.442 204.341 490.408 212.235 490.719C221.393 491.081 224.631 490.275 226.53 487.16C227.923 484.876 227.97 483.044 227.973 431.084L227.975 377.37L255.206 377.563L282.436 377.757L283.048 421.312C283.385 445.267 283.561 469.185 283.437 474.463C283.185 485.327 283.711 487.452 287.193 489.635C289.35 490.986 290.583 491.126 298.636 490.927C307.381 490.711 307.726 490.641 309.709 488.658L311.755 486.611L311.958 432L312.161 377.388L334.84 377.377C351.332 377.369 358.023 377.117 359.365 376.454C360.38 375.953 362.041 373.881 363.056 371.851C364.841 368.28 364.897 367.715 364.778 354.524C364.696 345.494 364.385 340.797 363.855 340.62C363.415 340.474 363.056 339.945 363.056 339.446C363.056 337.95 359.062 334.593 356.361 333.818C354.974 333.42 351.594 333.094 348.851 333.094H343.864L343.796 226.975C343.726 116.545 343.6 104.816 342.385 95.0062C340.336 78.4863 333.264 63.0339 321.678 49.763C315.427 42.6022 311.956 39.5755 304.364 34.6664C293.081 27.3691 279.535 23.0719 263.037 21.5556C254.836 20.8019 254.554 20.8033 245.691 21.6316ZM244.953 32.0184C231.028 34.3069 221.648 37.6894 212.412 43.7531C205.352 48.3891 196.92 56.8085 191.321 64.8145C188.521 68.8179 183.77 78.7233 182.179 83.8753C178.47 95.8817 178.59 91.524 178.545 216.271L178.503 333.094H256.201H333.899L333.758 223.284C333.68 162.889 333.409 109.654 333.155 104.985C331.135 67.8574 308.355 40.9368 272.23 32.9877C265.849 31.5828 250.844 31.0498 244.953 32.0184ZM373.516 52.332C371.309 54.1347 370.605 58.5396 372.259 60.194C373.615 61.5501 374.363 61.6306 384.093 61.4726L390.736 61.3648L375.737 76.3462C367.487 84.5862 360.434 91.8259 360.063 92.435C359.012 94.1572 359.23 95.2055 360.981 96.8355C364.472 100.089 365.562 99.3942 381.64 83.6627L396.641 68.9847L396.851 77.1826C397.036 84.3758 397.255 85.588 398.641 87.063C400.623 89.1728 403.727 89.2267 405.569 87.1848C406.864 85.7475 406.968 84.4091 406.877 70.1282C406.748 49.87 408.296 51.5428 389.39 51.2246C376.504 51.0083 375.009 51.1124 373.516 52.332ZM107.463 52.7557C105.191 54.4816 104.706 57.7542 104.706 71.344C104.706 83.8938 104.814 84.9923 106.236 86.7987C107.967 89.0001 110.251 89.2828 112.661 87.5945C114.041 86.6281 114.312 85.7194 114.367 81.8733C114.402 79.3589 114.651 75.7173 114.92 73.7802L115.409 70.2596L129.426 84.2998C144.765 99.6644 145.696 100.23 149.467 96.4583C150.928 94.9973 151.242 94.1285 150.868 92.5826C150.569 91.3409 145.087 85.2706 136.336 76.488L122.285 62.3872L126.228 61.9244C128.397 61.6697 131.399 61.6608 132.9 61.9052C136.982 62.5681 139.288 61.7406 139.909 59.3886C140.616 56.7125 140.317 55.4871 138.468 53.4939C136.973 51.8831 136.501 51.8329 122.803 51.8329C112.644 51.8329 108.337 52.092 107.463 52.7557ZM233.509 70.1038C232.645 72.2107 232.165 104.89 232.755 121.377L233.303 136.662L236.728 137.126C238.613 137.381 240.736 137.751 241.447 137.947C242.642 138.277 242.738 137.331 242.738 125.335V112.367H247.826H252.914L263.409 125.34C269.18 132.475 274.354 138.487 274.907 138.699C275.46 138.911 277.168 138.471 278.701 137.722C280.959 136.619 281.535 135.903 281.722 133.962C281.926 131.847 280.992 130.43 273.778 121.91C266.044 112.775 264.977 110.89 267.539 110.89C269.324 110.89 273.963 108.227 276.099 105.975C279.676 102.205 281.337 97.2556 281.306 90.4529C281.274 83.5306 279.737 79.3936 275.726 75.4345C270.278 70.0581 264.912 68.812 247.21 68.812C235.36 68.812 233.985 68.9419 233.509 70.1038ZM242.738 90.5894V103.508H252.963C262.384 103.508 263.384 103.376 265.685 101.825C267.058 100.9 268.95 98.8235 269.89 97.2113C271.308 94.7788 271.54 93.5394 271.253 89.9228C270.893 85.3761 269.608 82.9385 266.256 80.4352C263.536 78.4051 259.584 77.7082 250.673 77.6883L242.738 77.6706V90.5894ZM396.017 138.817C395.346 139.559 394.796 141.297 394.796 142.678C394.796 144.855 395.544 145.889 400.412 150.437L406.029 155.684L394.759 156.172C388.561 156.441 379.268 156.66 374.11 156.66C365.739 156.66 364.521 156.825 362.786 158.19C360.525 159.969 360.28 162.447 362.138 164.742C363.416 166.32 363.744 166.343 384.282 166.281C395.749 166.246 405.13 166.41 405.13 166.645C405.13 166.881 403.117 168.936 400.658 171.213C394.194 177.199 392.592 180.943 395.408 183.491C396.15 184.162 397.833 184.712 399.148 184.712C401.241 184.712 402.911 183.352 412.51 173.824C418.544 167.834 423.692 162.186 423.952 161.272C424.5 159.333 420.456 154.772 408.651 144.012C400.997 137.036 398.542 136.026 396.017 138.817ZM109.419 140.565C103.854 144.806 88.5397 158.357 88.1426 159.392C87.49 161.094 88.6836 162.562 100.167 174.193C108.757 182.893 110.922 184.712 112.682 184.712C115.25 184.712 117.254 182.7 117.254 180.121C117.254 178.303 112.244 170.708 109.632 168.566C106.773 166.221 108.255 166.029 124.082 166.69C146.457 167.624 148.622 167.561 150.429 165.925C152.178 164.343 152.407 161.262 150.926 159.237C149.654 157.497 143.297 156.772 128.695 156.701C123.012 156.674 115.595 156.436 112.213 156.173L106.065 155.694L108.892 153.179C117.177 145.809 117.254 145.718 117.254 143.479C117.254 139.074 113.304 137.605 109.419 140.565ZM246.447 159.363C229.774 165.198 221.016 183.134 225.419 202.43C226.963 209.204 228.384 212.094 232.409 216.66C240.991 226.397 253.375 229.897 265.728 226.079C278.552 222.115 285.3 212.878 286.105 198.185L286.478 191.356H269.407H252.334V193.546C252.334 194.75 252.894 196.909 253.578 198.344L254.822 200.953H265.757C278.03 200.953 277.892 200.876 275.185 206.183C273.071 210.328 268.841 214.807 265.302 216.65C260.582 219.108 252.488 218.921 247.002 216.226C238.108 211.858 234.169 203.637 234.802 190.762C235.087 184.955 235.521 182.876 237.099 179.738C241.368 171.246 245.881 168.32 255.413 167.864C261.328 167.581 262.285 167.734 265.995 169.549C269.625 171.326 274.461 176.169 275.391 178.961C275.58 179.528 276.804 179.488 279.563 178.827L283.467 177.89L282.977 175.211C281.807 168.806 276.06 162.855 267.961 159.662C263.088 157.742 251.539 157.581 246.447 159.363ZM130.026 238.026L114.302 253.691V245.942C114.302 236.832 113.475 234.911 109.552 234.911C105.328 234.911 105.067 235.847 105.143 250.722C105.224 266.432 105.589 269.061 107.854 270.199C108.817 270.683 114.623 271.117 121.806 271.241C133.328 271.44 134.241 271.355 136.2 269.904C139.051 267.791 139.488 263.629 137.04 261.908C135.623 260.912 134.137 260.795 128.142 261.205C123.995 261.489 120.945 261.416 120.945 261.032C120.945 260.666 128.086 253.23 136.815 244.508C145.543 235.786 152.685 228.267 152.685 227.798C152.685 226.409 148.511 222.362 147.077 222.362C146.337 222.362 138.799 229.287 130.026 238.026ZM361.325 224.45C358.334 227.754 359.275 229.187 375.216 245.615L390.261 261.118L383.023 261.528C374.207 262.026 371.702 263.25 372.054 266.885C372.237 268.765 372.831 269.506 375.006 270.57C377.458 271.768 379.044 271.849 390.867 271.376L404.003 270.849L406.111 268.739L408.22 266.63L407.966 252.767C407.752 241.021 407.513 238.599 406.404 236.907C404.017 233.267 398.518 234.909 397.337 239.615C397.09 240.599 396.998 243.93 397.133 247.018C397.268 250.105 397.223 252.632 397.033 252.63C396.843 252.629 390.015 245.985 381.86 237.864C369.104 225.162 366.72 223.1 364.789 223.1C363.554 223.1 361.998 223.706 361.325 224.45ZM234.373 245.739C234.102 246.009 233.881 261.416 233.881 279.975C233.881 308.662 234.042 313.854 234.958 314.615C235.751 315.272 240.004 315.433 251.013 315.223C264.545 314.965 266.382 314.775 270.05 313.253C275.984 310.792 278.65 308.448 280.883 303.727C283.055 299.136 283.499 292.571 281.912 288.51C280.553 285.032 276.897 280.936 273.77 279.389L270.85 277.944L273.129 275.806C279.889 269.464 280.074 257.627 273.521 250.85C268.896 246.067 265.226 245.246 248.469 245.246C240.987 245.246 234.643 245.468 234.373 245.739ZM243.019 255.986C243.271 256.642 243.476 261.138 243.476 265.977V274.775H252.973C261.485 274.775 262.672 274.616 264.429 273.234C268.409 270.102 269.647 264.749 267.552 259.732C266.01 256.043 262.636 255.014 251.681 254.893C243.564 254.805 242.611 254.924 243.019 255.986ZM243.471 290.093C243.468 293.239 243.251 298.095 242.988 300.882L242.509 305.95L253.142 305.656C263.414 305.372 263.883 305.289 266.96 303.227C274.335 298.283 274.377 289.404 267.045 285.665C264.986 284.615 262.55 284.374 253.995 284.373L243.476 284.372L243.471 290.093ZM157.543 354.321C157.575 360.309 157.659 365.705 157.727 366.314C157.837 367.293 169.196 367.401 255.822 367.242L353.792 367.064L354.452 365.397C355.151 363.629 355.208 345.206 354.518 344.089C354.283 343.707 312.677 343.431 255.797 343.433L157.483 343.436L157.543 354.321ZM209.522 428.694V480H212.013C213.383 480 215.46 480.19 216.627 480.422L218.749 480.845L218.962 429.116L219.175 377.388H214.349H209.522V428.694ZM292.179 383.478C292.171 386.828 292.566 410.254 293.057 435.536L293.948 481.505L298.219 481.336C300.567 481.243 302.58 480.822 302.692 480.399C302.805 479.976 302.794 456.626 302.667 428.509L302.436 377.388H297.315H292.194L292.179 383.478Z" fill="#000000"/>
</svg>
