<?xml version="1.0" encoding="UTF-8"?>
<svg id="Layer_2" data-name="Layer 2" xmlns="http://www.w3.org/2000/svg" viewBox="0 0 77.06 52.65">
  <defs>
    <style>
      .cls-1 {
        fill: none;
        stroke: #000000;
        stroke-miterlimit: 10;
        stroke-width: 2px;
      }
    </style>
  </defs>
  <g id="Layer_1-2" data-name="Layer 1">
    <g>
      <line class="cls-1" x1="35.62" y1="4.87" x2="40.33" y2="4.87"/>
      <path class="cls-1" d="M64.14,4.87h8.51c1.88,0,3.41,1.53,3.41,3.41v39.96c0,1.88-1.53,3.41-3.41,3.41H4.41c-1.88,0-3.41-1.53-3.41-3.41V8.28c0-1.88,1.53-3.41,3.41-3.41h17.43"/>
      <circle class="cls-1" cx="15.04" cy="16.39" r="6.8"/>
      <path class="cls-1" d="M8.37,36.27c-.09-.43-.13-.88-.13-1.34,0-3.76,3.05-6.8,6.8-6.8s6.8,3.05,6.8,6.8-3.05,6.8-6.8,6.8c-1.4,0-2.7-.42-3.78-1.15"/>
      <path class="cls-1" d="M33.53,23.19h-4.17c-1.16,0-2.09-.94-2.09-2.09V3.09c0-1.16.94-2.09,2.09-2.09h4.17c1.16,0,2.09.94,2.09,2.09v18.01c0,1.16-.94,2.09-2.09,2.09Z"/>
      <path class="cls-1" d="M61.87,23.19h-19.04c-1.25,0-2.27-1.02-2.27-2.27V3.27c0-1.25,1.02-2.27,2.27-2.27h19.04c1.25,0,2.27,1.02,2.27,2.27v17.65c0,1.25-1.02,2.27-2.27,2.27Z"/>
      <path class="cls-1" d="M39.47,51.65h-12.2v-3.21c0-.98.8-1.78,1.78-1.78h8.65c.98,0,1.78.8,1.78,1.78v3.21Z"/>
      <path class="cls-1" d="M58.46,51.65h-12.2v-3.21c0-.98.8-1.78,1.78-1.78h8.65c.98,0,1.78.8,1.78,1.78v3.21h0Z"/>
      <path class="cls-1" d="M51.13,28.13h6.45c3.76,0,6.8,3.05,6.8,6.8h0c0,3.76-3.05,6.8-6.8,6.8h-10.44c-3.76,0-6.8-3.05-6.8-6.8h0c0-3.29,2.33-6.03,5.43-6.67"/>
      <circle class="cls-1" cx="29.53" cy="30.39" r="2.27"/>
      <circle class="cls-1" cx="29.53" cy="39.47" r="2.27"/>
      <g>
        <line class="cls-1" x1="48.42" y1="1" x2="48.42" y2="23.19"/>
        <line class="cls-1" x1="56.29" y1="1" x2="56.29" y2="23.19"/>
      </g>
      <line class="cls-1" x1="64.14" y1="9.59" x2="68.83" y2="9.59"/>
      <line class="cls-1" x1="64.38" y1="34.93" x2="68.83" y2="34.93"/>
      <line class="cls-1" x1="64.14" y1="16.39" x2="68.83" y2="16.39"/>
      <line class="cls-1" x1="35.62" y1="9.59" x2="40.57" y2="9.59"/>
      <line class="cls-1" x1="35.62" y1="16.39" x2="40.57" y2="16.39"/>
      <line class="cls-1" x1="40.33" y1="34.93" x2="36.81" y2="34.93"/>
      <path class="cls-1" d="M15.04,41.73v3.19c0,1.12-.44,2.19-1.23,2.98l-3.75,3.75"/>
      <line class="cls-1" x1="29.53" y1="41.73" x2="29.53" y2="46.67"/>
      <line class="cls-1" x1="29.53" y1="28.13" x2="29.53" y2="23.19"/>
      <line class="cls-1" x1="13.45" y1="16.39" x2="16.62" y2="16.39"/>
      <line class="cls-1" x1="13.45" y1="34.93" x2="16.62" y2="34.93"/>
      <path class="cls-1" d="M56.88,37.2h-9.06c-.4,0-.72-.32-.72-.72v-3.1c0-.4.32-.72.72-.72h9.06c.4,0,.72.32.72.72v3.1c0,.4-.32.72-.72.72Z"/>
    </g>
  </g>
</svg>