<?xml version="1.0" encoding="UTF-8"?>
<svg id="Layer_2" data-name="Layer 2" xmlns="http://www.w3.org/2000/svg" viewBox="0 0 38.58 42.13">
  <defs>
    <style>
      .cls-1 {
        fill: #000000;
      }
    </style>
  </defs>
  <g id="Layer_1-2" data-name="Layer 1">
    <g>
      <path class="cls-1" d="M27.93,35.04l-.09.05c-.32.17-.44.58-.27.9.12.22.35.35.59.35.11,0,.21-.03.32-.08l.1-.05c.32-.18.44-.58.26-.9-.18-.32-.58-.44-.9-.26Z"/>
      <path class="cls-1" d="M10.74,35.09c-.24-.13-.47-.26-.7-.4C4.58,31.4,1.33,25.65,1.33,19.29c0-3.69,1.11-7.24,3.22-10.26.21-.3.14-.72-.17-.93-.3-.21-.72-.14-.93.16C1.2,11.51,0,15.32,0,19.29c0,3.39.89,6.72,2.57,9.63,1.63,2.83,3.98,5.21,6.77,6.9.25.15.5.29.76.43.1.05.21.08.32.08.24,0,.46-.13.59-.35.18-.32.06-.73-.27-.9Z"/>
      <path class="cls-1" d="M7.23,5.76c.15,0,.31-.05.43-.16,3.24-2.76,7.37-4.28,11.63-4.28s8.03,1.37,11.25,3.96c.29.23.7.18.94-.1.23-.29.18-.7-.1-.94C27.97,1.51,23.67,0,19.29,0S10.28,1.63,6.8,4.59c-.28.24-.31.66-.08.94.13.15.32.23.51.23Z"/>
      <path class="cls-1" d="M32.53,7.15c.13.14.31.22.49.22.16,0,.32-.06.45-.18.27-.25.29-.67.04-.94l-.05-.06c-.25-.27-.67-.29-.94-.04-.27.25-.29.67-.04.94l.05.05Z"/>
      <path class="cls-1" d="M19.29,11.53c-4.28,0-7.76,3.48-7.76,7.76,0,1.76.6,3.48,1.7,4.85.13.16.32.25.52.25.15,0,.29-.05.42-.15.29-.23.33-.65.1-.94-.92-1.15-1.41-2.54-1.41-4.02,0-3.55,2.88-6.43,6.43-6.43s6.43,2.88,6.43,6.43c0,1.48-.49,2.87-1.41,4.02-.23.29-.18.71.1.94.29.23.71.18.94-.1,1.1-1.37,1.7-3.09,1.7-4.85,0-4.28-3.48-7.76-7.76-7.76Z"/>
      <path class="cls-1" d="M33.26,19.29c0-7.7-6.27-13.97-13.97-13.97s-13.97,6.27-13.97,13.97c0,2.88.87,5.64,2.51,7.99,1.43,2.05,3.36,3.66,5.6,4.69-.08.19-.13.4-.13.62v3.55c0,3.3,2.69,5.99,5.99,5.99s5.99-2.69,5.99-5.99v-3.55c0-.22-.05-.43-.13-.62,2.25-1.04,4.17-2.64,5.6-4.69,1.64-2.35,2.51-5.11,2.51-7.99ZM23.95,36.14c0,2.57-2.09,4.66-4.66,4.66s-4.66-2.09-4.66-4.66v-.22h3.77c.37,0,.67-.3.67-.67s-.3-.67-.67-.67h-3.77v-2c0-.12.1-.22.22-.22h8.87c.12,0,.22.1.22.22v3.55h0ZM17.29,31.04v-10.86c0-1.1.9-2,2-2s2,.9,2,2v10.86h-3.99ZM23.91,31.05c-.06,0-.13-.01-.19-.01h-1.11v-10.86c0-1.83-1.49-3.33-3.33-3.33s-3.33,1.49-3.33,3.33v10.86h-1.11c-.06,0-.13,0-.19.01-4.8-1.89-8.01-6.6-8.01-11.76,0-6.97,5.67-12.64,12.64-12.64s12.64,5.67,12.64,12.64c0,5.16-3.22,9.88-8.01,11.76Z"/>
      <path class="cls-1" d="M21.06,34.59h-.09c-.37,0-.67.3-.67.67s.3.67.67.67h.09c.37,0,.67-.3.67-.67,0-.37-.3-.67-.67-.67Z"/>
      <path class="cls-1" d="M35.12,8.27c-.21-.3-.62-.38-.93-.16-.3.21-.38.62-.16.93,2.11,3.02,3.22,6.57,3.22,10.26,0,5.63-2.57,10.83-7.04,14.26-.29.22-.35.64-.12.93.13.17.33.26.53.26.14,0,.28-.04.4-.14,2.3-1.76,4.2-4.06,5.5-6.64,1.36-2.71,2.06-5.62,2.06-8.68,0-3.97-1.2-7.78-3.46-11.02Z"/>
    </g>
  </g>
</svg>