<?xml version="1.0" encoding="UTF-8"?>
<svg id="Layer_2" data-name="Layer 2" xmlns="http://www.w3.org/2000/svg" viewBox="0 0 96.52 105.47">
  <defs>
    <style>
      .cls-1 {
        fill: #000000;
      }
    </style>
  </defs>
  <g id="Layer_1-2" data-name="Layer 1">
    <g>
      <path class="cls-1" d="M1.88,16.96h11.3c1.04,0,1.88-.84,1.88-1.88s-.84-1.88-1.88-1.88H1.88c-1.04,0-1.88.84-1.88,1.88s.84,1.88,1.88,1.88Z"/>
      <path class="cls-1" d="M13.18,23.74h-5.65c-1.04,0-1.88.84-1.88,1.88s.84,1.88,1.88,1.88h5.65c1.04,0,1.88-.84,1.88-1.88s-.84-1.88-1.88-1.88Z"/>
      <path class="cls-1" d="M1.88,38.05h11.3c1.04,0,1.88-.84,1.88-1.88s-.84-1.88-1.88-1.88H1.88c-1.04,0-1.88.84-1.88,1.88s.84,1.88,1.88,1.88Z"/>
      <path class="cls-1" d="M13.18,44.83h-5.65c-1.04,0-1.88.84-1.88,1.88s.84,1.88,1.88,1.88h5.65c1.04,0,1.88-.84,1.88-1.88s-.84-1.88-1.88-1.88Z"/>
      <path class="cls-1" d="M15.07,57.26c0-1.04-.84-1.88-1.88-1.88H1.88c-1.04,0-1.88.84-1.88,1.88s.84,1.88,1.88,1.88h11.3c1.04,0,1.88-.84,1.88-1.88h0Z"/>
      <path class="cls-1" d="M47.09,68.78V13.18c-.02-7.27-5.91-13.17-13.18-13.18-7.28,0-13.17,5.91-13.18,13.18v55.59c-4.79,3.92-7.56,9.78-7.53,15.97,0,11.44,9.26,20.72,20.71,20.73,11.44,0,20.72-9.26,20.73-20.71,0-6.19-2.76-12.05-7.53-15.99ZM33.91,101.69c-9.36,0-16.94-7.59-16.95-16.95-.03-5.33,2.48-10.36,6.76-13.54.49-.35.77-.91.77-1.51V13.18c0-5.2,4.22-9.41,9.42-9.42,5.19.02,9.4,4.22,9.42,9.42v56.52c0,.59.27,1.16.75,1.51,4.28,3.18,6.8,8.21,6.78,13.54-.01,9.35-7.59,16.93-16.95,16.95Z"/>
      <path class="cls-1" d="M35.79,75.52V15.07c0-1.04-.84-1.88-1.88-1.88s-1.88.84-1.88,1.88v60.45c-5.1,1.04-8.38,6.01-7.34,11.11s6.01,8.38,11.11,7.34,8.38-6.01,7.34-11.11c-.75-3.7-3.64-6.59-7.34-7.34Z"/>
      <path class="cls-1" d="M63.15,32.49h0c-1.04,0-1.88.84-1.89,1.88,0,1.04.84,1.88,1.88,1.89,6.08,0,11,4.93,11.01,11.01,0,1.04.85,1.88,1.88,1.88h0c1.04,0,1.88-.85,1.88-1.89h0c-.01-8.15-6.61-14.75-14.76-14.76Z"/>
      <path class="cls-1" d="M63.15,22.75c-1.04,0-1.88.84-1.88,1.88s.84,1.88,1.88,1.88c11.44.02,20.71,9.29,20.73,20.73,0,1.04.84,1.88,1.88,1.88s1.88-.84,1.88-1.88c-.02-13.52-10.97-24.48-24.49-24.49Z"/>
      <path class="cls-1" d="M87.12,23.27c-5.99-6.02-14.14-9.4-22.63-9.39h0c-1.04,0-1.88.84-1.89,1.88s.84,1.88,1.88,1.89c15.6.02,28.25,12.66,28.27,28.27,0,1.04.84,1.88,1.88,1.88h0c1.04,0,1.88-.85,1.88-1.88h0c0-8.5-3.37-16.64-9.39-22.64Z"/>
      <circle class="cls-1" cx="63.15" cy="47.25" r="5.65"/>
    </g>
  </g>
</svg>