<svg width="512" height="512" viewBox="0 0 512 512" fill="none" xmlns="http://www.w3.org/2000/svg">
<path fill-rule="evenodd" clip-rule="evenodd" d="M25.766 62.9586C24.6768 63.433 23.1594 64.6159 22.3945 65.5876L21.0042 67.3546V206.259C21.0042 358.572 20.7242 347.778 24.7282 349.847C27.1672 351.108 127.102 352.149 130.012 350.944C131.916 350.156 134.028 347.284 134.028 345.483C134.028 344.919 133.45 343.881 132.744 343.175C131.481 341.913 130.603 341.891 81.1445 341.891H30.8289L30.4122 336.015C30.1823 332.784 29.9948 272.129 29.9948 201.227V72.3135L181.389 72.4753L332.783 72.637L332.559 123.197C332.356 168.997 332.433 173.907 333.376 175.347C334.703 177.371 338.004 177.493 340.403 175.606L342.095 174.276L342.091 120.889C342.087 69.198 342.047 67.4426 340.845 65.6197C340.162 64.5851 338.936 63.3675 338.12 62.915C335.869 61.6666 28.6365 61.7096 25.766 62.9586ZM269.289 88.6234C265.274 90.117 262.307 92.9726 259.896 97.6619C257.971 101.406 257.654 102.643 257.69 106.27C257.713 108.6 258.041 111.084 258.418 111.79C259.028 112.929 257.313 114.944 243.125 129.761C230.17 143.289 226.87 146.406 225.7 146.221C224.905 146.096 221.943 145.952 219.117 145.9C214.967 145.825 213.431 146.081 211.123 147.234L208.266 148.661L203.095 145.689C200.252 144.054 195.099 140.888 191.645 138.653C188.19 136.417 184.506 134.144 183.457 133.603C181.812 132.752 181.55 132.255 181.55 129.979C181.55 125.255 180.226 122.292 176.39 118.429C172.344 114.357 169.965 113.403 163.832 113.398C156.987 113.392 151.235 117.081 147.825 123.664C146.574 126.077 146.146 133.325 147.047 136.821C147.524 138.673 146.78 139.551 127.59 159.773C110.229 178.066 107.478 180.715 106.425 180.152C102.687 178.152 94.4024 180.23 89.8673 184.305C83.6015 189.936 81.9402 198.295 85.6237 205.659C91.0855 216.578 108.315 217.869 114.933 207.854C118.516 202.432 119.356 194.115 116.81 189.281L115.367 186.541L132.5 168.742C141.923 158.952 150.674 149.862 151.947 148.542L154.261 146.142L157.418 147.74C161.107 149.606 166.187 149.87 169.754 148.38C171.015 147.854 173.47 146.232 175.212 144.775L178.378 142.125L184.94 145.943C188.55 148.044 194.026 151.302 197.108 153.184C202.335 156.375 202.683 156.718 202.246 158.267C201.216 161.922 201.844 168.149 203.586 171.577C211.578 187.297 235.822 181.685 237.26 163.782C237.531 160.415 237.321 159.186 235.975 156.249L234.367 152.739L249.919 136.76L265.471 120.781L268.893 122.383C273.535 124.556 278.888 124.474 283.455 122.161C296.495 115.557 296.498 96.219 283.46 89.5394C280.02 87.7768 272.817 87.3115 269.289 88.6234ZM271.776 98.2485C268.773 99.5733 267.446 101.501 267.107 105.033C266.883 107.361 267.093 108.689 267.877 109.884C270.488 113.867 276.277 115.202 280.301 112.75C282.716 111.279 283.657 109.27 283.657 105.589C283.657 99.3326 277.684 95.642 271.776 98.2485ZM160.598 123.654C158.735 124.406 156.492 127.698 156.113 130.236C155.726 132.833 157.566 135.992 160.512 137.787C164.471 140.2 168.219 138.934 170.644 134.365C172.014 131.784 172.086 131.252 171.386 128.915C169.951 124.13 165.182 121.804 160.598 123.654ZM259.817 144.71C258.688 144.846 257.761 145.606 257.001 147.016C255.952 148.965 255.89 151.388 256.165 180.09C256.412 205.958 256.612 211.157 257.376 211.64C258.77 212.522 261.671 212.349 263.781 211.259L265.675 210.28V181.734V153.189H275.95H286.225L286.165 170.037C286.131 179.304 285.913 189.601 285.68 192.919L285.255 198.953L287.185 199.776C288.904 200.509 289.395 200.435 291.684 199.1C294.057 197.715 294.282 197.34 294.637 194.169C294.848 192.281 294.992 180.776 294.958 168.602L294.895 146.468L293.289 145.725C291.797 145.033 264.085 144.193 259.817 144.71ZM215.021 156.176C212.562 157.427 211.09 160.294 211.09 163.834C211.09 165.712 211.601 166.687 213.666 168.751C216.083 171.167 216.423 171.305 219.172 170.995C222.494 170.621 226.47 167.845 227.395 165.254C229.67 158.878 221.495 152.881 215.021 156.176ZM397.705 161.994C395.893 162.457 378.872 169.274 370.03 173.077C365.792 174.9 356.4 178.796 349.159 181.735C341.918 184.674 330.215 189.533 323.151 192.533C316.087 195.532 301.493 201.666 290.721 206.163C279.948 210.659 267.377 215.907 262.786 217.825C258.194 219.742 251.692 222.419 248.337 223.772C238.85 227.598 235.125 229.154 226.823 232.756C222.585 234.596 212.182 238.933 203.705 242.396C158.513 260.857 118.125 277.943 116.85 279.14C115.746 280.178 115.405 281.215 115.405 283.538C115.405 286.482 115.491 286.619 118.134 287.883C120.773 289.145 139.475 297.107 147.052 300.195C149.846 301.333 150.668 301.954 150.372 302.704C148.4 307.703 148.584 318.514 150.827 329.375C154.495 347.137 161.943 361.929 172.976 373.369C183.298 384.07 193.914 388.821 205.504 387.927C211.032 387.502 213.582 386.689 226.181 381.346C231.479 379.099 247.518 372.296 261.822 366.229C291.232 353.754 308.952 346.37 308.994 346.569C309.01 346.644 309.884 348.438 310.936 350.556C313.317 355.348 317.548 359.565 322.766 362.344L326.772 364.478L326.312 384.88C325.856 405.12 325.864 405.305 327.281 408.232C328.896 411.566 332.103 414.364 336.712 416.46L339.847 417.886L393.143 418.131C432.829 418.314 446.563 418.568 446.922 419.126C447.188 419.538 447.39 425.71 447.37 432.842C447.347 441.281 447.587 446.28 448.057 447.157C448.454 447.899 449.7 449.067 450.825 449.753C452.71 450.901 454.163 451 469.247 451C483.997 451 485.814 450.883 487.549 449.823C491.42 447.459 491.284 449.648 490.675 399.464C490.134 354.904 490.081 353.536 488.835 352.161C486.075 349.115 485.023 348.949 468.797 348.987C451.653 349.028 449.884 349.345 447.538 352.802L446.014 355.049L446.474 369.431L446.934 383.812L423.894 383.379C411.223 383.141 392.131 382.933 381.47 382.917L362.085 382.888L361.736 379.559C361.544 377.728 361.301 372.309 361.198 367.518L361.009 358.805L363.807 356.606C367.027 354.074 371.694 347.866 373.58 343.604C375.583 339.079 375.924 330.006 374.32 323.919C373.623 321.272 373.143 319.01 373.252 318.892C373.443 318.689 386.075 313.512 412.088 302.973C426.297 297.217 429.589 295.411 433.501 291.23C439.855 284.442 442.918 277.273 442.918 269.19C442.918 263.806 440.409 255.87 434.816 243.555C431.763 236.834 427.505 227.036 427.505 226.732C427.505 226.68 430.146 225.493 433.374 224.092C436.602 222.691 440.107 220.745 441.163 219.766C444.279 216.879 443.671 215.045 432.185 192.662C423.141 175.039 421.538 172.319 418.157 168.869C413.112 163.719 408.486 161.506 402.982 161.607C400.752 161.648 398.378 161.822 397.705 161.994ZM394.433 173.491C390.548 175.084 369.885 183.7 348.517 192.637C308.86 209.223 280.71 220.89 272.097 224.31C269.448 225.362 261.212 228.82 253.795 231.994C229.358 242.452 192.115 257.994 150.404 275.142C143.693 277.901 136.643 280.856 134.738 281.71L131.274 283.261L139.233 286.52C148.022 290.118 176.392 301.905 193.53 309.08L204.546 313.691L215.364 308.915C236.298 299.672 263.626 287.728 282.372 279.626C305.468 269.644 347.861 251.048 371.314 240.611C380.851 236.366 398.308 228.682 410.109 223.533C421.909 218.384 431.704 214.032 431.874 213.862C432.044 213.692 431.887 213.185 431.525 212.735C431.163 212.285 426.957 204.119 422.178 194.588C417.399 185.056 412.814 176.647 411.988 175.9C410.033 174.133 405.143 171.409 403.102 170.953C402.032 170.713 399.139 171.56 394.433 173.491ZM146.908 180.24C146.167 181.457 145.491 184.199 145.205 187.14C144.595 193.432 146.1 254.442 146.903 255.942C148.419 258.772 151.645 257.984 153.976 254.214L155.416 251.885L154.956 219.867L154.495 187.848H164.49C173.558 187.848 174.491 187.953 174.549 188.971C174.584 189.589 174.675 190.672 174.751 191.378C174.828 192.084 174.944 203.558 175.009 216.875L175.128 241.089L176.894 241.972C178.969 243.011 182.058 242.401 183.654 240.638C184.588 239.607 184.652 236.646 184.301 210.726C183.949 184.695 183.806 181.828 182.794 180.579C181.428 178.894 175.973 178.361 159.224 178.276L148.138 178.22L146.908 180.24ZM97.5362 190.579C95.776 191.425 93.5707 195.442 93.5707 197.803C93.5707 199.962 95.1788 203.037 96.7463 203.875C97.4258 204.239 99.2906 204.536 100.891 204.536C103.211 204.536 104.248 204.144 106.003 202.604C108.617 200.31 109.299 198.132 108.327 195.186C106.842 190.69 101.791 188.533 97.5362 190.579ZM203.14 198.303C201.78 199.663 201.638 200.512 201.242 209.637C200.627 223.851 200.712 233.279 201.459 233.741C202.612 234.453 208.019 233.279 209.249 232.049C210.335 230.965 210.448 229.707 210.448 218.729V206.607L212.214 206.359C213.185 206.223 217.52 206.22 221.847 206.354L229.713 206.597L229.815 213.108C229.871 216.689 229.876 220.118 229.826 220.726C229.602 223.438 235.572 223.551 238.081 220.883C239.419 219.459 239.447 219.094 238.993 209.317C238.593 200.726 238.345 199.043 237.329 198.027C236.23 196.929 234.882 196.834 220.373 196.834C204.802 196.834 204.592 196.852 203.14 198.303ZM94.1641 231.225L92.6075 232.882L92.8483 272.078L93.0885 311.274L91.5639 310.866C90.7252 310.641 89.29 310.454 88.3742 310.449L86.7097 310.44L86.2723 289.099C85.8768 269.789 85.7226 267.605 84.6521 266.153L83.4692 264.549L68.7729 264.574C60.6898 264.588 53.3509 264.793 52.4647 265.029C51.5778 265.266 50.35 266.309 49.7354 267.349C48.7298 269.05 48.618 271.532 48.618 292.118C48.618 316.468 48.7722 317.791 51.7936 319.407C52.6015 319.84 66.4398 320.068 91.8112 320.068H130.593L131.99 318.583C133.702 316.761 133.812 313.592 132.211 312.145C131.194 311.224 129.152 311.082 116.874 311.082H102.712L102.234 275.782C101.972 256.367 101.794 240.264 101.838 239.999C101.882 239.734 106.181 239.517 111.391 239.517H120.863L121.269 248.182C121.492 252.947 121.709 259.054 121.751 261.751C121.822 266.382 121.914 266.678 123.388 267.047C125.284 267.523 127.744 266.658 129.507 264.895C130.698 263.705 130.813 262.816 130.777 255.081C130.754 250.404 130.517 243.429 130.248 239.581C129.793 233.042 129.647 232.488 128.006 231.077C126.269 229.585 126.084 229.568 110.986 229.568H95.7214L94.1641 231.225ZM399.57 238.986C388.974 243.72 374.092 250.293 366.498 253.593C358.904 256.893 346.333 262.393 338.563 265.817C330.793 269.24 306.807 279.681 285.262 289.018C237.041 309.917 226.884 314.35 226.606 314.621C226.487 314.738 227.12 316.083 228.013 317.611C230.321 321.558 233.34 330.961 234.579 338.065C236.097 346.762 236.123 359.918 234.63 363.935C233.994 365.645 233.569 367.139 233.684 367.255C234.049 367.619 267.719 353.52 293.61 342.162C318.86 331.086 352.304 317.055 413.056 292.052C421.335 288.644 425.302 286.26 428.407 282.825C431.701 279.181 433.415 275.385 433.754 270.986C434.004 267.731 433.702 266.147 431.855 261.018C429.558 254.645 419.869 231.463 419.213 230.776C419.006 230.558 410.166 234.253 399.57 238.986ZM58.2565 288.761C58.2591 296.978 58.444 305.218 58.6669 307.071L59.0721 310.44H68.0177H76.9639L76.7584 292.308L76.5529 274.176L67.4018 273.998L58.2508 273.82L58.2565 288.761ZM158.704 308.29C157.456 316.611 160.171 332.163 164.818 343.309C167.128 348.847 172.995 358.881 176.562 363.393C182.483 370.88 191.587 376.607 199.807 378.015C205.213 378.94 210.395 378.092 216.749 375.24C222.276 372.761 223.183 371.417 225.273 362.617C227.683 352.474 226.294 337.081 221.951 325.809C219.036 318.239 219.075 318.27 214.55 320.058C209.51 322.05 209.409 322.178 210.658 325.021C213.519 331.537 214.734 346.481 212.774 351.058C210.859 355.533 205.47 358.743 199.852 358.754C192.89 358.769 183.12 351.397 179.057 343.064C176.492 337.805 174.933 331.662 174.908 326.713C174.891 323.503 175.291 321.946 177.053 318.369C178.245 315.949 179.238 313.885 179.261 313.78C179.312 313.541 160.206 305.306 159.599 305.306C159.353 305.306 158.951 306.648 158.704 308.29ZM187.381 317.759C187.026 318.188 186.153 319.82 185.441 321.389C183.004 326.758 184.097 333.547 188.49 340.334C191.368 344.78 194.669 347.49 198.679 348.696C201.446 349.528 201.609 349.5 203.191 347.919C204.786 346.325 204.823 346.096 204.511 339.752C204.16 332.613 202.331 325.933 199.955 323.11C198.063 320.863 188.266 316.693 187.381 317.759ZM343.981 331.191C333.187 335.84 322.858 340.268 321.03 341.031L317.706 342.417L318.542 344.405C321.64 351.771 328.058 356.006 336.893 356.517C351.762 357.377 364.77 347.206 365.721 333.976C366.014 329.898 364.888 322.566 363.987 322.686C363.779 322.714 354.776 326.541 343.981 331.191ZM463.214 359.047L455.576 359.263L456.017 397.592C456.259 418.673 456.62 437.238 456.818 438.848L457.178 441.775L469.395 441.736L481.61 441.698L481.122 411.852C480.854 395.437 480.456 376.807 480.239 370.453L479.843 358.9L475.348 358.865C472.875 358.846 467.415 358.927 463.214 359.047ZM347.663 364.751C346.31 365.24 343.246 365.821 340.853 366.044L336.504 366.448L336.089 374.167C335.86 378.413 335.673 386.846 335.673 392.907C335.673 405.154 335.654 405.098 340.616 407.604C342.892 408.753 354.548 408.929 415.785 408.739L446.771 408.643V400.62V392.597L402.621 392.594C360.037 392.592 358.398 392.548 356.425 391.345C353.031 389.277 352.76 388.181 352.484 375.427C352.2 362.392 352.48 363.011 347.663 364.751Z" fill="#000000"/>
</svg>
