<?xml version="1.0" encoding="UTF-8"?>
<svg id="Layer_2" data-name="Layer 2" xmlns="http://www.w3.org/2000/svg" viewBox="0 0 56.99 27.57">
  <defs>
    <style>
      .cls-1 {
        fill: #000000;
      }
    </style>
  </defs>
  <g id="Layer_1-2" data-name="Layer 1">
    <g id="CPU-2">
      <g>
        <path class="cls-1" d="M55.15,0H1.84C.82,0,0,.82,0,1.84v23.9c0,1.02.82,1.84,1.84,1.84h53.31c1.02,0,1.84-.82,1.84-1.84V1.84c0-1.02-.82-1.84-1.84-1.84ZM1.84,25.74V1.84h53.31v23.9H1.84Z"/>
        <path class="cls-1" d="M35.85,10.11c.51,0,.92-.41.92-.92s-.41-.92-.92-.92h-.92c0-.51-.41-.92-.92-.92v-.92c0-.51-.41-.92-.92-.92s-.92.41-.92.92v.92h-.92v-.92c0-.51-.41-.92-.92-.92s-.92.41-.92.92v.92h-1.84v-.92c0-.51-.41-.92-.92-.92s-.92.41-.92.92v.92h-.92v-.92c0-.51-.41-.92-.92-.92s-.92.41-.92.92v.92c-.51,0-.92.41-.92.92h-.92c-.51,0-.92.41-.92.92s.41.92.92.92h.92v.92h-.92c-.51,0-.92.41-.92.92s.41.92.92.92h.92v1.84h-.92c-.51,0-.92.41-.92.92s.41.92.92.92h.92v.92h-.92c-.51,0-.92.41-.92.92s.41.92.92.92h.92c0,.51.41.92.92.92v.92c0,.51.41.92.92.92s.92-.41.92-.92v-.92h.92v.92c0,.51.41.92.92.92s.92-.41.92-.92v-.92h1.84v.92c0,.51.41.92.92.92s.92-.41.92-.92v-.92h.92v.92c0,.51.41.92.92.92s.92-.41.92-.92v-.92c.51,0,.92-.41.92-.92h.92c.51,0,.92-.41.92-.92s-.41-.92-.92-.92h-.92v-.92h.92c.51,0,.92-.41.92-.92s-.41-.92-.92-.92h-.92v-1.84h.92c.51,0,.92-.41.92-.92s-.41-.92-.92-.92h-.92v-.92h.92ZM23.9,18.38v-9.19h9.19v9.19h-9.19Z"/>
        <path class="cls-1" d="M8.27,2.76h-3.68c-.51,0-.92.41-.92.92v3.68c0,.51.41.92.92.92h.92v5.51c0,.51.41.92.92.92s.92-.41.92-.92v-5.51h.92c.51,0,.92-.41.92-.92v-3.68c0-.51-.41-.92-.92-.92ZM7.35,6.43h-1.84v-1.84h1.84v1.84Z"/>
        <path class="cls-1" d="M8.27,19.3h-3.68c-.51,0-.92.41-.92.92v3.68c0,.51.41.92.92.92h3.68c.51,0,.92-.41.92-.92v-3.68c0-.51-.41-.92-.92-.92ZM7.35,22.98h-1.84v-1.84h1.84v1.84Z"/>
        <path class="cls-1" d="M7.35,17.46v-.92c0-.51-.41-.92-.92-.92s-.92.41-.92.92v.92c0,.51.41.92.92.92s.92-.41.92-.92Z"/>
        <path class="cls-1" d="M52.39,2.76h-3.68c-.51,0-.92.41-.92.92v3.68c0,.51.41.92.92.92h.92v5.51c0,.51.41.92.92.92s.92-.41.92-.92v-5.51h.92c.51,0,.92-.41.92-.92v-3.68c0-.51-.41-.92-.92-.92ZM51.47,6.43h-1.84v-1.84h1.84v1.84Z"/>
        <path class="cls-1" d="M52.39,19.3h-3.68c-.51,0-.92.41-.92.92v3.68c0,.51.41.92.92.92h3.68c.51,0,.92-.41.92-.92v-3.68c0-.51-.41-.92-.92-.92ZM51.47,22.98h-1.84v-1.84h1.84v1.84Z"/>
        <path class="cls-1" d="M51.47,17.46v-.92c0-.51-.41-.92-.92-.92s-.92.41-.92.92v.92c0,.51.41.92.92.92s.92-.41.92-.92Z"/>
        <path class="cls-1" d="M17.46,2.76h-5.51c-.51,0-.92.41-.92.92v20.22c0,.51.41.92.92.92h5.51c.51,0,.92-.41.92-.92V3.68c0-.51-.41-.92-.92-.92ZM16.54,22.98h-3.68V4.6h3.68v18.38Z"/>
        <path class="cls-1" d="M45.04,2.76h-5.51c-.51,0-.92.41-.92.92v20.22c0,.51.41.92.92.92h5.51c.51,0,.92-.41.92-.92V3.68c0-.51-.41-.92-.92-.92ZM44.12,22.98h-3.68V4.6h3.68v18.38Z"/>
        <path class="cls-1" d="M27.57,10.11h-1.84c-.51,0-.92.41-.92.92v2.76c0,.51.41.92.92.92s.92-.41.92-.92v-1.84h.92c.51,0,.92-.41.92-.92s-.41-.92-.92-.92Z"/>
        <path class="cls-1" d="M31.25,10.11h-.92c-.51,0-.92.41-.92.92s.41.92.92.92h.92c.51,0,.92-.41.92-.92s-.41-.92-.92-.92Z"/>
      </g>
    </g>
  </g>
</svg>