<svg width="512" height="512" viewBox="0 0 512 512" fill="none" xmlns="http://www.w3.org/2000/svg">
<path fill-rule="evenodd" clip-rule="evenodd" d="M360.168 37.0186C333.627 37.0186 307.094 40.7999 280.74 48.3519C273.501 50.4354 268.823 56.6435 268.823 64.1748L268.825 121.571C268.825 129.102 273.5 135.31 280.74 137.384C333.449 152.498 386.886 152.498 439.594 137.384C446.835 135.31 451.511 129.102 451.511 121.571L451.511 64.1748C451.511 56.6435 446.834 50.4353 439.594 48.3519C413.24 40.7999 386.698 37.0189 360.168 37.0186ZM360.168 158.727C332.708 158.727 305.25 154.811 277.989 146.998C266.532 143.707 258.833 133.488 258.833 121.571L258.833 64.1751C258.833 52.248 266.531 42.0294 277.989 38.748C332.521 23.1022 387.813 23.1022 442.344 38.748C453.803 42.0291 461.511 52.248 461.511 64.1751L461.512 121.571C461.512 133.488 453.802 143.707 442.344 146.998C415.084 154.811 387.625 158.728 360.168 158.727Z" fill="#000000"/>
<path fill-rule="evenodd" clip-rule="evenodd" d="M293.345 114.248H426.99V70.311C382.625 58.6237 337.708 58.6237 293.343 70.311L293.345 114.248ZM431.989 124.249H288.343C285.584 124.249 283.343 122.009 283.343 119.249L283.344 66.4881C283.344 64.2485 284.843 62.2695 286.999 61.6757C335.553 48.1654 384.78 48.1654 433.333 61.6757C435.491 62.2692 436.989 64.2485 436.989 66.4884L436.991 119.249C436.991 122.009 434.749 124.249 431.989 124.249Z" fill="#000000"/>
<path fill-rule="evenodd" clip-rule="evenodd" d="M360.168 449.477C343.928 449.477 327.698 445.623 316.187 437.915C310.919 434.384 307.968 428.727 308.094 422.384L309.219 366.831C310.511 303.04 308.416 235.914 302.417 149.175C302.23 146.425 304.302 144.04 307.062 143.842C309.812 143.685 312.208 145.737 312.396 148.488C318.419 235.53 320.521 302.936 319.219 367.04L318.095 422.582C318.032 425.54 319.302 427.967 321.75 429.603C341.502 442.842 378.833 442.832 398.583 429.603C401.033 427.967 402.302 425.54 402.239 422.582L401.115 367.04C399.815 302.946 401.927 235.54 407.937 148.488C408.137 145.737 410.521 143.654 413.271 143.842C416.033 144.04 418.104 146.425 417.917 149.175C411.918 235.925 409.823 303.05 411.115 366.831L412.241 422.384C412.365 428.727 409.417 434.384 404.146 437.915C392.647 445.623 376.406 449.477 360.168 449.477Z" fill="#000000"/>
<path fill-rule="evenodd" clip-rule="evenodd" d="M344.52 205.894C342.376 205.894 340.614 206.665 339.166 208.238C337.71 209.811 337.073 211.613 337.239 213.759C338.293 227.29 343.114 243.665 360.166 245.072C377.209 243.665 382.041 227.29 383.093 213.759C383.26 211.613 382.625 209.811 381.177 208.238C379.719 206.665 377.958 205.895 375.812 205.895L344.52 205.894ZM360.167 255.082C360.052 255.082 359.937 255.082 359.822 255.072C340.752 253.738 329.187 239.343 327.27 214.53C326.886 209.592 328.468 205.072 331.823 201.447C335.178 197.811 339.572 195.895 344.52 195.895H375.814C380.762 195.895 385.146 197.811 388.51 201.447C391.864 205.071 393.448 209.592 393.062 214.53C391.147 239.343 379.583 253.738 360.51 255.072C360.397 255.082 360.281 255.082 360.167 255.082Z" fill="#000000"/>
<path fill-rule="evenodd" clip-rule="evenodd" d="M360.168 484.987C342.458 484.987 328.041 470.571 328.041 452.862L328.042 440.414C328.042 437.654 330.281 435.414 333.042 435.414C335.802 435.414 338.041 437.654 338.041 440.414L338.043 452.862C338.043 465.06 347.969 474.987 360.167 474.987C372.365 474.987 382.291 465.06 382.291 452.862L382.293 440.414C382.293 437.654 384.531 435.414 387.292 435.414C390.053 435.414 392.291 437.654 392.291 440.414L392.294 452.862C392.294 470.57 377.875 484.987 360.168 484.987Z" fill="#000000"/>
<path fill-rule="evenodd" clip-rule="evenodd" d="M314.199 103.405C311.438 103.405 309.197 101.165 309.197 98.4049L309.198 77.3319C309.198 74.5714 311.437 72.332 314.197 72.332C316.958 72.3317 319.197 74.5714 319.197 77.3322L319.199 98.4049C319.199 101.165 316.958 103.405 314.199 103.405Z" fill="#000000"/>
<path fill-rule="evenodd" clip-rule="evenodd" d="M337.189 103.405C334.416 103.405 332.187 101.165 332.187 98.4049L332.187 77.3319C332.187 74.5714 334.416 72.332 337.187 72.332C339.948 72.3317 342.187 74.5714 342.187 77.3322L342.188 98.4049C342.188 101.165 339.947 103.405 337.189 103.405Z" fill="#000000"/>
<path fill-rule="evenodd" clip-rule="evenodd" d="M360.168 103.405C357.407 103.405 355.167 101.165 355.167 98.4049L355.169 77.3319C355.169 74.5714 357.406 72.332 360.167 72.332C362.929 72.3317 365.167 74.5714 365.167 77.3322L365.167 98.4049C365.167 101.165 362.927 103.405 360.168 103.405Z" fill="#000000"/>
<path fill-rule="evenodd" clip-rule="evenodd" d="M383.145 103.405C380.387 103.405 378.146 101.165 378.146 98.4049L378.146 77.3319C378.146 74.5714 380.385 72.332 383.145 72.332C385.918 72.3317 388.145 74.5714 388.145 77.3322L388.147 98.4049C388.147 101.165 385.916 103.405 383.145 103.405Z" fill="#000000"/>
<path fill-rule="evenodd" clip-rule="evenodd" d="M406.135 103.405C403.377 103.405 401.135 101.165 401.135 98.4049L401.136 77.3319C401.136 74.5714 403.375 72.332 406.135 72.332C408.896 72.3317 411.135 74.5714 411.135 77.3322L411.137 98.4049C411.137 101.165 408.895 103.405 406.135 103.405Z" fill="#000000"/>
<path fill-rule="evenodd" clip-rule="evenodd" d="M85.3013 307.435H247.739V207.029H85.3013V307.435ZM252.739 317.435H80.3018C77.541 317.435 75.301 315.196 75.301 312.436L75.3028 202.029C75.3028 199.269 77.5404 197.029 80.3012 197.029H252.739C255.5 197.029 257.739 199.269 257.739 202.029L257.741 312.436C257.741 315.196 255.499 317.435 252.739 317.435Z" fill="#000000"/>
<path fill-rule="evenodd" clip-rule="evenodd" d="M233.511 293.405C230.75 293.405 228.51 291.166 228.51 288.405L228.512 226.072C228.512 223.312 230.749 221.072 233.51 221.072C236.272 221.072 238.51 223.312 238.51 226.072L238.51 288.405C238.51 291.166 236.271 293.405 233.511 293.405Z" fill="#000000"/>
<path fill-rule="evenodd" clip-rule="evenodd" d="M211.178 283.947C208.417 283.947 206.177 281.707 206.177 278.947L206.179 226.072C206.179 223.312 208.417 221.072 211.177 221.072C213.939 221.072 216.177 223.312 216.177 226.072V278.947C216.177 281.707 213.937 283.947 211.178 283.947Z" fill="#000000"/>
<path fill-rule="evenodd" clip-rule="evenodd" d="M188.856 293.405C186.083 293.405 183.853 291.166 183.853 288.405L183.854 226.072C183.854 223.312 186.083 221.072 188.854 221.072C191.614 221.072 193.853 223.312 193.853 226.072L193.855 288.405C193.855 291.166 191.614 293.405 188.856 293.405Z" fill="#000000"/>
<path fill-rule="evenodd" clip-rule="evenodd" d="M166.522 276.497C163.761 276.497 161.52 274.258 161.52 271.497L161.52 226.07C161.52 223.31 163.76 221.07 166.52 221.07C169.283 221.07 171.52 223.31 171.52 226.07L171.521 271.497C171.521 274.258 169.281 276.497 166.522 276.497Z" fill="#000000"/>
<path fill-rule="evenodd" clip-rule="evenodd" d="M144.188 293.405C141.427 293.405 139.187 291.166 139.187 288.405L139.189 226.072C139.189 223.312 141.426 221.072 144.187 221.072C146.949 221.072 149.187 223.312 149.187 226.072L149.187 288.405C149.187 291.166 146.947 293.405 144.188 293.405Z" fill="#000000"/>
<path fill-rule="evenodd" clip-rule="evenodd" d="M99.5325 293.405C96.7717 293.405 94.5303 291.166 94.5303 288.405L94.5312 226.072C94.5312 223.312 96.7699 221.072 99.5305 221.072C102.291 221.072 104.53 223.312 104.53 226.072L104.532 288.405C104.532 291.166 102.291 293.405 99.5325 293.405Z" fill="#000000"/>
<path fill-rule="evenodd" clip-rule="evenodd" d="M121.864 283.947C119.094 283.947 116.863 281.707 116.863 278.947L116.864 226.072C116.864 223.312 119.093 221.072 121.864 221.072C124.625 221.072 126.864 223.312 126.864 226.072L126.865 278.947C126.865 281.707 124.624 283.947 121.864 283.947Z" fill="#000000"/>
<path fill-rule="evenodd" clip-rule="evenodd" d="M277.553 226.258C274.783 226.258 272.552 224.019 272.552 221.258L272.554 182.217H233.512C230.751 182.217 228.51 179.988 228.51 177.217C228.512 174.456 230.75 172.217 233.51 172.217H277.553C280.314 172.217 282.552 174.456 282.552 177.217L282.552 221.258C282.552 224.019 280.313 226.258 277.553 226.258Z" fill="#000000"/>
<path fill-rule="evenodd" clip-rule="evenodd" d="M277.553 342.249H233.511C230.75 342.249 228.51 340.009 228.51 337.249C228.512 334.488 230.75 332.249 233.51 332.249H272.554V293.207C272.554 290.447 274.781 288.207 277.552 288.207C280.314 288.207 282.552 290.447 282.552 293.207L282.552 337.249C282.552 340.009 280.312 342.249 277.553 342.249Z" fill="#000000"/>
<path fill-rule="evenodd" clip-rule="evenodd" d="M55.4892 226.258C52.7307 226.258 50.489 224.019 50.489 221.258L50.4899 177.216C50.4899 174.456 52.7287 172.217 55.4889 172.217H99.5329C102.292 172.217 104.531 174.456 104.531 177.217C104.532 179.988 102.291 182.217 99.5308 182.217H60.4909V221.258C60.4909 224.019 58.2492 226.258 55.4892 226.258Z" fill="#000000"/>
<path fill-rule="evenodd" clip-rule="evenodd" d="M99.5326 342.249H55.489C52.7305 342.249 50.4888 340.009 50.4888 337.249L50.4897 293.207C50.4897 290.447 52.7284 288.207 55.4887 288.207C58.2498 288.207 60.4892 290.447 60.4892 293.207L60.4906 332.249H99.5326C102.291 332.249 104.53 334.488 104.53 337.249C104.532 340.009 102.291 342.249 99.5326 342.249Z" fill="#000000"/>
</svg>
