<?xml version="1.0" encoding="UTF-8"?>
<svg id="Layer_2" data-name="Layer 2" xmlns="http://www.w3.org/2000/svg" viewBox="0 0 37.11 41.32">
  <defs>
    <style>
      .cls-1 {
        fill: #000000;
      }
    </style>
  </defs>
  <g id="Layer_1-2" data-name="Layer 1">
    <g>
      <path class="cls-1" d="M36.31,39.7h-.81v-7.26c0-.45-.36-.81-.81-.81h-5.71v-1.93h4.03c.45,0,.81-.36.81-.81v-1.45c-.22-6.38-8.42-9.4-14.58-9.51l6.44-9.46c.17-.25.19-.57.05-.83-.14-.26-.41-.43-.71-.43h-2.8V.81c0-.45-.36-.81-.81-.81h-5.7c-.45,0-.81.36-.81.81v6.41h-2.8c-.3,0-.57.17-.71.43-.14.26-.12.58.05.83l6.43,9.46c-6.2.09-14.47,3.09-14.7,9.51v1.45c0,.45.36.81.81.81h4.03v1.93H2.42c-.45,0-.81.36-.81.81v7.26h-.81c-1.07.04-1.07,1.57,0,1.61h35.51c1.07-.04,1.07-1.57,0-1.61h0ZM15.71,8.83c.45,0,.81-.36.81-.81V1.61h4.08v6.41c0,.45.36.81.81.81h2.08l-4.93,7.25-4.93-7.25h2.08ZM4.78,27.45c.35-5.63,8.25-7.93,13.72-7.91,5.47-.02,13.37,2.28,13.72,7.91v.65H4.78v-.65ZM9.62,29.71h17.75v1.93H9.62v-1.93ZM3.22,33.25h30.66v6.46H3.22v-6.46Z"/>
      <path class="cls-1" d="M7.03,17.2c.22.39.72.52,1.1.3.39-.22.52-.72.3-1.1l-1.87-3.23c-.22-.39-.72-.52-1.1-.3-.39.22-.52.72-.3,1.1l1.87,3.23Z"/>
      <path class="cls-1" d="M.6,18.21l3.23,1.87c.38.22.88.09,1.1-.3.22-.39.09-.88-.3-1.1l-3.23-1.87c-.39-.22-.88-.09-1.1.3-.22.39-.09.88.3,1.1Z"/>
      <path class="cls-1" d="M28.97,17.49c.38.22.88.09,1.1-.3l1.87-3.23c.22-.39.09-.88-.3-1.1-.39-.22-.88-.09-1.1.3l-1.87,3.23c-.22.39-.09.88.3,1.1Z"/>
      <path class="cls-1" d="M32.88,20.18c.14,0,.28-.03.4-.11l3.23-1.87c.39-.22.52-.72.3-1.1-.22-.39-.72-.52-1.1-.3l-3.23,1.87c-.39.22-.52.72-.3,1.1.15.26.42.4.7.4h0Z"/>
    </g>
  </g>
</svg>