<svg width="512" height="512" viewBox="0 0 512 512" fill="none" xmlns="http://www.w3.org/2000/svg">
<path fill-rule="evenodd" clip-rule="evenodd" d="M108.72 22.3736C94.2382 26.2662 81.5014 39.7719 78.8319 54.0652C78.2947 56.946 78 110.4 78 205.176C78 349.13 78.0306 351.929 79.6431 357.149C82.8209 367.43 90.4057 376.542 99.641 381.17C108.198 385.458 111.911 385.927 137.359 385.927H160.776V402.097C160.776 418.163 160.789 418.282 162.808 420.299C164.517 422.007 165.634 422.33 169.844 422.33C174.567 422.33 174.848 422.441 174.848 424.306C174.848 425.393 175.783 429.506 176.925 433.445C184.389 459.188 204.983 479.388 231.55 487.028C237.364 488.699 239.939 488.927 252.658 488.894C266.285 488.859 267.561 488.718 274.179 486.521C295.97 479.286 312.043 465.632 321.981 445.909C324.411 441.087 327.13 433.238 329.003 425.639C329.626 423.108 330.074 395.04 330.401 337.94L330.881 253.964L333.714 247.924C337.073 240.758 343.549 234.272 350.918 230.691C355.237 228.592 356.581 228.359 364.445 228.339C372.873 228.317 373.393 228.423 379.407 231.393C387.121 235.202 393.253 241.431 396.935 249.2L399.585 254.792L399.825 300.916L400.064 347.041H394.624C385.963 347.041 380.561 350.053 377.558 356.556C376.138 359.633 376.029 362.79 376.012 401.466C375.996 437.232 376.174 443.499 377.279 446.143C378.86 449.925 382.03 453.326 385.196 454.637L387.583 455.625V470.499V485.374L390.397 488.187L393.211 491H404.854H416.496L419.422 488.432L422.348 485.865L422.378 470.851L422.408 455.838L425.891 454.183C427.882 453.236 430.346 451.111 431.646 449.219L433.918 445.909L433.98 402.327C434.048 354.814 434.21 356.551 429.251 351.842C425.923 348.682 421.469 347.041 416.216 347.041H411.688L411.396 300.503C411.078 249.876 411.28 252.141 406.136 241.554C402.764 234.614 392.966 224.899 385.898 221.486C367.605 212.652 348.078 215.217 333.925 228.313C328.09 233.713 324.42 239.144 321.444 246.784L319.292 252.31L318.868 336.699L318.442 421.089L316.133 428.495C308.388 453.322 290.657 470.547 267.032 476.192C257.377 478.499 242.076 478.091 233.205 475.29C209.479 467.799 190.996 447.929 186.827 425.433L186.252 422.33H190.935C194.803 422.33 195.971 421.977 197.649 420.299C199.668 418.282 199.681 418.163 199.681 402.097V385.927L223.065 385.914C249.145 385.901 253.414 385.334 262.089 380.735C268.876 377.137 275.591 370.212 279.146 363.143L282.043 357.383L282.263 206.392C282.479 57.9206 282.456 55.3103 280.843 49.988C276.618 36.0447 265.034 25.2056 251.234 22.2826C242.902 20.5178 115.32 20.5989 108.72 22.3736ZM111.524 33.7968C102.56 36.6702 95.7323 42.3574 92.1969 49.8945L90.0025 54.5732L89.7641 92.8381L89.5258 131.103H107.768H126.01V118.453C126.01 103.999 127.093 98.3979 131.218 91.5044C134.664 85.7469 139.997 81.0384 146.704 77.83L152.085 75.2569H180.228H208.372L213.937 77.892C220.277 80.8936 226.986 86.7695 230.06 92.0116C234.207 99.0846 235.275 104.479 235.275 118.353V131.103H253.531H271.788L271.535 93.2518L271.282 55.4005L268.606 49.9342C265.433 43.4528 260.23 38.3555 253.63 35.2628L248.933 33.0621L181.884 32.8983C129.236 32.77 114.124 32.9628 111.524 33.7968ZM152.498 87.912C150.443 88.6898 146.891 91.1792 144.573 93.4652C137.737 100.211 137.599 101.015 137.599 133.999C137.599 165.927 137.781 167.143 143.556 173.7C150.063 181.089 150.215 181.122 178.844 181.409C206.924 181.691 209.123 181.379 215.111 176.256C216.897 174.728 219.464 171.483 220.815 169.044L223.272 164.611L223.518 135.581C223.751 108.038 223.677 106.321 222.072 102.033C220.173 96.9608 215.15 91.3646 210.028 88.6161C206.871 86.9225 205.543 86.8324 181.47 86.671C159.424 86.5238 155.752 86.6809 152.498 87.912ZM89.5887 246.9C89.5887 350.274 89.6027 351.153 91.303 355.694C93.701 362.101 99.7767 368.508 106.317 371.527L111.524 373.93H180.642H249.76L255.246 371.248C261.632 368.125 266.022 363.632 269.101 357.069L271.282 352.419L271.502 247.552L271.721 142.686H253.59H235.458L235.092 154.476C234.789 164.233 234.406 167.05 232.867 170.816C228.639 181.162 219.812 189.089 209.431 191.865C204.974 193.057 200.514 193.218 178.114 192.997L151.994 192.741L145.741 189.65C136.262 184.966 129.927 177.231 127.295 167.126C126.485 164.019 126.01 158.587 126.01 152.44V142.686H107.799H89.5887V246.9ZM170.295 221.63C149.765 225.042 131.349 239.662 123.259 258.971C117.792 272.019 117.085 289.853 121.51 303.11C125.398 314.765 133.977 326.41 143.869 333.465C156.254 342.298 168.426 345.886 183.54 345.157C197.904 344.465 209.608 339.975 220.539 330.963C244.769 310.986 249.702 275.387 231.992 248.306C224.196 236.382 209.771 226.007 196.256 222.6C189.119 220.8 177.827 220.379 170.295 221.63ZM171.951 233.234C160.245 235.449 151.871 240.073 143.642 248.865C134.558 258.572 130.149 269.885 130.149 283.487C130.149 297.986 134.679 308.801 145.039 319.032C169.94 343.627 211.368 336.413 226.283 304.885C237.081 282.062 228.994 254.036 207.609 240.165C197.963 233.909 183.374 231.073 171.951 233.234ZM171.439 255.472C164.123 258.203 157.089 264.678 153.952 271.57C151.519 276.916 151.381 288.544 153.68 294.502C155.898 300.252 162.139 306.585 168.456 309.497C172.843 311.519 174.649 311.871 180.642 311.875C186.537 311.878 188.441 311.521 192.376 309.678C198.659 306.734 204.114 301.548 206.907 295.863C208.924 291.757 209.2 290.249 209.199 283.335C209.198 273.981 207.666 269.886 201.834 263.654C196.12 257.548 190.251 254.933 181.545 254.615C176.991 254.448 173.357 254.756 171.439 255.472ZM173.606 267.334C159.701 274.648 160.05 293.517 174.201 299.425C188.246 305.289 202.854 290.114 196.456 276.303C192.498 267.759 181.217 263.331 173.606 267.334ZM388.952 360.137C387.717 361.502 387.583 365.605 387.583 401.859C387.583 437.31 387.736 442.222 388.883 443.369C389.971 444.456 392.67 444.668 405.392 444.668C420.168 444.668 420.636 444.616 421.887 442.829C423.011 441.227 423.176 435.873 423.176 401.176C423.176 363.656 423.089 361.284 421.662 359.993C420.372 358.826 417.951 358.624 405.235 358.624C391.839 358.624 390.183 358.778 388.952 360.137ZM171.951 398.337V410.747L180.228 410.748L188.506 410.75L188.258 398.338L188.009 385.927H179.98H171.951V398.337ZM399.171 467.834V479.417H405.379H411.588V467.834V456.251H405.379H399.171V467.834Z" fill="#000000"/>
</svg>
