<?xml version="1.0" encoding="UTF-8"?>
<svg id="Layer_2" data-name="Layer 2" xmlns="http://www.w3.org/2000/svg" viewBox="0 0 80.78 41.89">
  <defs>
    <style>
      .cls-1 {
        fill: none;
        stroke: #000000;
        stroke-miterlimit: 10;
        stroke-width: 2px;
      }
    </style>
  </defs>
  <g id="Layer_1-2" data-name="Layer 1">
    <g>
      <path class="cls-1" d="M11.38,16.08h-5.19c-2.87,0-5.19-2.32-5.19-5.19h0c0-2.87,2.32-5.19,5.19-5.19h5.19"/>
      <line class="cls-1" x1="11.38" y1="4.08" x2="11.38" y2="17.7"/>
      <line class="cls-1" x1="16.57" y1="13.49" x2="11.38" y2="13.49"/>
      <line class="cls-1" x1="11.38" y1="8.3" x2="16.57" y2="8.3"/>
      <path class="cls-1" d="M11.38,25.81h-5.19c-2.87,0-5.19,2.32-5.19,5.19h0c0,2.87,2.32,5.19,5.19,5.19h5.19"/>
      <line class="cls-1" x1="11.38" y1="37.81" x2="11.38" y2="24.19"/>
      <line class="cls-1" x1="16.57" y1="28.4" x2="11.38" y2="28.4"/>
      <line class="cls-1" x1="11.38" y1="33.59" x2="16.57" y2="33.59"/>
      <g>
        <line class="cls-1" x1="80.78" y1="29.57" x2="70.73" y2="29.57"/>
        <line class="cls-1" x1="80.78" y1="12.32" x2="70.73" y2="12.32"/>
      </g>
      <path class="cls-1" d="M37.48,33.92c-3.76,0-6.81-3.06-6.81-6.81v-12.32c0-3.76,3.06-6.81,6.81-6.81h12.32c3.76,0,6.81,3.06,6.81,6.81v12.32c0,3.76-3.06,6.81-6.81,6.81h-12.32Z"/>
      <path class="cls-1" d="M46.29,13.16h3.52c.9,0,1.62.73,1.62,1.62v12.32c0,.9-.73,1.62-1.62,1.62h-12.32c-.9,0-1.62-.73-1.62-1.62v-12.32c0-.9.73-1.62,1.62-1.62h3.19"/>
      <path class="cls-1" d="M24.59,40.89h-4.78c-1.79,0-3.24-1.45-3.24-3.24V4.24c0-1.79,1.45-3.24,3.24-3.24h38.31"/>
      <path class="cls-1" d="M63.74,1h3.75c1.79,0,3.24,1.45,3.24,3.24v33.4c0,1.79-1.45,3.24-3.24,3.24H30.21"/>
      <g>
        <line class="cls-1" x1="22.65" y1="20.95" x2="24.59" y2="20.95"/>
        <line class="cls-1" x1="22.65" y1="26.13" x2="24.59" y2="26.13"/>
        <line class="cls-1" x1="22.65" y1="31.32" x2="24.59" y2="31.32"/>
        <line class="cls-1" x1="22.65" y1="15.76" x2="24.59" y2="15.76"/>
        <line class="cls-1" x1="22.65" y1="10.57" x2="24.59" y2="10.57"/>
      </g>
    </g>
  </g>
</svg>