<?xml version="1.0" encoding="UTF-8"?>
<svg id="Layer_2" data-name="Layer 2" xmlns="http://www.w3.org/2000/svg" viewBox="0 0 41.6 75.64">
  <defs>
    <style>
      .cls-1 {
        fill: #000000;
      }
    </style>
  </defs>
  <g id="Layer_1-2" data-name="Layer 1">
    <g id="Thermometer">
      <g>
        <g>
          <path class="cls-1" d="M12.61,18.78h-5.04c-.76,0-1.26.5-1.26,1.26v8.95c0,.76.5,1.26,1.26,1.26h5.04c.76,0,1.26-.5,1.26-1.26v-8.95c0-.76-.63-1.26-1.26-1.26ZM11.35,27.74h-2.52v-6.43h2.52v6.43Z"/>
          <path class="cls-1" d="M12.61,32.65h-5.04c-.76,0-1.26.5-1.26,1.26v6.43c0,.76.5,1.26,1.26,1.26h5.04c.76,0,1.26-.5,1.26-1.26v-6.43c0-.63-.63-1.26-1.26-1.26ZM11.35,39.08h-2.52v-3.91h2.52v3.91Z"/>
          <path class="cls-1" d="M18.78,0H1.26C.5,0,0,.5,0,1.26v48.03c0,.76.5,1.26,1.26,1.26h4.92v21.31c0,2.14,1.76,3.78,3.78,3.78s3.78-1.76,3.78-3.78v-21.31h4.92c.76,0,1.26-.5,1.26-1.26V1.26c.13-.76-.5-1.26-1.13-1.26ZM17.52,2.52v8.82H2.52V2.52h15ZM10.09,73.12c-.76,0-1.26-.63-1.26-1.26v-3.66h2.65v3.66c-.13.63-.76,1.26-1.39,1.26ZM12.61,48.03c-.76,0-1.26.5-1.26,1.26v16.39h-2.65v-16.39c0-.76-.5-1.26-1.26-1.26H2.52V13.87h14.88v34.16h-4.79Z"/>
        </g>
        <g>
          <path class="cls-1" d="M31.52,58.12v-9.96c0-.76-.5-1.26-1.26-1.26s-1.26.5-1.26,1.26v9.96c-2.9.63-5.04,3.15-5.04,6.18,0,3.53,2.77,6.3,6.3,6.3s6.3-2.77,6.3-6.3c0-3.03-2.27-5.67-5.04-6.18ZM30.26,68.08c-2.14,0-3.78-1.64-3.78-3.78s1.64-3.78,3.78-3.78,3.78,1.64,3.78,3.78-1.76,3.78-3.78,3.78Z"/>
          <path class="cls-1" d="M36.81,55.09V21.68c0-.76-.5-1.26-1.26-1.26h-10.72c-.76,0-1.26.5-1.26,1.26v33.41c-2.9,2.14-4.66,5.55-4.66,9.2,0,6.3,5.04,11.35,11.35,11.35s11.35-5.04,11.35-11.35c0-3.66-1.76-7.06-4.79-9.2ZM30.26,73.12c-4.92,0-8.82-3.91-8.82-8.82,0-3.03,1.51-5.8,4.16-7.44.38-.25.63-.63.63-1.01v-11.47h4.16c.76,0,1.26-.5,1.26-1.26s-.5-1.26-1.26-1.26h-4.16v-2.52h1.64c.76,0,1.26-.5,1.26-1.26s-.5-1.26-1.26-1.26h-1.64v-2.52h4.16c.76,0,1.26-.5,1.26-1.26s-.5-1.26-1.26-1.26h-4.16v-2.52h1.64c.76,0,1.26-.5,1.26-1.26s-.5-1.26-1.26-1.26h-1.64v-3.78h8.19v32.78c0,.38.25.88.63,1.01,2.52,1.64,4.16,4.41,4.16,7.44-.13,4.92-4.16,8.95-8.95,8.95h0Z"/>
        </g>
      </g>
    </g>
  </g>
</svg>