<svg width="512" height="512" viewBox="0 0 512 512" fill="none" xmlns="http://www.w3.org/2000/svg">
<path fill-rule="evenodd" clip-rule="evenodd" d="M341.117 21.5809C326.142 24.0877 313.788 33.2431 307.253 46.6778C304.911 51.4934 303.632 55.2926 303.014 59.2789L302.127 64.9863H277.966C257.412 64.9863 253.361 65.1645 250.823 66.1793C249.183 66.8355 247.519 67.974 247.125 68.709C246.686 69.5279 246.41 86.4335 246.41 112.438V154.831L225.97 154.875C214.728 154.899 198.237 155.077 189.324 155.272C173.403 155.62 173.042 155.663 168.7 157.715C162.601 160.597 158.379 164.499 155.593 169.829L153.231 174.347V251.672V328.998L155.29 333.12C159.625 341.8 166.823 346.588 177.384 347.814C180.71 348.201 197.27 348.502 214.184 348.484C231.098 348.466 244.937 348.631 244.937 348.851C244.937 349.07 244.937 360.948 244.937 375.246V401.242L240.565 402.145C238.16 402.641 233.594 404.348 230.42 405.936C212.671 414.817 203.152 433.118 205.894 453.087C208.957 475.397 227.587 490.987 251.198 491C259.813 491.004 266.604 489.143 273.698 484.832C302.625 467.255 302.88 426.119 274.174 407.87C269.897 405.151 263.02 402.404 258.564 401.636L255.618 401.128L255.424 374.821L255.231 348.513L289.307 348.488C330.932 348.456 332.574 348.214 340.462 340.945C344.556 337.172 346.941 333.083 347.987 328.041C348.509 325.523 348.796 311.737 348.796 289.194V254.25L362.608 254.108C370.204 254.03 381.037 253.948 386.682 253.924L396.947 253.882L397.571 256.459C400.071 266.795 404.708 274.924 411.626 281.106C430.146 297.655 457.413 296.907 474.786 279.373C483.951 270.124 487.971 260.367 488 247.301C488.061 219.316 461.536 197.494 434.194 203.033C421.507 205.603 409.831 213.815 403.145 224.87C400.14 229.838 397.412 237.813 397.412 241.626V243.94H373.144H348.876L348.652 209.143L348.428 174.347L346.512 170.262C343.975 164.854 340.897 161.468 336.19 158.907C329.266 155.139 326.35 154.885 289.685 154.857L255.986 154.831V115.064V75.2964H279.499H303.011L303.503 77.6898C303.774 79.0058 305.335 82.9001 306.973 86.3429C315.625 104.528 337.678 115.305 357.636 111.1C371.448 108.191 383.385 99.0935 389.156 87.0793C394.766 75.3987 395.541 65.0857 391.723 52.8815C385.105 31.7238 362.83 17.9466 341.117 21.5809ZM72.0226 31.4903C63.0575 33.4375 54.1337 40.1059 50.257 47.7545C45.9744 56.2036 45.9177 57.3429 46.4967 122.961L47.0241 182.782L43.0421 186.675C37.4219 192.171 34.1013 196.42 30.9995 202.085C26.0275 211.165 24.7399 217.267 25.0412 230.316C25.2371 238.824 25.5966 241.612 27.0963 246.267C32.0713 261.704 43.7691 274.31 58.8059 280.44C66.7294 283.669 69.0099 284.075 79.2036 284.075C90.7703 284.075 94.7634 283.182 103.737 278.585C124.428 267.984 135.564 248.975 134.819 225.529C134.35 210.787 129.794 200.589 118.182 188.289L113.268 183.084L112.791 122.01C112.477 81.6702 112.033 59.4358 111.483 56.5173C109.106 43.9074 98.6158 33.4839 85.9169 31.114C80.8374 30.1662 77.7326 30.2509 72.0226 31.4903ZM342.184 31.6045C315.295 36.8501 303.648 66.904 320.195 88.3467C324.142 93.4612 329.11 97.0285 335.958 99.665C345.804 103.455 358.607 102.284 367.211 96.8039C386.512 84.5121 389.901 58.7929 374.381 42.3866C368.774 36.4598 360.959 32.394 353.345 31.4432C351.451 31.2068 349.404 30.9041 348.796 30.7716C348.189 30.6383 345.213 31.0131 342.184 31.6045ZM72.6266 41.5051C67.2605 43.1238 60.5921 49.0668 58.0251 54.5194C56.8392 57.038 56.7088 62.3668 56.3692 122.06C56.0974 169.869 55.7733 187.253 55.134 188.339C54.6566 189.149 52.2237 191.8 49.7266 194.23C36.6882 206.922 31.8223 221.981 35.3292 238.794C38.1113 252.138 48.358 264.918 60.7888 270.55C70.3026 274.861 82.8394 275.741 92.0424 272.745C107.615 267.674 117.556 257.824 122.754 242.311C124.883 235.96 124.999 235.035 124.729 226.678C124.487 219.199 124.139 217.066 122.524 213.172C119.5 205.879 116.062 200.747 110.655 195.454C101.968 186.949 102.775 194.264 102.775 123.967C102.775 82.4 102.515 61.6009 101.965 58.9468C99.7796 48.4143 91.2034 41.2731 80.3085 40.9137C77.4726 40.8202 74.0158 41.0861 72.6266 41.5051ZM76.2572 85.6064C74.8128 87.0506 74.784 88.0632 74.7804 137.709C74.7789 165.556 74.5623 192.072 74.2994 196.635L73.8213 204.93L70.0669 207.092C64.6272 210.224 62.0749 212.847 59.6346 217.816C57.7982 221.555 57.4962 222.983 57.6222 227.339C57.9116 237.371 65.3321 247.624 73.1495 248.796C78.6372 249.619 87.3739 248.758 90.6208 247.075C99.264 242.594 103.966 230.327 100.979 220.053C99.4879 214.926 94.7892 209.814 89.0489 207.073L85.2871 205.277L84.8098 146.037C84.3796 92.6335 84.2139 86.6662 83.1274 85.4658C81.5305 83.702 78.0921 83.772 76.2572 85.6064ZM172.383 166.63C168.341 168.509 166.527 170.158 164.718 173.599C163.182 176.522 163.175 176.845 163.175 250.649C163.175 291.412 163.379 325.784 163.629 327.032C164.18 329.786 168.363 334.83 171.535 336.565C173.681 337.739 179.489 337.852 248.62 338.057C289.74 338.179 324.819 338.072 326.572 337.82C330.317 337.279 334.867 333.567 337.064 329.261C338.439 326.567 338.483 324.104 338.468 251.518C338.453 180.212 338.385 176.412 337.092 173.61C335.444 170.041 333.114 167.801 329.459 166.275C327.032 165.261 317.962 165.135 251.022 165.194C178.852 165.257 175.192 165.324 172.383 166.63ZM240.914 209.027C226.194 212.314 213.477 223.347 208.311 237.312C206.151 243.15 204.924 251.465 205.503 256.338C207.797 275.634 219.856 290.089 238.139 295.461C244.256 297.258 255.883 297.455 261.792 295.861C270.136 293.61 278.551 288.501 284.363 282.157C297.477 267.841 299.231 245.491 288.524 229.12C282.441 219.817 273.139 212.844 262.74 209.788C256.723 208.021 246.946 207.68 240.914 209.027ZM432.682 213.625C417.691 218.602 406.961 232.453 406.998 246.779C407.024 256.654 410.657 265.426 417.579 272.327C439.657 294.338 476.417 279.997 478.077 248.727C478.81 234.932 470.672 221.86 457.465 215.612C452.137 213.092 450.905 212.807 444.206 212.543C438.385 212.314 435.942 212.543 432.682 213.625ZM73.5974 216.578C70.2135 218.705 68.137 222.068 67.7466 226.055C66.4922 238.855 84.1815 243.678 90.1162 232.154C92.9749 226.601 91.5842 221.06 86.35 217.153C83.4618 214.997 76.6042 214.688 73.5974 216.578ZM246.042 218.187C230.325 220.641 218.518 232.217 216.175 247.468C212.889 268.857 231.091 288.741 252.482 287.129C270.537 285.769 285.45 270.276 285.45 252.878C285.45 236.196 274.026 222.658 256.453 218.515C251.521 217.352 251.409 217.349 246.042 218.187ZM242.963 411.88C233.677 413.715 223.68 421.55 219.317 430.411C216.132 436.878 215.19 441.851 215.719 449.39C217.526 475.167 247.464 489.701 269.613 475.554C284.032 466.344 289.574 446.777 282.141 431.326C274.974 416.427 259.305 408.651 242.963 411.88Z" fill="#000000"/>
</svg>
