<svg width="512" height="512" viewBox="0 0 512 512" fill="none" xmlns="http://www.w3.org/2000/svg">
<path fill-rule="evenodd" clip-rule="evenodd" d="M97.3388 36.7482C89.8651 36.7482 83.7895 42.8238 83.7895 50.2963V461.712C83.7895 469.177 89.8648 475.251 97.3371 475.251H414.655C422.12 475.251 428.201 469.177 428.201 461.713L428.204 50.295C428.204 42.8224 422.117 36.7486 414.654 36.7486L97.3388 36.7482ZM414.655 485.775H97.3388C84.0647 485.775 73.2659 474.987 73.2659 461.713V50.2952C73.2659 37.0225 84.0633 26.2252 97.3371 26.2252L414.655 26.2246C427.929 26.2246 438.725 37.0228 438.725 50.2964L438.728 461.712C438.728 474.986 427.927 485.775 414.655 485.775Z" fill="#000000"/>
<path fill-rule="evenodd" clip-rule="evenodd" d="M138.327 80.815C135.433 80.815 133.082 83.1633 133.082 86.0591L133.086 400.937C133.086 403.823 135.43 406.181 138.326 406.181L373.674 406.18C375.071 406.18 376.386 405.633 377.382 404.637C378.368 403.65 378.908 402.335 378.908 400.937L378.911 86.0591C378.911 83.1633 376.559 80.8159 373.664 80.8159L138.327 80.815ZM373.673 416.704H138.327C129.633 416.704 122.559 409.624 122.559 400.937L122.562 86.0587C122.562 77.3616 129.629 70.2919 138.326 70.2919L373.665 70.291C382.364 70.291 389.432 77.3623 389.432 86.0587L389.435 400.918C389.442 405.13 387.805 409.094 384.827 412.072C381.85 415.059 377.884 416.704 373.673 416.704Z" fill="#000000"/>
<path fill-rule="evenodd" clip-rule="evenodd" d="M343.739 144.049H168.262C165.36 144.049 163 141.693 163 138.788C163 135.883 165.357 133.526 168.262 133.526L343.739 133.525C346.646 133.525 348.999 135.883 348.999 138.788C349.001 141.693 346.643 144.05 343.739 144.049Z" fill="#000000"/>
<path fill-rule="evenodd" clip-rule="evenodd" d="M343.739 175.008H168.262C165.36 175.008 163 172.651 163 169.746C163 166.841 165.357 164.484 168.262 164.484H343.739C346.646 164.484 348.999 166.841 348.999 169.746C349.001 172.65 346.643 175.008 343.739 175.008Z" fill="#000000"/>
<path fill-rule="evenodd" clip-rule="evenodd" d="M258.782 205.975H168.262C165.36 205.975 163 203.628 163 200.723C163 197.808 165.357 195.461 168.262 195.461L258.781 195.461C261.688 195.461 264.043 197.809 264.043 200.723C264.043 203.627 261.686 205.976 258.782 205.975Z" fill="#000000"/>
<path fill-rule="evenodd" clip-rule="evenodd" d="M343.739 260.567H168.262C165.36 260.567 163 258.21 163 255.305C163 252.39 165.357 250.044 168.262 250.044L343.739 250.043C346.646 250.043 348.999 252.391 348.999 255.305C349.001 258.21 346.643 260.567 343.739 260.567Z" fill="#000000"/>
<path fill-rule="evenodd" clip-rule="evenodd" d="M343.739 291.535H168.262C165.36 291.535 163 289.179 163 286.274C163 283.369 165.357 281.012 168.262 281.012L343.739 281.012C346.646 281.012 348.999 283.369 348.999 286.274C349.001 289.179 346.643 291.536 343.739 291.535Z" fill="#000000"/>
<path fill-rule="evenodd" clip-rule="evenodd" d="M343.739 322.512H168.262C165.36 322.512 163 320.156 163 317.251C163 314.346 165.357 311.989 168.262 311.989L343.739 311.988C346.646 311.988 348.999 314.346 348.999 317.251C349.001 320.155 346.643 322.513 343.739 322.512Z" fill="#000000"/>
<path fill-rule="evenodd" clip-rule="evenodd" d="M258.782 353.471H168.262C165.36 353.471 163 351.115 163 348.21C163 345.304 165.357 342.948 168.262 342.948L258.781 342.947C261.688 342.947 264.043 345.304 264.043 348.21C264.043 351.115 261.686 353.471 258.782 353.471Z" fill="#000000"/>
<path fill-rule="evenodd" clip-rule="evenodd" d="M243.794 438.666C239.753 438.666 236.473 441.946 236.473 445.984C236.476 450.021 239.753 453.31 243.79 453.31L269.835 453.31C273.876 453.31 277.161 450.021 277.161 445.984C277.161 441.946 273.872 438.666 269.834 438.666H243.794ZM269.835 463.833H243.794C233.952 463.833 225.95 455.822 225.95 445.984C225.953 436.144 233.952 428.143 243.79 428.143H269.835C279.677 428.143 287.676 436.145 287.676 445.984C287.676 455.822 279.673 463.834 269.835 463.833Z" fill="#000000"/>
<path fill-rule="evenodd" clip-rule="evenodd" d="M183.62 453.309H198.271V438.647H183.62V453.309ZM199.779 463.833H182.119C177.141 463.833 173.094 459.786 173.094 454.807L173.096 437.149C173.096 432.17 177.141 428.133 182.119 428.133L199.779 428.133C204.749 428.133 208.794 432.171 208.794 437.149L208.794 454.807C208.794 459.786 204.747 463.833 199.779 463.833Z" fill="#000000"/>
<path fill-rule="evenodd" clip-rule="evenodd" d="M130.772 453.309H145.426V438.647H130.772V453.309ZM146.923 463.833H129.267C124.297 463.833 120.247 459.786 120.247 454.807L120.248 437.149C120.248 432.17 124.294 428.133 129.264 428.133L146.923 428.133C151.901 428.133 155.947 432.171 155.947 437.149L155.95 454.807C155.95 459.786 151.901 463.833 146.923 463.833Z" fill="#000000"/>
<path fill-rule="evenodd" clip-rule="evenodd" d="M366.567 453.309H381.222V438.647H366.567V453.309ZM382.718 463.833H365.063C360.093 463.833 356.043 459.786 356.043 454.807V437.149C356.043 432.17 360.09 428.133 365.06 428.133L382.718 428.133C387.696 428.133 391.743 432.171 391.743 437.149L391.746 454.807C391.746 459.786 387.696 463.833 382.718 463.833Z" fill="#000000"/>
<path fill-rule="evenodd" clip-rule="evenodd" d="M313.722 453.309H328.381V438.647H313.722V453.309ZM329.882 463.833H312.221C307.243 463.833 303.205 459.786 303.205 454.807L303.207 437.149C303.207 432.17 307.242 428.133 312.221 428.133L329.882 428.133C334.86 428.133 338.906 432.171 338.906 437.149L338.909 454.807C338.909 459.786 334.858 463.833 329.882 463.833Z" fill="#000000"/>
<path fill-rule="evenodd" clip-rule="evenodd" d="M78.5281 175.694C75.6258 175.694 73.2662 173.347 73.2662 170.432C73.2662 167.527 75.6231 165.171 78.5281 165.171L95.3041 165.17V80.8166H78.5281C75.6258 80.8166 73.2662 78.4606 73.2662 75.5557C73.2662 72.6505 75.6231 70.2939 78.5281 70.2939L96.1141 70.293C101.47 70.293 105.824 74.6509 105.824 80.0043L105.828 165.983C105.828 171.345 101.467 175.694 96.113 175.694L78.5281 175.694Z" fill="#000000"/>
<path fill-rule="evenodd" clip-rule="evenodd" d="M96.1141 301.547H78.5281C75.6258 301.547 73.2662 299.199 73.2662 296.285C73.2662 293.38 75.6231 291.023 78.5281 291.023H95.3041V206.67H78.5281C75.6258 206.67 73.2662 204.313 73.2662 201.408C73.2662 198.503 75.6231 196.146 78.5281 196.146H96.1141C101.47 196.146 105.824 200.504 105.824 205.857L105.828 291.837C105.828 297.198 101.467 301.547 96.1141 301.547Z" fill="#000000"/>
<path fill-rule="evenodd" clip-rule="evenodd" d="M433.474 175.692H415.888C410.536 175.692 406.176 171.344 406.176 165.982L406.179 80.0018C406.179 74.6484 410.534 70.2919 415.887 70.2919L433.474 70.291C436.381 70.291 438.734 72.6485 438.734 75.5537C438.736 78.4583 436.377 80.8155 433.472 80.8155L416.702 80.8146V165.168H433.474C436.381 165.168 438.734 167.526 438.734 170.43C438.736 173.344 436.377 175.692 433.474 175.692Z" fill="#000000"/>
<path fill-rule="evenodd" clip-rule="evenodd" d="M433.474 301.548H415.888C410.536 301.548 406.176 297.199 406.176 291.837L406.179 205.856C406.179 200.504 410.534 196.146 415.887 196.146H433.474C436.381 196.146 438.734 198.503 438.734 201.408C438.736 204.313 436.377 206.67 433.472 206.67H416.702V291.023H433.474C436.381 291.023 438.734 293.38 438.734 296.285C438.736 299.199 436.377 301.548 433.474 301.548Z" fill="#000000"/>
</svg>
