<?xml version="1.0" encoding="UTF-8"?>
<svg id="Layer_2" data-name="Layer 2" xmlns="http://www.w3.org/2000/svg" viewBox="0 0 50.6 62.57">
  <defs>
    <style>
      .cls-1 {
        fill-rule: evenodd;
      }

      .cls-1, .cls-2 {
        fill: #000000;
      }
    </style>
  </defs>
  <g id="Layer_1-2" data-name="Layer 1">
    <g id="g2074">
      <path id="rect19940-3" class="cls-1" d="M7.33,0C3.29,0,0,3.29,0,7.33v47.91c0,4.04,3.29,7.33,7.33,7.33h35.93c4.04,0,7.33-3.29,7.33-7.33V19.31c0-2.27-.9-4.45-2.51-6.06l-10.74-10.74C35.74.9,33.56,0,31.29,0H7.33ZM7.33,2.69h23.95c1.56,0,3.06.62,4.16,1.72l10.74,10.74c1.1,1.1,1.72,2.6,1.72,4.16v35.93c0,2.6-2.05,4.64-4.64,4.64H7.33c-2.6,0-4.64-2.05-4.64-4.64V7.33c0-2.6,2.05-4.64,4.64-4.64Z"/>
      <circle id="path31965" class="cls-2" cx="25.3" cy="42.69" r="1.34"/>
      <path id="path31277" class="cls-1" d="M25.3,18.39c-4.03,0-7.33,3.3-7.33,7.33,0,.74.6,1.34,1.34,1.34.74,0,1.34-.6,1.34-1.34,0-2.58,2.06-4.64,4.64-4.64s4.64,2.06,4.64,4.64-2.06,4.64-4.64,4.64h0c-.74,0-1.34.6-1.34,1.34,0,0,0,0,0,0v5.99c0,.74.6,1.34,1.34,1.34.74,0,1.34-.6,1.34-1.34v-4.77c3.4-.64,5.99-3.63,5.99-7.2,0-4.03-3.3-7.33-7.33-7.33h0Z"/>
    </g>
  </g>
</svg>