<?xml version="1.0" encoding="UTF-8"?>
<svg id="Layer_2" data-name="Layer 2" xmlns="http://www.w3.org/2000/svg" viewBox="0 0 31.1 79.6">
  <defs>
    <style>
      .cls-1 {
        fill: none;
        stroke: #000000;
        stroke-miterlimit: 10;
        stroke-width: 2px;
      }
    </style>
  </defs>
  <g id="Layer_1-2" data-name="Layer 1">
    <g>
      <path class="cls-1" d="M11.32,1h18c.43,0,.78.35.78.78v8.14c0,.43-.35.78-.78.78H1.78c-.43,0-.78-.35-.78-.78V1.78c0-.43.35-.78.78-.78h4.07"/>
      <path class="cls-1" d="M10.7,15.55v7.28c0,2.68,2.17,4.85,4.85,4.85h0c2.68,0,4.85-2.17,4.85-4.85v-7.28"/>
      <path class="cls-1" d="M20.48,15.55h-9.87c-1.29,0-2.34-1.05-2.34-2.34v-2.51h14.55v2.51c0,1.29-1.05,2.34-2.34,2.34Z"/>
      <line class="cls-1" x1="11.91" y1="10.7" x2="11.91" y2="5.85"/>
      <line class="cls-1" x1="19.19" y1="10.7" x2="19.19" y2="5.85"/>
      <path class="cls-1" d="M15.55,73.75c-2.42,0-4.38-1.97-4.38-4.38,0-.73.64-2.46,2.44-5.11.45-.67.91-1.29,1.33-1.84.31-.41.93-.41,1.24,0,.42.55.88,1.17,1.33,1.84,1.8,2.65,2.44,4.38,2.44,5.11,0,2.42-1.97,4.38-4.38,4.38Z"/>
      <path class="cls-1" d="M5.85,57.46c-1.75,3.07-3.03,6.12-3.03,8.41,0,7.03,5.7,12.73,12.73,12.73s12.73-5.7,12.73-12.73c0-1.99-.97-4.56-2.37-7.21-.13-.25-.47-.31-.67-.1-.65.66-1.59,1.04-2.61.93-1.49-.15-2.69-1.37-2.83-2.87-.04-.48.02-.94.17-1.37.85-2.38.5-5.02-1.09-6.99-1.76-2.18-3.13-3.62-3.34-3.62-.18,0-1.16,1-2.51,2.61-1.24,1.47-2.78,3.46-4.3,5.64"/>
      <path class="cls-1" d="M6.98,35.96c4.74,4.74,12.41,4.74,17.15,0"/>
      <path class="cls-1" d="M10.41,32.53c2.84,2.84,7.45,2.84,10.29,0"/>
    </g>
  </g>
</svg>