<?xml version="1.0" encoding="UTF-8"?>
<svg id="Layer_2" data-name="Layer 2" xmlns="http://www.w3.org/2000/svg" viewBox="0 0 95.16 79.31">
  <defs>
    <style>
      .cls-1 {
        fill: #000000;
      }
    </style>
  </defs>
  <g id="Layer_1-2" data-name="Layer 1">
    <g>
      <path class="cls-1" d="M47.58,34.89c-10.51.01-19.02,8.53-19.03,19.03,0,.88.71,1.59,1.59,1.59h4.76v-3.17h-3.09c.17-1.7.63-3.36,1.34-4.92l1.29.74,1.59-2.75-1.29-.74c1-1.39,2.22-2.6,3.6-3.6l.74,1.29,2.75-1.59-.74-1.29c1.56-.71,3.22-1.16,4.92-1.33v1.5h3.17v-1.5c1.7.17,3.36.62,4.92,1.33l-.74,1.29,2.75,1.59.74-1.29c1.39,1,2.6,2.22,3.6,3.6l-1.29.74,1.59,2.75,1.29-.74c.71,1.56,1.17,3.22,1.35,4.92h-3.09v3.17h4.76c.88,0,1.59-.71,1.59-1.59-.01-10.51-8.53-19.02-19.03-19.03Z"/>
      <path class="cls-1" d="M52.15,59.07l-3.01-16.53c-.14-.75-.8-1.29-1.56-1.29s-1.42.54-1.56,1.29l-3.01,16.53c-.74.78-1.27,1.75-1.53,2.79h-9.75v3.17h9.74c.71,2.8,3.23,4.76,6.12,4.76s5.41-1.96,6.12-4.76h9.74v-3.17h-9.75c-.27-1.05-.8-2.01-1.55-2.79ZM47.58,66.61c-1.75,0-3.17-1.42-3.17-3.17,0-.92.41-1.79,1.11-2.39.27-.24.46-.56.52-.92l1.54-8.45,1.54,8.45c.06.36.25.68.52.92.7.59,1.11,1.47,1.11,2.39,0,1.75-1.42,3.17-3.17,3.17Z"/>
      <path class="cls-1" d="M93.58,28.55h-9.52c-.88,0-1.59.71-1.59,1.59v4.76h-18.17c-1.7-1.5-3.59-2.76-5.63-3.75v-10.52c0-.88-.71-1.59-1.59-1.59h-4.76v-9.52h19.03c.88,0,1.59-.71,1.59-1.59V1.59c0-.88-.71-1.59-1.59-1.59H23.79c-.88,0-1.59.71-1.59,1.59v6.34c0,.88.71,1.59,1.59,1.59h19.03v9.52h-4.76c-.88,0-1.59.71-1.59,1.59v10.52c-2.03.99-3.93,2.26-5.63,3.75H12.69v-4.76c0-.88-.71-1.59-1.59-1.59H1.59c-.88,0-1.59.71-1.59,1.59v47.58c0,.88.71,1.59,1.59,1.59h9.52c.88,0,1.59-.71,1.59-1.59v-4.76h18.17c9.55,8.46,23.91,8.46,33.46,0h18.17v4.76c0,.88.71,1.59,1.59,1.59h9.52c.88,0,1.59-.71,1.59-1.59V30.14c0-.88-.71-1.59-1.59-1.59ZM25.38,3.17h44.41v3.17H25.38v-3.17ZM46,9.52h3.17v9.52h-3.17v-9.52ZM39.65,26.96h9.52v-3.17h-9.52v-1.59h15.86v1.59h-3.17v3.17h3.17v2.87c-5.15-1.72-10.71-1.72-15.86,0v-2.87ZM9.52,76.13H3.17V31.72h6.34v44.41ZM12.69,65.03h4.76v-3.17h-4.76v-15.86h4.76v-3.17h-4.76v-4.76h15.11c-7.46,9.26-7.46,22.47,0,31.72h-15.11v-4.76ZM47.58,76.13c-12.26,0-22.2-9.94-22.2-22.2s9.94-22.2,22.2-22.2,22.2,9.94,22.2,22.2c-.01,12.26-9.95,22.19-22.2,22.2ZM67.36,69.79c7.46-9.26,7.46-22.47,0-31.72h15.11v4.76h-4.76v3.17h4.76v15.86h-4.76v3.17h4.76v4.76h-15.11ZM91.99,76.13h-6.34V31.72h6.34v44.41Z"/>
      <path class="cls-1" d="M87.23,33.31h3.17v3.17h-3.17v-3.17Z"/>
      <path class="cls-1" d="M87.23,39.65h3.17v3.17h-3.17v-3.17Z"/>
      <path class="cls-1" d="M87.23,46h3.17v3.17h-3.17v-3.17Z"/>
      <path class="cls-1" d="M87.23,52.34h3.17v3.17h-3.17v-3.17Z"/>
      <path class="cls-1" d="M87.23,58.68h3.17v3.17h-3.17v-3.17Z"/>
      <path class="cls-1" d="M87.23,65.03h3.17v3.17h-3.17v-3.17Z"/>
      <path class="cls-1" d="M87.23,71.37h3.17v3.17h-3.17v-3.17Z"/>
      <path class="cls-1" d="M4.76,33.31h3.17v3.17h-3.17v-3.17Z"/>
      <path class="cls-1" d="M4.76,39.65h3.17v3.17h-3.17v-3.17Z"/>
      <path class="cls-1" d="M4.76,46h3.17v3.17h-3.17v-3.17Z"/>
      <path class="cls-1" d="M4.76,52.34h3.17v3.17h-3.17v-3.17Z"/>
      <path class="cls-1" d="M4.76,58.68h3.17v3.17h-3.17v-3.17Z"/>
      <path class="cls-1" d="M4.76,65.03h3.17v3.17h-3.17v-3.17Z"/>
      <path class="cls-1" d="M4.76,71.37h3.17v3.17h-3.17v-3.17Z"/>
    </g>
  </g>
</svg>