<svg width="512" height="512" viewBox="0 0 512 512" fill="none" xmlns="http://www.w3.org/2000/svg">
<path fill-rule="evenodd" clip-rule="evenodd" d="M248.318 93.2869C241.394 93.9085 232.582 95.7486 226.171 97.9117C211.784 102.767 195.631 112.898 185.691 123.302C182.648 126.488 182.184 127.29 182.184 129.38C182.184 132.262 183.626 133.82 186.295 133.82C187.743 133.82 189.342 132.766 193.519 129.06C208.056 116.161 223.357 108.196 240.628 104.536C248.709 102.824 264.159 102.977 272.569 104.853C288.422 108.389 300.845 115.001 312.535 126.124C315.789 129.221 319.136 132.219 319.973 132.787C322.02 134.177 324.403 134.088 326.366 132.546C329.677 129.947 328.102 126.041 320.995 119.229C306.558 105.392 290.774 97.3638 272.004 94.3108C264.348 93.0652 255.197 92.6697 248.318 93.2869ZM248.561 125.906C245.31 126.161 240.917 126.819 238.798 127.367C228.975 129.908 217.282 136.528 210.022 143.659C206.658 146.963 206.177 147.724 206.177 149.745C206.177 152.505 207.654 154.089 210.225 154.085C211.538 154.083 213.594 152.827 217.866 149.416C221.685 146.367 226.056 143.61 230.478 141.465C240.477 136.612 243.332 135.983 255.393 135.976C264.23 135.97 266.066 136.144 269.576 137.32C279.022 140.486 287.849 145.514 293.44 150.913C296.271 153.647 297.065 154.088 299.158 154.088C301.918 154.088 304.996 151.679 304.357 150.018C304.157 149.498 303.994 148.675 303.994 148.189C303.994 145.781 292.453 136.076 285.305 132.473C274.264 126.908 262.526 124.81 248.561 125.906ZM25.5025 146.682C20.5753 148.916 20.9998 136.176 21.0152 281.345C21.0281 407.99 21.057 411.184 22.2099 413.719C22.8897 415.215 24.2542 416.844 25.4262 417.56C27.4416 418.791 28.1257 418.802 97.1863 418.647L166.911 418.492L168.396 416.768C170.275 414.587 170.304 412.04 168.468 410.318C167.108 409.043 166.473 408.987 151.396 408.829L135.737 408.665L135.42 332.814H149.226C163.481 332.814 165.379 332.548 167.881 330.209C169.619 328.583 169.619 327.758 167.881 325.778C165.504 323.07 161.037 322.373 146.083 322.373C131.832 322.373 129.021 322.793 126.685 325.276L125.278 326.77L124.946 409.279L78.9721 409.122C53.6861 409.036 32.6524 408.837 32.2291 408.681C31.62 408.455 31.4601 393.582 31.4601 337.132V265.868H124.821L125.073 281.21C125.309 295.523 125.411 296.665 126.594 298.253C129.377 301.991 133.599 300.122 134.779 294.63C135.139 292.956 135.428 284.685 135.428 276.126C135.427 262.62 135.29 260.374 134.351 258.498L133.276 256.348L104.361 255.734L104.457 252.857C104.594 248.774 107.71 243.263 112.26 239.057C117.527 234.188 120.288 233.078 127.282 233.011C131.826 232.968 133.193 232.742 134.049 231.887C135.041 230.896 135.134 228.029 135.289 193.374L135.457 155.93L150.362 155.928C164.035 155.926 165.428 155.827 167.226 154.732C171.166 152.334 171.118 149.502 167.091 146.871L164.976 145.489L96.5262 145.503C30.6136 145.515 27.9811 145.559 25.5025 146.682ZM31.4601 256.041L60.8359 256.056C76.9924 256.064 91.19 256.298 92.3853 256.576L94.5582 257.08L94.5385 252.108C94.5207 247.782 94.7698 246.606 96.4524 243.061C98.955 237.787 105.817 230.49 110.66 227.953C115.03 225.665 121.33 223.49 123.589 223.49L125.278 223.49L125.094 189.885C124.993 171.403 124.837 156.206 124.747 156.116C124.657 156.027 103.631 155.879 78.0216 155.788L31.4601 155.623V256.041ZM244.935 158.652C239.214 160.241 230.153 165.892 228.638 168.816C227.408 171.192 227.464 172.037 228.985 173.965C231.029 176.562 233.716 176.181 239.202 172.517C245.207 168.507 249.126 167.384 255.948 167.715C261.823 168.001 266.085 169.572 271.481 173.442C275.25 176.145 278.652 176.373 280.952 174.076C283.155 171.877 282.832 170.373 279.37 166.718C275.817 162.968 270.888 160.144 265.456 158.746C260.9 157.573 249.013 157.518 244.935 158.652ZM247.894 186.113C225.861 188.633 205.999 200.141 194.927 216.802C184.972 231.782 180.56 247.893 182.157 263.427C184.365 284.906 193.848 303.713 223.338 345.092C238.867 366.882 250.119 380.749 253.014 381.667C255.191 382.356 258.181 381.392 260.8 379.153C263.535 376.815 280.24 354.866 292.094 338.034C318.892 299.98 327.99 280.984 329.027 260.918C329.638 249.081 327.914 240.813 322.393 229.099C314.405 212.152 302.511 199.978 286.605 192.468C274.049 186.54 261.776 184.524 247.894 186.113ZM247.953 196.444C231.295 198.563 215.38 207.213 205.651 219.436C196.898 230.431 192.486 243.909 192.561 259.419C192.642 276.256 198.138 289.275 217.581 318.688C227.67 333.949 245.744 358.607 253.974 368.338L255.709 370.389L261.724 362.658C282.569 335.866 303.293 305.279 311.054 289.851C317.604 276.831 320.146 262.48 318.114 249.984C317.275 244.821 314.15 235.151 311.834 230.553C307.373 221.697 299.108 212.145 291.574 207.14C278.754 198.623 262.383 194.609 247.953 196.444ZM246.552 226.014C239.943 227.564 231.038 234.056 227.03 240.246C223.007 246.46 221.992 250.606 222.275 259.667C222.513 267.308 222.569 267.576 225.019 272.672C227.79 278.439 231.573 282.765 236.961 286.333C246.648 292.746 260.392 293.342 271.516 287.831C276.378 285.422 282.739 279.137 285.353 274.16C287.907 269.294 289.503 261.386 289.007 256.054C287.675 241.743 277.709 229.799 264.181 226.299C260.106 225.245 250.496 225.089 246.552 226.014ZM246.714 236.577C240.446 239.202 236.662 242.778 233.947 248.643C231.84 253.195 231.774 261.296 233.8 266.573C237.066 275.077 246.39 281.236 255.967 281.215C265.254 281.196 272.615 276.832 276.438 269.08C278.357 265.188 278.463 264.617 278.463 258.204C278.463 252.174 278.286 251.058 276.842 247.983C274.564 243.131 271.308 239.799 266.571 237.469C262.917 235.671 261.873 235.449 256.333 235.3C251.01 235.156 249.691 235.331 246.714 236.577ZM203.389 349.673C188.267 353.016 173.527 360.12 167.479 366.979C161.26 374.032 161.944 384.316 169.045 390.541C181.591 401.538 209.879 408.597 247.703 410.17C283.306 411.65 317.099 405.885 334.535 395.356C339.275 392.493 344.319 387.861 346.217 384.628C347.683 382.131 347.801 381.44 347.557 376.795C347.232 370.624 345.706 367.611 340.604 363.071C332.337 355.715 311.586 347.962 303.234 349.109C297.944 349.836 295.658 354.57 299.167 357.534C299.867 358.125 301.221 358.609 302.176 358.609C307.72 358.609 323.385 363.412 330.268 367.222C335.655 370.205 337.911 372.931 338.295 376.922C338.561 379.682 338.429 379.991 335.658 383.068C330.044 389.302 314.739 395.304 296.304 398.501C284.08 400.621 275.122 401.125 254.778 400.836C233.903 400.541 223.95 399.547 209.253 396.288C200.899 394.435 189.332 390.691 183.575 387.975C178.801 385.723 174.374 381.903 173.14 378.97C172.341 377.074 172.389 376.691 173.75 374.056C175.565 370.543 179.807 367.525 187.106 364.553C192.797 362.235 203.171 359.519 208.804 358.872C212.658 358.43 214.79 356.698 214.79 354.01C214.79 352.334 212.172 349.4 210.667 349.388C210.059 349.384 209.007 349.261 208.33 349.116C207.654 348.971 205.43 349.221 203.389 349.673Z" fill="#000000"/>
<path fill-rule="evenodd" clip-rule="evenodd" d="M263.682 93.5712C270.606 94.1928 279.418 96.0329 285.829 98.196C300.216 103.051 316.369 113.183 326.309 123.586C329.352 126.772 329.816 127.575 329.816 129.664C329.816 132.546 328.374 134.104 325.705 134.104C324.257 134.104 322.658 133.051 318.481 129.344C303.944 116.445 288.643 108.48 271.372 104.821C263.291 103.108 247.841 103.262 239.431 105.137C223.578 108.673 211.155 115.285 199.465 126.408C196.211 129.505 192.864 132.503 192.027 133.071C189.98 134.461 187.597 134.372 185.634 132.831C182.323 130.231 183.898 126.325 191.005 119.514C205.442 105.677 221.226 97.6481 239.996 94.5951C247.652 93.3495 256.803 92.954 263.682 93.5712ZM263.439 126.19C266.69 126.446 271.083 127.103 273.202 127.651C283.025 130.192 294.718 136.813 301.978 143.943C305.342 147.247 305.823 148.008 305.823 150.03C305.823 152.79 304.346 154.373 301.775 154.369C300.462 154.368 298.406 153.112 294.134 149.7C290.315 146.651 285.944 143.895 281.522 141.749C271.523 136.897 268.668 136.268 256.607 136.26C247.77 136.254 245.934 136.429 242.424 137.605C232.978 140.77 224.151 145.798 218.56 151.197C215.729 153.932 214.935 154.372 212.842 154.372C210.082 154.372 207.004 151.963 207.643 150.302C207.843 149.783 208.006 148.96 208.006 148.473C208.006 146.066 219.547 136.36 226.695 132.758C237.736 127.192 249.474 125.094 263.439 126.19ZM486.497 146.967C491.425 149.2 491 136.461 490.985 281.63C490.972 408.274 490.943 411.468 489.79 414.003C489.11 415.499 487.746 417.128 486.574 417.844C484.558 419.076 483.874 419.086 414.814 418.931L345.089 418.776L343.604 417.053C341.725 414.871 341.696 412.325 343.532 410.602C344.892 409.327 345.527 409.272 360.604 409.114L376.263 408.949L376.58 333.098H362.774C348.519 333.098 346.621 332.833 344.119 330.493C342.38 328.867 342.38 328.042 344.119 326.062C346.496 323.355 350.963 322.657 365.917 322.657C380.168 322.657 382.979 323.078 385.315 325.561L386.722 327.054L387.054 409.563L433.028 409.407C458.314 409.321 479.348 409.122 479.771 408.965C480.38 408.74 480.54 393.867 480.54 337.416V266.152H387.179L386.927 281.494C386.691 295.807 386.589 296.949 385.406 298.537C382.623 302.275 378.401 300.406 377.221 294.914C376.861 293.24 376.572 284.97 376.572 276.41C376.573 262.905 376.71 260.658 377.649 258.782L378.724 256.633L407.639 256.018L407.543 253.142C407.406 249.058 404.29 243.547 399.74 239.341C394.473 234.472 391.712 233.362 384.718 233.296C380.174 233.253 378.807 233.026 377.951 232.172C376.958 231.18 376.866 228.314 376.711 193.658L376.543 156.214L361.638 156.212C347.965 156.21 346.572 156.111 344.774 155.017C340.834 152.618 340.882 149.786 344.909 147.155L347.024 145.773L415.474 145.787C481.386 145.8 484.019 145.843 486.497 146.967ZM480.54 256.326L451.164 256.34C435.008 256.348 420.81 256.582 419.615 256.86L417.442 257.364L417.461 252.392C417.479 248.067 417.23 246.89 415.548 243.345C413.045 238.071 406.183 230.775 401.339 228.237C396.97 225.949 390.67 223.774 388.411 223.774L386.722 223.775L386.906 190.169C387.007 171.687 387.163 156.491 387.253 156.401C387.343 156.311 408.369 156.163 433.978 156.073L480.54 155.907V256.326ZM267.065 158.936C272.786 160.525 281.847 166.176 283.362 169.101C284.592 171.476 284.536 172.321 283.015 174.25C280.97 176.846 278.284 176.465 272.798 172.801C266.793 168.792 262.874 167.668 256.052 167.999C250.177 168.285 245.915 169.856 240.519 173.726C236.75 176.429 233.348 176.657 231.048 174.36C228.845 172.161 229.168 170.657 232.63 167.002C236.183 163.252 241.112 160.428 246.544 159.03C251.1 157.857 262.987 157.803 267.065 158.936ZM264.106 186.397C286.139 188.917 306.001 200.425 317.073 217.086C327.028 232.067 331.44 248.177 329.843 263.712C327.635 285.191 318.152 303.998 288.662 345.377C273.133 367.166 261.881 381.033 258.986 381.951C256.809 382.641 253.819 381.676 251.2 379.438C248.464 377.1 231.76 355.151 219.906 338.318C193.108 300.265 184.01 281.268 182.973 261.203C182.362 249.365 184.086 241.097 189.607 229.383C197.595 212.436 209.489 200.263 225.395 192.753C237.951 186.824 250.224 184.809 264.106 186.397ZM264.047 196.728C280.705 198.847 296.62 207.497 306.349 219.72C315.102 230.716 319.514 244.193 319.439 259.704C319.358 276.541 313.862 289.559 294.419 318.972C284.33 334.234 266.256 358.892 258.026 368.622L256.291 370.673L250.276 362.943C229.431 336.15 208.707 305.563 200.946 290.135C194.396 277.115 191.854 262.764 193.886 250.268C194.725 245.105 197.85 235.436 200.166 230.837C204.627 221.981 212.892 212.429 220.426 207.424C233.246 198.907 249.617 194.893 264.047 196.728ZM265.448 226.298C272.057 227.848 280.962 234.34 284.97 240.53C288.993 246.744 290.008 250.891 289.725 259.952C289.487 267.592 289.431 267.86 286.981 272.956C284.21 278.723 280.427 283.05 275.039 286.617C265.352 293.031 251.608 293.627 240.483 288.115C235.622 285.707 229.261 279.422 226.647 274.444C224.093 269.578 222.497 261.671 222.993 256.338C224.325 242.027 234.291 230.083 247.819 226.583C251.894 225.529 261.504 225.373 265.448 226.298ZM265.286 236.862C271.554 239.487 275.338 243.062 278.053 248.927C280.16 253.479 280.226 261.58 278.2 266.857C274.934 275.361 265.61 281.52 256.033 281.5C246.746 281.48 239.385 277.116 235.562 269.364C233.643 265.473 233.537 264.901 233.537 258.488C233.537 252.458 233.714 251.343 235.158 248.268C237.436 243.416 240.692 240.083 245.428 237.753C249.083 235.955 250.127 235.733 255.667 235.584C260.99 235.44 262.309 235.615 265.286 236.862ZM308.611 349.957C323.733 353.3 338.473 360.404 344.521 367.264C350.74 374.317 350.056 384.6 342.955 390.825C330.409 401.823 302.121 408.882 264.297 410.454C228.694 411.935 194.901 406.169 177.465 395.64C172.725 392.778 167.681 388.145 165.783 384.913C164.317 382.415 164.199 381.724 164.443 377.079C164.768 370.909 166.294 367.896 171.396 363.355C179.663 355.999 200.414 348.247 208.766 349.393C214.056 350.12 216.342 354.855 212.833 357.819C212.133 358.41 210.779 358.893 209.824 358.893C204.28 358.893 188.615 363.696 181.732 367.507C176.344 370.49 174.089 373.215 173.705 377.206C173.439 379.967 173.571 380.276 176.342 383.352C181.956 389.586 197.261 395.588 215.696 398.785C227.92 400.905 236.878 401.409 257.222 401.121C278.097 400.825 288.05 399.831 302.747 396.572C311.101 394.719 322.668 390.975 328.425 388.259C333.199 386.007 337.626 382.187 338.86 379.254C339.659 377.358 339.611 376.976 338.25 374.341C336.435 370.828 332.193 367.809 324.894 364.837C319.203 362.52 308.829 359.804 303.196 359.156C299.342 358.714 297.21 356.982 297.21 354.294C297.21 352.618 299.828 349.684 301.333 349.672C301.941 349.668 302.993 349.545 303.67 349.4C304.346 349.255 306.57 349.506 308.611 349.957Z" fill="#000000"/>
</svg>
