<?xml version="1.0" encoding="UTF-8"?>
<svg id="Layer_2" data-name="Layer 2" xmlns="http://www.w3.org/2000/svg" viewBox="0 0 67.34 72.67">
  <defs>
    <style>
      .cls-1 {
        fill: #000000;
      }
    </style>
  </defs>
  <g id="Layer_1-2" data-name="Layer 1">
    <path class="cls-1" d="M48.45,18.48h-11.09v-3.7c1.35,0,2.46-1.11,2.46-2.46V2.46c0-1.35-1.11-2.46-2.46-2.46h-7.39c-1.35,0-2.46,1.11-2.46,2.46v9.85c0,1.35,1.11,2.46,2.46,2.46v3.7h-11.09c-2.03,0-3.7,1.66-3.7,3.7v39.41c0,2.03,1.66,3.7,3.7,3.7h7.39v6.16c0,.68.55,1.23,1.23,1.23s1.23-.55,1.23-1.23v-6.16h3.7v6.16c0,.68.55,1.23,1.23,1.23s1.23-.55,1.23-1.23v-6.16h3.7v6.16c0,.68.55,1.23,1.23,1.23s1.23-.55,1.23-1.23v-6.16h7.39c2.03,0,3.7-1.66,3.7-3.7V22.17c0-2.03-1.66-3.7-3.7-3.7ZM29.98,2.46h7.39v9.85h-7.39V2.46ZM32.44,14.78h2.46v3.7h-2.46v-3.7ZM28.75,62.82v-3.7h3.7v3.7h-3.7ZM26.28,56.66v-2.46h14.78v2.46h-14.78ZM34.91,62.82v-3.7h3.7v3.7h-3.7ZM49.69,61.58c0,.68-.55,1.23-1.23,1.23h-7.39v-3.7c1.35,0,2.46-1.11,2.46-2.46v-2.46c0-1.35-1.11-2.46-2.46-2.46h-14.78c-1.35,0-2.46,1.11-2.46,2.46v2.46c0,1.35,1.11,2.46,2.46,2.46v3.7h-7.39c-.68,0-1.23-.55-1.23-1.23V22.17c0-.68.55-1.23,1.23-1.23h29.56c.68,0,1.23.55,1.23,1.23v39.41ZM45.38,33.26h-9.85c-1.35,0-2.46,1.11-2.46,2.46v9.85c0,1.35,1.11,2.46,2.46,2.46h9.85c1.35,0,2.46-1.11,2.46-2.46v-9.85c0-1.35-1.11-2.46-2.46-2.46ZM35.52,45.57v-9.85h9.85v9.85h-9.85ZM40.45,36.95c-2.03,0-3.7,1.66-3.7,3.7s1.66,3.7,3.7,3.7,3.7-1.66,3.7-3.7-1.66-3.7-3.7-3.7ZM40.45,41.88c-.68,0-1.23-.55-1.23-1.23s.55-1.23,1.23-1.23,1.23.55,1.23,1.23-.55,1.23-1.23,1.23ZM29.98,37.14v-1.79c0-.68-.55-1.23-1.23-1.23s-1.23.55-1.23,1.23v1.6h-1.23v-1.6c0-.68-.55-1.23-1.23-1.23s-1.23.55-1.23,1.23v1.6h-1.23v-1.6c0-.68-.55-1.23-1.23-1.23s-1.23.55-1.23,1.23v1.79c-.36.21-.62.59-.62,1.05v4.93c0,.46.26.83.62,1.05v1.42c0,.68.55,1.23,1.23,1.23s1.23-.55,1.23-1.23v-1.23h1.23v1.23c0,.68.55,1.23,1.23,1.23s1.23-.55,1.23-1.23v-1.23h1.23v1.23c0,.68.55,1.23,1.23,1.23s1.23-.55,1.23-1.23v-1.42c.36-.21.62-.59.62-1.05v-4.93c0-.46-.26-.83-.62-1.05ZM21.97,41.88v-2.46h6.16v2.46h-6.16ZM33.67,29.56c-.68,0-1.23-.55-1.23-1.23v-2.6c0-.68.55-1.23,1.23-1.23s1.23.55,1.23,1.23v2.6c0,.68-.55,1.23-1.23,1.23ZM37.37,28.33v-2.6c0-.68.55-1.23,1.23-1.23s1.23.55,1.23,1.23v2.6c0,.68-.55,1.23-1.23,1.23s-1.23-.55-1.23-1.23ZM27.52,28.33v-2.6c0-.68.55-1.23,1.23-1.23s1.23.55,1.23,1.23v2.6c0,.68-.55,1.23-1.23,1.23s-1.23-.55-1.23-1.23ZM3.95,37.57c-.97,1.69-1.49,3.6-1.49,5.54s.52,3.86,1.49,5.54c.34.59.14,1.34-.46,1.69-.2.11-.41.16-.62.16-.43,0-.84-.22-1.07-.62-1.18-2.06-1.81-4.4-1.81-6.77s.63-4.72,1.81-6.77c.34-.59,1.1-.79,1.69-.46.59.34.79,1.1.46,1.69ZM9.29,40.66c-.43.73-.65,1.58-.65,2.45s.22,1.72.65,2.45c.34.59.15,1.34-.44,1.69-.2.11-.41.17-.63.17-.42,0-.84-.22-1.06-.6-.65-1.11-1-2.39-1-3.71s.34-2.6,1-3.71c.34-.59,1.1-.79,1.69-.44s.78,1.1.44,1.69h0ZM67.34,43.11c0,2.38-.63,4.72-1.81,6.77-.23.39-.64.62-1.07.62-.21,0-.42-.05-.62-.16-.59-.34-.79-1.1-.46-1.69.97-1.69,1.49-3.6,1.49-5.54s-.52-3.86-1.49-5.54c-.34-.59-.14-1.34.46-1.69s1.34-.14,1.69.46c1.18,2.06,1.81,4.4,1.81,6.77ZM60.19,39.4c.65,1.11,1,2.39,1,3.71s-.34,2.6-1,3.71c-.23.39-.64.6-1.06.6-.21,0-.43-.05-.63-.17-.59-.34-.78-1.1-.44-1.69.43-.73.65-1.58.65-2.45s-.22-1.72-.65-2.45c-.34-.59-.15-1.34.44-1.69s1.34-.15,1.69.44h0Z"/>
  </g>
</svg>