<?xml version="1.0" encoding="UTF-8"?>
<svg id="Layer_2" data-name="Layer 2" xmlns="http://www.w3.org/2000/svg" viewBox="0 0 37.69 37.69">
  <defs>
    <style>
      .cls-1 {
        fill: #000000;
      }
    </style>
  </defs>
  <g id="Layer_1-2" data-name="Layer 1">
    <g>
      <path class="cls-1" d="M18.85,0C8.44,0,0,8.44,0,18.85s8.44,18.85,18.85,18.85,18.85-8.44,18.85-18.85C37.68,8.44,29.25.01,18.85,0ZM18.85,36.34c-9.66,0-17.5-7.83-17.5-17.5S9.18,1.35,18.85,1.35s17.5,7.83,17.5,17.5c0,9.66-7.84,17.49-17.5,17.5Z"/>
      <path class="cls-1" d="M18.85,3.37c-8.55,0-15.48,6.93-15.48,15.48s6.93,15.48,15.48,15.48,15.48-6.93,15.48-15.48c-.01-8.55-6.94-15.47-15.48-15.48ZM18.85,32.98c-7.81,0-14.13-6.33-14.13-14.13s6.33-14.13,14.13-14.13,14.13,6.33,14.13,14.13c0,7.8-6.33,14.13-14.13,14.13Z"/>
      <path class="cls-1" d="M25.58,23.56h-13.46c-1.12,0-2.02.9-2.02,2.02s.9,2.02,2.02,2.02h13.46c1.12,0,2.02-.9,2.02-2.02s-.9-2.02-2.02-2.02ZM25.58,26.25h-13.46c-.37,0-.67-.3-.67-.67s.3-.67.67-.67h13.46c.37,0,.67.3.67.67s-.3.67-.67.67Z"/>
      <path class="cls-1" d="M24.23,28.94h-10.77c-.37,0-.67.3-.67.67s.3.67.67.67h10.77c.37,0,.67-.3.67-.67s-.3-.67-.67-.67Z"/>
      <path class="cls-1" d="M13.46,18.85c0-1.49-1.21-2.69-2.69-2.69s-2.69,1.21-2.69,2.69,1.21,2.69,2.69,2.69c1.49,0,2.69-1.21,2.69-2.69ZM9.42,18.85c0-.74.6-1.35,1.35-1.35s1.35.6,1.35,1.35-.6,1.35-1.35,1.35c-.74,0-1.35-.6-1.35-1.35Z"/>
      <path class="cls-1" d="M16.15,18.85c0,1.49,1.21,2.69,2.69,2.69s2.69-1.21,2.69-2.69-1.21-2.69-2.69-2.69c-1.49,0-2.69,1.21-2.69,2.69ZM18.85,17.5c.74,0,1.35.6,1.35,1.35s-.6,1.35-1.35,1.35-1.35-.6-1.35-1.35c0-.74.6-1.35,1.35-1.35Z"/>
      <path class="cls-1" d="M26.92,16.15c-1.49,0-2.69,1.21-2.69,2.69s1.21,2.69,2.69,2.69,2.69-1.21,2.69-2.69c0-1.49-1.21-2.69-2.69-2.69ZM26.92,20.19c-.74,0-1.35-.6-1.35-1.35s.6-1.35,1.35-1.35,1.35.6,1.35,1.35c0,.74-.6,1.35-1.35,1.35Z"/>
      <path class="cls-1" d="M14.61,9.36c2.34-2.34,6.13-2.34,8.47,0,.26.26.69.26.95,0,.26-.26.26-.69,0-.95-2.87-2.86-7.5-2.86-10.37,0-.26.26-.26.69,0,.95.26.26.69.26.95,0Z"/>
      <path class="cls-1" d="M21.67,10.76c-1.56-1.56-4.09-1.56-5.66,0-.26.26-.27.69,0,.95.26.26.69.27.95,0,1.05-1.01,2.71-1.01,3.77,0,.26.26.69.26.95,0,.26-.26.26-.69,0-.95Z"/>
      <path class="cls-1" d="M19.94,13.6c0-.6-.49-1.09-1.09-1.09s-1.09.49-1.09,1.09.49,1.09,1.09,1.09c.6,0,1.09-.49,1.09-1.09Z"/>
    </g>
  </g>
</svg>