<?xml version="1.0" encoding="UTF-8"?>
<svg id="Layer_2" data-name="Layer 2" xmlns="http://www.w3.org/2000/svg" viewBox="0 0 78.21 78.21">
  <defs>
    <style>
      .cls-1 {
        fill: #000000;
      }
    </style>
  </defs>
  <g id="Layer_1-2" data-name="Layer 1">
    <g id="led">
      <g>
        <path class="cls-1" d="M53.44,50.83v-22.16c0-7.92-6.42-14.34-14.34-14.34s-14.34,6.42-14.34,14.34v22.16c-2.16,0-3.9,1.75-3.91,3.91v2.61c0,2.16,1.75,3.9,3.91,3.91h7.82v11.73h2.61v-11.73h7.82v16.94h2.61v-16.94h7.82c2.16,0,3.9-1.75,3.91-3.91v-2.61c0-2.16-1.75-3.9-3.91-3.91ZM27.37,28.68c0-6.48,5.25-11.73,11.73-11.73s11.73,5.25,11.73,11.73v22.16h-5.21v-10.43c0-.72-.58-1.3-1.3-1.3h-3.91c-.35,0-.68.14-.93.38l-1.33,1.33-.5-.99c-.22-.44-.67-.72-1.16-.72h-2.61c-.72,0-1.3.58-1.3,1.3v10.43h-5.21v-22.16ZM43.01,41.71v9.12h-7.82v-9.12h.5l.95,1.89c.19.37.54.64.95.7.41.06.83-.07,1.13-.36l2.22-2.23h2.07ZM54.74,57.35c0,.72-.58,1.3-1.3,1.3h-28.68c-.72,0-1.3-.58-1.3-1.3v-2.61c0-.72.58-1.3,1.3-1.3h28.68c.72,0,1.3.58,1.3,1.3v2.61Z"/>
        <path class="cls-1" d="M39.1,20.85v-2.61c-5.76,0-10.42,4.67-10.43,10.43h2.61c0-4.32,3.5-7.82,7.82-7.82Z"/>
        <path class="cls-1" d="M37.8,0h2.61v7.82h-2.61V0Z"/>
        <path class="cls-1" d="M10.53,12.38l1.84-1.84,5.53,5.53-1.84,1.84-5.53-5.53Z"/>
        <path class="cls-1" d="M0,37.8h7.82v2.61H0v-2.61Z"/>
        <path class="cls-1" d="M70.38,37.8h7.82v2.61h-7.82v-2.61Z"/>
        <path class="cls-1" d="M60.29,16.07l5.53-5.53,1.84,1.84-5.53,5.53-1.84-1.84Z"/>
      </g>
    </g>
  </g>
</svg>