<?xml version="1.0" encoding="UTF-8"?>
<svg id="Layer_2" data-name="Layer 2" xmlns="http://www.w3.org/2000/svg" viewBox="0 0 70.51 80.97">
  <defs>
    <style>
      .cls-1 {
        fill: #000000;
      }
    </style>
  </defs>
  <g id="Layer_1-2" data-name="Layer 1">
    <g>
      <path class="cls-1" d="M54.85,26.12h-2.61V0H18.28v26.12h-2.61v13.06h-5.22v28.73c0,7.2,5.86,13.06,13.06,13.06h23.51c7.2,0,13.06-5.86,13.06-13.06v-28.73h-5.22v-13.06ZM20.89,2.61h28.73v23.51h-28.73V2.61ZM18.28,28.73h33.96v39.18c0,2.88-2.34,5.22-5.22,5.22h-23.51c-2.88,0-5.22-2.34-5.22-5.22V28.73ZM57.46,41.79v26.12c0,5.76-4.69,10.45-10.45,10.45h-23.51c-5.76,0-10.45-4.69-10.45-10.45v-26.12h2.61v26.12c0,4.32,3.51,7.84,7.84,7.84h23.51c4.32,0,7.84-3.51,7.84-7.84v-26.12h2.61Z"/>
      <path class="cls-1" d="M35.26,39.18c2.16,0,3.92-1.76,3.92-3.92s-1.76-3.92-3.92-3.92-3.92,1.76-3.92,3.92,1.76,3.92,3.92,3.92ZM35.26,33.96c.72,0,1.31.59,1.31,1.31s-.59,1.31-1.31,1.31-1.31-.59-1.31-1.31.59-1.31,1.31-1.31Z"/>
      <path class="cls-1" d="M24.81,39.18c2.16,0,3.92-1.76,3.92-3.92s-1.76-3.92-3.92-3.92-3.92,1.76-3.92,3.92,1.76,3.92,3.92,3.92ZM24.81,33.96c.72,0,1.31.59,1.31,1.31s-.59,1.31-1.31,1.31-1.31-.59-1.31-1.31.59-1.31,1.31-1.31Z"/>
      <path class="cls-1" d="M45.71,39.18c2.16,0,3.92-1.76,3.92-3.92s-1.76-3.92-3.92-3.92-3.92,1.76-3.92,3.92,1.76,3.92,3.92,3.92ZM45.71,33.96c.72,0,1.31.59,1.31,1.31s-.59,1.31-1.31,1.31-1.31-.59-1.31-1.31.59-1.31,1.31-1.31Z"/>
      <path class="cls-1" d="M33.95,49.63h2.61c1.44,0,2.61-1.17,2.61-2.61v-2.61c0-1.44-1.17-2.61-2.61-2.61h-2.61c-1.44,0-2.61,1.17-2.61,2.61v2.61c0,1.44,1.17,2.61,2.61,2.61ZM33.95,44.4h2.61v2.61s-2.61,0-2.61,0v-2.61Z"/>
      <path class="cls-1" d="M33.95,60.08h2.61c1.44,0,2.61-1.17,2.61-2.61v-2.61c0-1.44-1.17-2.61-2.61-2.61h-2.61c-1.44,0-2.61,1.17-2.61,2.61v2.61c0,1.44,1.17,2.61,2.61,2.61ZM33.95,54.85h2.61v2.61s-2.61,0-2.61,0v-2.61Z"/>
      <path class="cls-1" d="M33.95,70.53h2.61c1.44,0,2.61-1.17,2.61-2.61v-2.61c0-1.44-1.17-2.61-2.61-2.61h-2.61c-1.44,0-2.61,1.17-2.61,2.61v2.61c0,1.44,1.17,2.61,2.61,2.61ZM33.95,65.3h2.61v2.61s-2.61,0-2.61,0v-2.61Z"/>
      <path class="cls-1" d="M44.4,49.63h2.61c1.44,0,2.61-1.17,2.61-2.61v-2.61c0-1.44-1.17-2.61-2.61-2.61h-2.61c-1.44,0-2.61,1.17-2.61,2.61v2.61c0,1.44,1.17,2.61,2.61,2.61ZM44.4,44.4h2.61v2.61s-2.61,0-2.61,0v-2.61Z"/>
      <path class="cls-1" d="M44.4,60.08h2.61c1.44,0,2.61-1.17,2.61-2.61v-2.61c0-1.44-1.17-2.61-2.61-2.61h-2.61c-1.44,0-2.61,1.17-2.61,2.61v2.61c0,1.44,1.17,2.61,2.61,2.61ZM44.4,54.85h2.61v2.61s-2.61,0-2.61,0v-2.61Z"/>
      <path class="cls-1" d="M44.4,70.53h2.61c1.44,0,2.61-1.17,2.61-2.61v-2.61c0-1.44-1.17-2.61-2.61-2.61h-2.61c-1.44,0-2.61,1.17-2.61,2.61v2.61c0,1.44,1.17,2.61,2.61,2.61ZM44.4,65.3h2.61v2.61s-2.61,0-2.61,0v-2.61Z"/>
      <path class="cls-1" d="M23.5,49.63h2.61c1.44,0,2.61-1.17,2.61-2.61v-2.61c0-1.44-1.17-2.61-2.61-2.61h-2.61c-1.44,0-2.61,1.17-2.61,2.61v2.61c0,1.44,1.17,2.61,2.61,2.61ZM23.5,44.4h2.61v2.61s-2.61,0-2.61,0v-2.61Z"/>
      <path class="cls-1" d="M23.5,60.08h2.61c1.44,0,2.61-1.17,2.61-2.61v-2.61c0-1.44-1.17-2.61-2.61-2.61h-2.61c-1.44,0-2.61,1.17-2.61,2.61v2.61c0,1.44,1.17,2.61,2.61,2.61ZM23.5,54.85h2.61v2.61s-2.61,0-2.61,0v-2.61Z"/>
      <path class="cls-1" d="M23.5,70.53h2.61c1.44,0,2.61-1.17,2.61-2.61v-2.61c0-1.44-1.17-2.61-2.61-2.61h-2.61c-1.44,0-2.61,1.17-2.61,2.61v2.61c0,1.44,1.17,2.61,2.61,2.61ZM23.5,65.3h2.61v2.61s-2.61,0-2.61,0v-2.61Z"/>
      <path class="cls-1" d="M27.92,5.22l7.34,14.67,7.34-14.67h-14.67ZM32.15,7.84h6.22l-3.11,6.22-3.11-6.22Z"/>
      <path class="cls-1" d="M62.62,7.9l-1.85,1.85c2.55,2.55,2.55,6.69,0,9.23l1.85,1.85c3.57-3.56,3.57-9.36,0-12.93Z"/>
      <path class="cls-1" d="M66.31,4.21l-1.85,1.85c4.58,4.58,4.58,12.04,0,16.62l1.85,1.85c5.6-5.6,5.6-14.72,0-20.32Z"/>
      <path class="cls-1" d="M57.08,13.44c.25.25.38.57.38.92s-.14.68-.38.92l1.85,1.85c.74-.74,1.15-1.72,1.15-2.77s-.41-2.03-1.15-2.77l-1.85,1.85Z"/>
      <path class="cls-1" d="M7.9,7.9c-3.56,3.56-3.56,9.36,0,12.93l1.85-1.85c-2.55-2.55-2.55-6.69,0-9.23l-1.85-1.85Z"/>
      <path class="cls-1" d="M6.05,6.05l-1.85-1.85c-5.6,5.6-5.6,14.72,0,20.32l1.85-1.85C1.47,18.09,1.47,10.64,6.05,6.05Z"/>
      <path class="cls-1" d="M13.44,15.29c-.25-.25-.38-.57-.38-.92s.14-.68.38-.92l-1.85-1.85c-.74.74-1.15,1.73-1.15,2.77s.41,2.03,1.15,2.77l1.85-1.85Z"/>
    </g>
  </g>
</svg>