<svg width="512" height="512" viewBox="0 0 512 512" fill="none" xmlns="http://www.w3.org/2000/svg">
<path fill-rule="evenodd" clip-rule="evenodd" d="M407.475 38.2329C385.684 47.6079 351.028 62.4362 330.461 71.1847C309.895 79.9333 277.065 93.93 257.508 102.289L221.949 117.487L215.535 113.84C207.241 109.123 192.896 105.835 184.027 106.619C162.399 108.529 145.516 120.659 138.718 139.174C135.644 147.545 135.033 153.876 135.033 177.39V200.176L106.383 200.392C83.356 200.565 76.934 200.876 73.663 201.977C63.2675 205.477 58.1863 210.595 55.3106 220.466C53.8816 225.372 53.8023 232.142 54.2217 313.734L54.6731 401.712L56.6478 405.892C59.2797 411.461 65.0374 416.595 71.2582 418.917C76.2796 420.792 77.1112 420.814 143.08 420.814H209.821V448.182V475.549L212.077 480.066C214.324 484.566 218.448 488.189 223.457 490.064C226.799 491.315 274.998 491.311 279.514 490.06C284.206 488.76 288.463 484.731 290.952 479.236C293.035 474.637 293.066 474.156 292.995 447.711L292.923 420.857L360.66 420.613L428.398 420.37L433.499 417.87C439.527 414.916 443.32 410.646 445.876 403.933C447.731 399.059 447.735 398.811 447.216 309.107L446.696 219.166L444.489 214.821C443.275 212.431 440.47 208.883 438.254 206.938C430.594 200.209 435.849 200.543 333.434 200.274L242.031 200.034L241.65 174.268C241.295 150.233 241.137 148.183 239.306 143.728C236.641 137.239 233.919 131.925 232.348 130.139C230.757 128.331 230.499 128.489 244.112 122.942C249.505 120.744 255.715 118.129 257.912 117.129C260.108 116.13 267.114 113.122 273.48 110.443C279.846 107.765 296.072 100.888 309.538 95.1614C323.005 89.4354 338.029 83.0518 342.926 80.9746C378.63 65.8354 389.524 61.1817 398.126 57.3951C403.513 55.0238 417.936 48.865 430.178 43.7094C460.432 30.9663 458.614 31.9889 458.939 27.5351C459.159 24.5241 458.835 23.5806 457.182 22.4265C452.571 19.2032 449.255 20.2577 407.475 38.2329ZM179.55 120.858C169.102 123.936 161.787 128.95 156.244 136.836C150.108 145.564 149.335 150.032 149.305 176.934L149.278 200.034L188.899 199.794L228.518 199.553L228.5 179.803C228.491 168.94 228.109 157.474 227.652 154.322C226.135 143.847 218.853 132.52 209.986 126.842C200.973 121.07 187.694 118.459 179.55 120.858ZM181.25 136.948C176.047 138.615 169.56 144.292 167.127 149.305C163.636 156.502 164.765 166.311 169.895 173.36C179.104 186.013 196.781 186.807 207.14 175.033C211.254 170.357 212.492 166.793 212.492 159.628C212.492 149.698 208.291 142.862 199.372 138.281C194.56 135.808 186.627 135.224 181.25 136.948ZM186.986 149.971C185.444 150.388 182.896 152.191 181.323 153.979C178.855 156.785 178.528 157.707 178.934 160.727C180.633 173.369 199.137 172.173 199.137 159.421C199.137 155.63 197.209 152.906 193.069 150.846C190.612 149.624 189.086 149.404 186.986 149.971ZM94.9258 214.659C78.6488 215.064 75.3786 215.374 73.354 216.7C68.5756 219.829 68.4919 220.466 68.1055 256.672L67.7476 290.211H250.551H433.354L433.102 255.62L432.849 221.027L430.229 218.298C428.788 216.798 426.183 215.175 424.442 214.692C421.135 213.775 131.535 213.746 94.9258 214.659ZM67.5606 305.208C67.3015 305.882 67.3247 327.199 67.6114 352.579C68.1874 403.437 67.9239 401.242 73.8713 404.861C76.666 406.561 79.8205 406.593 251.222 406.593C422.731 406.593 425.776 406.562 428.577 404.857C434.623 401.179 434.53 402.046 433.883 355.069C433.563 331.858 433.3 310.868 433.298 308.425L433.295 303.983H250.663C96.2533 303.983 67.9595 304.172 67.5606 305.208ZM143.977 328.497C134.48 330.354 123.996 338.139 120.079 346.242C110.388 366.285 122.29 388.219 145.144 392.435C151.309 393.572 157.991 392.497 164.623 389.302C173.281 385.129 179.496 377.547 181.885 368.244C186.611 349.833 174.521 332.181 154.603 328.411C149.376 327.423 149.475 327.422 143.977 328.497ZM346.282 328.463C335.777 330.532 327.174 337 322.483 346.357C319.597 352.114 319.332 353.293 319.332 360.399C319.332 367.467 319.605 368.7 322.401 374.273C327.587 384.608 335.525 390.444 347.081 392.416C354.361 393.658 360.484 392.587 368.256 388.712C374.697 385.5 379.191 380.588 382.759 372.861C385.199 367.577 385.384 366.491 385.033 359.534C384.569 350.329 382.54 345.336 376.754 339.163C371.885 333.969 365.969 330.67 358.278 328.861C352.132 327.415 351.681 327.399 346.282 328.463ZM141.661 343.368C135.098 346.432 129.694 354.531 129.705 361.288C129.71 364.31 133.43 371.964 136.029 374.299C146.968 384.126 163.066 380.406 168.466 366.802C171.452 359.282 167.871 349.451 160.487 344.896C154.948 341.478 147.081 340.84 141.661 343.368ZM344.707 342.976C334.676 347.349 329.948 359.183 334.361 368.876C336.168 372.847 340.505 376.909 344.901 378.748C352.984 382.127 363.923 378.41 368.732 370.647C374.781 360.883 370.437 347.435 359.8 343C356.055 341.438 348.263 341.425 344.707 342.976ZM223.176 446.619V472.425L225.362 474.605L227.547 476.787H251.014H274.483L276.875 474.294L279.267 471.803V446.308V420.814H251.222H223.176V446.619Z" fill="#000000"/>
</svg>
