<svg width="512" height="512" viewBox="0 0 512 512" fill="none" xmlns="http://www.w3.org/2000/svg">
<path fill-rule="evenodd" clip-rule="evenodd" d="M123.501 37.578C113.238 47.8261 106.658 55.058 106.267 56.5192C104.979 61.3351 110.38 65.5977 114.803 63.2567C116.067 62.5875 121.323 57.7861 126.483 52.5874L135.865 43.1339L136.292 79.4511C136.704 114.527 136.776 115.811 138.424 117.016C139.431 117.751 141.521 118.16 143.522 118.011C149.108 117.599 149.059 117.946 149.073 78.5073L149.086 43.5167L159.571 53.9975C166.234 60.6556 170.702 64.4783 171.824 64.4783C175.05 64.4783 178.085 61.2754 178.085 57.8713C178.085 55.0563 177.021 53.7204 165.403 41.9489C158.427 34.8815 151.812 28.0188 150.701 26.6991C148.217 23.746 143.889 21 141.721 21C140.755 21 133.401 27.6905 123.501 37.578ZM253.568 22.6113C249.757 25.0017 221.021 54.3752 220.356 56.5602C219.273 60.1254 224.011 65.1765 227.424 64.0938C229.211 63.5269 236.977 56.2234 244.92 47.6411C247.632 44.711 250.039 42.3129 250.268 42.3129C250.498 42.3129 250.465 43.5601 250.194 45.0836C249.924 46.607 249.484 62.2405 249.216 79.8236L248.729 111.793L250.749 114.777C253.467 118.79 257.748 119.321 260.845 116.03C262.834 113.917 262.963 113.17 263.186 102.563C263.315 96.3863 263.11 80.3991 262.73 67.0359C262.349 53.6727 262.177 42.5508 262.345 42.3197C262.514 42.0895 263.067 42.665 263.575 43.5985C264.082 44.5329 268.163 49.0461 272.645 53.6284C281.726 62.914 285.128 64.7401 289.471 62.6591C292.406 61.2533 293.895 57.6659 292.754 54.752C291.617 51.8492 259.551 20.9991 257.674 21.0034C256.823 21.0051 254.976 21.728 253.568 22.6113ZM353.162 37.4109C344.085 46.4374 336.427 54.7426 336.142 55.8688C334.901 60.7835 340.859 65.9779 345.122 63.6974C346.042 63.2064 350.958 58.399 356.047 53.0162L365.301 43.2285L365.03 77.012C364.882 95.5926 364.987 111.701 365.265 112.807C365.979 115.65 368.776 118.187 371.195 118.187C372.454 118.187 374.127 117.148 375.507 115.508L377.762 112.829L377.502 77.5338L377.242 42.2379L386.602 52.203C391.751 57.6838 397.202 62.6855 398.716 63.3181C401.74 64.5806 404.642 63.9327 406.618 61.5542C408.062 59.8159 408.006 55.6241 406.511 53.6147C405.894 52.7827 398.238 45.1049 389.499 36.5516C378.152 25.4459 373.046 21 371.637 21C370.216 21 365.055 25.584 353.162 37.4109ZM59.1027 140.7C55.9648 142.098 53.1203 145.101 51.9101 148.293C51.3497 149.77 51 159.24 51 172.901C51 194.157 51.0802 195.249 52.8645 198.423C54.1473 200.704 56.0629 202.404 59.0021 203.867C63.2556 205.986 63.3903 205.996 87.3216 205.996H111.367L111.832 208.767C112.236 211.175 112.888 403.045 112.54 417.146C112.335 425.444 113.487 425.093 86.5028 425.093H63.2761L58.8759 427.285C51.0998 431.158 51 431.54 51 457.41C51 483.28 51.3054 484.582 58.3351 488.7L62.2611 491L256.463 490.992C441.14 490.985 450.822 490.91 453.876 489.462C455.641 488.624 458.12 486.585 459.383 484.93L461.681 481.922L461.936 459.698C462.075 447.476 461.98 436.637 461.722 435.612C460.973 432.626 456.915 428.389 453.186 426.696C450.129 425.307 447.231 425.128 427.513 425.112C410.884 425.098 404.914 424.819 403.802 424.007C402.815 423.285 402.041 420.927 401.494 416.973C400.994 413.354 400.76 371.618 400.897 310.306C401.116 212.625 401.173 209.531 402.748 207.791C404.323 206.051 405.074 205.996 427.389 205.996C448.94 205.996 450.63 205.884 453.933 204.236C455.872 203.267 458.409 201.091 459.57 199.398C461.663 196.347 461.682 196.138 461.934 174.305C462.222 149.269 461.789 147.06 455.665 142.392L452.432 139.926L257.047 139.744C95.5181 139.593 61.218 139.758 59.1027 140.7ZM65.9824 153.591C64.2987 154.428 64.21 155.251 63.99 171.986C63.7819 187.841 63.903 189.632 65.2693 190.855C66.6357 192.078 84.9223 192.234 258.046 192.494L449.313 192.782V172.643V152.503L258.529 152.609C129.702 152.68 67.1722 152.999 65.9824 153.591ZM125.597 303.183C126.291 425.133 126.274 423.944 127.438 425.109C128.14 425.811 162.681 425.899 257.656 425.446L386.921 424.828L387.4 423.042C387.664 422.06 387.885 373.207 387.891 314.479L387.903 207.701L364.661 207.488C351.878 207.371 336.621 207.15 330.757 206.995C324.894 206.842 276.21 206.65 222.572 206.569L125.047 206.422L125.597 303.183ZM219.858 225.889C219.635 226.103 217.149 226.514 214.334 226.802C199.087 228.366 190.008 232.592 179.364 243.081C173 249.352 168.78 256.353 165.447 266.168C162.194 275.749 161.701 283.977 162.092 322.138C162.504 362.315 162.528 362.506 168.695 375.453C172.493 383.427 178.39 390.233 185.968 395.388C196.423 402.499 205.36 405.225 222.108 406.406C235.439 407.348 298.602 407.069 302.824 406.05C304.115 405.74 306.165 405.312 307.382 405.1C325.818 401.898 342.842 385.718 349.584 364.99C351.453 359.246 351.538 357.681 351.854 323.217C352.249 280.344 351.611 271.958 347.178 261.836C339.766 244.908 326.199 233.191 308.079 228.069C301.612 226.242 299.646 226.149 260.798 225.832C238.506 225.65 220.083 225.676 219.858 225.889ZM215.702 239.766C207.961 241.07 204.416 242.254 197.468 245.858C185.512 252.059 177.857 264.286 175.577 280.825C174.534 288.378 174.646 346.993 175.717 355.186C176.968 364.744 180.981 372.751 188.079 379.845C194.02 385.782 197.938 388.237 206.19 391.192C215.599 394.562 287.735 395.395 302.611 392.307C317.402 389.235 329.922 379.834 334.525 368.342C339.195 356.683 339.5 353.431 339.332 317.261C339.155 279.15 338.522 273.172 333.698 263.993C328.016 253.188 316.724 244.347 304.334 241.006C297.945 239.283 295.38 239.166 259.565 238.977C233.797 238.842 219.684 239.096 215.702 239.766ZM254.757 264.917C253.535 265.365 252.154 266.582 251.688 267.62C251.149 268.821 250.98 283.316 251.222 307.446L251.603 345.382L241.498 335.416C235.496 329.496 230.437 325.217 229.041 324.878C225.918 324.121 222.751 326.243 222.016 329.585C221.244 333.099 223.309 336.24 231.557 344.096C235.219 347.585 241.934 354.001 246.479 358.354C258.094 369.479 257.193 369.635 272.82 353.795C279.588 346.935 286.221 340.318 287.558 339.089C292.467 334.582 293.498 330.413 290.608 326.742C289.225 324.984 288.099 324.496 285.431 324.496C282.249 324.496 281.396 325.105 272.699 333.582L263.377 342.669V306.22C263.377 273.316 263.234 269.531 261.913 267.295C261.109 265.934 260.181 264.82 259.851 264.82C259.522 264.82 258.74 264.659 258.116 264.461C257.491 264.264 255.98 264.469 254.757 264.917ZM65.6898 440.06C63.845 441.352 63.7938 441.818 63.7938 457.442C63.7938 471.661 63.9703 473.715 65.3367 475.401L66.8788 477.306L257.213 477.27C361.896 477.251 447.943 476.989 448.43 476.689C448.996 476.339 449.313 469.42 449.313 457.438V438.733H258.45C87.0828 438.733 67.3914 438.869 65.6898 440.06Z" fill="#000000"/>
</svg>
