<?xml version="1.0" encoding="UTF-8"?>
<svg id="Layer_2" data-name="Layer 2" xmlns="http://www.w3.org/2000/svg" viewBox="0 0 66.82 66.82">
  <defs>
    <style>
      .cls-1 {
        fill: #000000;
      }
    </style>
  </defs>
  <g id="Layer_1-2" data-name="Layer 1">
    <g>
      <path class="cls-1" d="M58.2,30.18c4.75,0,8.62-3.87,8.62-8.62s-3.87-8.62-8.62-8.62c-.59,0-1.18.06-1.76.19-1.75-5.24-6.64-8.81-12.25-8.81-2.81,0-5.5.91-7.73,2.58-1.36-2.33-5.01-6.89-12.74-6.89-6.74,0-12.56,4.39-14.45,10.79-5.14.23-9.26,4.49-9.26,9.69s4.35,9.7,9.7,9.7h5.5c-.07.35-.11.71-.11,1.08v23.71c0,6.54,5.32,11.85,11.85,11.85h12.93c6.54,0,11.85-5.32,11.85-11.85v-23.71c0-.37-.04-.73-.11-1.08h6.58ZM9.7,28.02c-4.16,0-7.54-3.38-7.54-7.54s3.39-7.54,7.54-7.54c.06,0,.11,0,.17,0l1.06.05.2-.87c1.38-5.87,6.55-9.97,12.58-9.97,8.78,0,11.27,6.53,11.38,6.8l.55,1.54,1.2-1.12c2.01-1.88,4.62-2.91,7.35-2.91,4.98,0,9.29,3.39,10.46,8.23l.28,1.16,1.12-.4c.7-.25,1.42-.37,2.14-.37,3.57,0,6.47,2.9,6.47,6.47s-2.9,6.47-6.47,6.47h-7.57c-.99-1.3-2.53-2.16-4.28-2.16h-25.86c-1.75,0-3.3.85-4.28,2.16h-6.49ZM38.69,28.02c-.5,2.46-2.68,4.31-5.28,4.31s-4.78-1.85-5.28-4.31h10.56ZM49.57,54.96c0,5.35-4.35,9.7-9.7,9.7h-12.93c-5.35,0-9.7-4.35-9.7-9.7v-23.71c0-1.78,1.45-3.23,3.23-3.23h5.47c.53,3.65,3.67,6.47,7.46,6.47s6.93-2.82,7.46-6.47h5.47c1.78,0,3.23,1.45,3.23,3.23v23.71Z"/>
      <path class="cls-1" d="M23.71,17.24h-2.16c0,1.19-.97,2.16-2.16,2.16s-2.16-.97-2.16-2.16v-4.31c0-1.19.97-2.16,2.16-2.16s2.16.97,2.16,2.16h2.16c0-2.38-1.93-4.31-4.31-4.31s-4.31,1.93-4.31,4.31v4.31c0,2.38,1.93,4.31,4.31,4.31s4.31-1.93,4.31-4.31Z"/>
      <path class="cls-1" d="M30.18,21.55c2.38,0,4.31-1.93,4.31-4.31v-4.31c0-2.38-1.93-4.31-4.31-4.31s-4.31,1.93-4.31,4.31v4.31c0,2.38,1.93,4.31,4.31,4.31ZM28.02,12.93c0-1.19.97-2.16,2.16-2.16s2.16.97,2.16,2.16v4.31c0,1.19-.97,2.16-2.16,2.16s-2.16-.97-2.16-2.16v-4.31Z"/>
      <path class="cls-1" d="M45.26,36.64h-23.71c-1.19,0-2.16.97-2.16,2.16v16.17c0,4.16,3.39,7.54,7.54,7.54h12.93c4.16,0,7.54-3.38,7.54-7.54v-16.17c0-1.19-.97-2.16-2.16-2.16ZM45.26,54.96c0,2.97-2.42,5.39-5.39,5.39h-12.93c-2.97,0-5.39-2.42-5.39-5.39v-16.17h23.71v16.17Z"/>
      <circle class="cls-1" cx="21.55" cy="31.25" r="1.08"/>
      <circle class="cls-1" cx="45.26" cy="31.25" r="1.08"/>
      <path class="cls-1" d="M43.11,40.95h-19.4v6.47h19.4v-6.47ZM40.95,45.26h-15.09v-2.16h15.09v2.16Z"/>
      <path class="cls-1" d="M28.02,58.2c2.38,0,4.31-1.93,4.31-4.31s-1.93-4.31-4.31-4.31-4.31,1.93-4.31,4.31,1.93,4.31,4.31,4.31ZM28.02,51.73c1.19,0,2.16.97,2.16,2.16s-.97,2.16-2.16,2.16-2.16-.97-2.16-2.16.97-2.16,2.16-2.16Z"/>
      <path class="cls-1" d="M38.8,49.57c-2.38,0-4.31,1.93-4.31,4.31s1.93,4.31,4.31,4.31,4.31-1.93,4.31-4.31-1.93-4.31-4.31-4.31ZM38.8,56.04c-1.19,0-2.16-.97-2.16-2.16s.97-2.16,2.16-2.16,2.16.97,2.16,2.16-.97,2.16-2.16,2.16Z"/>
      <path class="cls-1" d="M6.47,20.48h-2.16c0,2.97,2.42,5.39,5.39,5.39h2.16v-2.16h-2.16c-1.78,0-3.23-1.45-3.23-3.23Z"/>
      <path class="cls-1" d="M14.01,23.71h2.16v2.16h-2.16v-2.16Z"/>
      <path class="cls-1" d="M49.57,16.17h2.16c0-4.16-3.39-7.54-7.54-7.54v2.16c2.97,0,5.39,2.42,5.39,5.39Z"/>
      <path class="cls-1" d="M53.88,38.8h2.16v10.78h-2.16v-10.78Z"/>
      <path class="cls-1" d="M58.2,36.64h2.16v15.09h-2.16v-15.09Z"/>
      <path class="cls-1" d="M62.51,34.49h2.16v19.4h-2.16v-19.4Z"/>
      <path class="cls-1" d="M10.78,38.8h2.16v10.78h-2.16v-10.78Z"/>
      <path class="cls-1" d="M6.47,36.64h2.16v15.09h-2.16v-15.09Z"/>
      <path class="cls-1" d="M2.16,34.49h2.16v19.4h-2.16v-19.4Z"/>
    </g>
  </g>
</svg>