<?xml version="1.0" encoding="UTF-8"?>
<svg id="Layer_2" data-name="Layer 2" xmlns="http://www.w3.org/2000/svg" viewBox="0 0 87.42 86.42">
  <defs>
    <style>
      .cls-1 {
        fill: none;
        stroke: #000000;
        stroke-miterlimit: 10;
        stroke-width: 2px;
      }
    </style>
  </defs>
  <g id="Layer_1-2" data-name="Layer 1">
    <g>
      <line class="cls-1" x1="38.5" y1="86.42" x2="38.5" y2="65.59"/>
      <line class="cls-1" x1="48.92" y1="86.42" x2="48.92" y2="77.63"/>
      <line class="cls-1" x1="48.92" y1="71.6" x2="48.92" y2="65.59"/>
      <path class="cls-1" d="M1,13.83v-6.57c0-1.92,1.56-3.47,3.47-3.47h18.4"/>
      <path class="cls-1" d="M1,19.86v39.48c0,1.92,1.56,3.47,3.47,3.47h18.4"/>
      <path class="cls-1" d="M86.42,46.94v12.39c0,1.92-1.56,3.47-3.47,3.47h-18.4"/>
      <path class="cls-1" d="M64.55,3.78h18.4c1.92,0,3.47,1.56,3.47,3.47v33.66"/>
      <path class="cls-1" d="M63.16,6.56H24.27c-.77,0-1.39-.62-1.39-1.39v-2.78c0-.77.62-1.39,1.39-1.39h38.89c.77,0,1.39.62,1.39,1.39v2.78c0,.77-.62,1.39-1.39,1.39Z"/>
      <path class="cls-1" d="M63.16,65.59H24.27c-.77,0-1.39-.62-1.39-1.39v-2.78c0-.77.62-1.39,1.39-1.39h38.89c.77,0,1.39.62,1.39,1.39v2.78c0,.77-.62,1.39-1.39,1.39Z"/>
      <circle class="cls-1" cx="20.45" cy="26" r="13.89"/>
      <circle class="cls-1" cx="20.45" cy="26" r="2.78"/>
      <line class="cls-1" x1="24.61" y1="18.78" x2="21.84" y2="23.6"/>
      <line class="cls-1" x1="17.67" y1="26" x2="6.56" y2="26"/>
      <line class="cls-1" x1="34.34" y1="26" x2="23.22" y2="26"/>
      <path class="cls-1" d="M66.28,12.11c1.53,0,2.78,1.24,2.78,2.78h0c0,1.53-1.24,2.78-2.78,2.78"/>
      <path class="cls-1" d="M69.76,23.22c1.53,0,2.78,1.24,2.78,2.78h0c0,1.53-1.24,2.78-2.78,2.78"/>
      <path class="cls-1" d="M55.17,34.34c1.53,0,2.78,1.24,2.78,2.78h0c0,1.53-1.24,2.78-2.78,2.78"/>
      <path class="cls-1" d="M78.09,17.67h-34.03c-1.53,0-2.78-1.24-2.78-2.78h0c0-1.53,1.24-2.78,2.78-2.78h34.03c1.53,0,2.78,1.24,2.78,2.78h0c0,1.53-1.24,2.78-2.78,2.78Z"/>
      <path class="cls-1" d="M78.09,28.78h-34.03c-1.53,0-2.78-1.24-2.78-2.78h0c0-1.53,1.24-2.78,2.78-2.78h34.03c1.53,0,2.78,1.24,2.78,2.78h0c0,1.53-1.24,2.78-2.78,2.78Z"/>
      <path class="cls-1" d="M78.09,39.89h-34.03c-1.53,0-2.78-1.24-2.78-2.78h0c0-1.53,1.24-2.78,2.78-2.78h34.03c1.53,0,2.78,1.24,2.78,2.78h0c0,1.53-1.24,2.78-2.78,2.78Z"/>
      <path class="cls-1" d="M43.02,45.45h5.56c.96,0,1.74.78,1.74,1.74v5.56c0,.96-.78,1.74-1.74,1.74h-5.56c-.96,0-1.74-.78-1.74-1.74v-5.56c0-.96.78-1.74,1.74-1.74Z"/>
      <path class="cls-1" d="M58.3,45.45h5.56c.96,0,1.74.78,1.74,1.74v5.56c0,.96-.78,1.74-1.74,1.74h-5.56c-.96,0-1.74-.78-1.74-1.74v-5.56c0-.96.78-1.74,1.74-1.74Z"/>
      <path class="cls-1" d="M73.58,45.45h5.56c.96,0,1.74.78,1.74,1.74v5.56c0,.96-.78,1.74-1.74,1.74h-5.56c-.96,0-1.74-.78-1.74-1.74v-5.56c0-.96.78-1.74,1.74-1.74Z"/>
      <g>
        <line class="cls-1" x1="6.56" y1="47.18" x2="11.94" y2="47.18"/>
        <line class="cls-1" x1="11.94" y1="52.74" x2="6.56" y2="52.74"/>
        <line class="cls-1" x1="17.75" y1="47.18" x2="23.14" y2="47.18"/>
        <line class="cls-1" x1="23.14" y1="52.74" x2="17.75" y2="52.74"/>
        <line class="cls-1" x1="34.34" y1="52.74" x2="28.95" y2="52.74"/>
        <line class="cls-1" x1="28.95" y1="47.18" x2="34.34" y2="47.18"/>
      </g>
    </g>
  </g>
</svg>