<?xml version="1.0" encoding="UTF-8"?>
<svg id="Layer_2" data-name="Layer 2" xmlns="http://www.w3.org/2000/svg" viewBox="0 0 50.6 91.64">
  <defs>
    <style>
      .cls-1 {
        fill: #000000;
        fill-rule: evenodd;
      }
    </style>
  </defs>
  <g id="Layer_1-2" data-name="Layer 1">
    <g id="Layer_1-3" data-name="Layer_1">
      <g id="_381944384" data-name=" 381944384">
        <path id="_381944960" data-name=" 381944960" class="cls-1" d="M44.17,80.48H6.46c-3.56,0-6.46-2.89-6.46-6.46V11.6c0-3.56,2.89-6.46,6.46-6.46h37.69c3.56,0,6.46,2.89,6.46,6.46v62.45c0,1.71-.64,3.34-1.85,4.55-1.21,1.21-2.84,1.88-4.58,1.88h0ZM6.46,7.49c-2.25,0-4.11,1.83-4.11,4.11v62.45c0,2.25,1.83,4.11,4.11,4.11h37.72c1.09,0,2.13-.42,2.89-1.21.77-.77,1.19-1.81,1.19-2.89V11.6c0-2.25-1.83-4.11-4.11-4.11H6.46Z"/>
        <path id="_381945224" data-name=" 381945224" class="cls-1" d="M34.35,7.49c-.64,0-1.19-.52-1.19-1.19v-3.96h-15.73s0,3.96,0,3.96c0,.64-.52,1.19-1.19,1.19s-1.19-.52-1.19-1.19V1.19c0-.64.52-1.19,1.19-1.19h18.08c.64,0,1.19.52,1.19,1.19v5.12c.02.67-.52,1.19-1.16,1.19h0Z"/>
        <path id="_381945392" data-name=" 381945392" class="cls-1" d="M37.47,54.31H11.97c-.64,0-1.19-.52-1.19-1.19v-5.32c0-7.1,5.76-12.86,12.86-12.86h2.15c7.1,0,12.86,5.76,12.86,12.86v5.34c0,.64-.54,1.16-1.19,1.16h0ZM13.16,51.96h23.15v-4.16c0-5.79-4.7-10.51-10.51-10.51h-2.15c-5.79,0-10.51,4.7-10.51,10.51v4.16h.02,0Z"/>
        <path id="_381945176" data-name=" 381945176" class="cls-1" d="M9.1,80.48c-.12,0-.25-.02-.37-.07-.62-.2-.94-.89-.74-1.48l3.34-9.74c.69-2,2.42-3.34,4.3-3.34h18.97c2.15,0,4.06,1.63,4.62,3.98l2.23,9.2c.15.62-.22,1.26-.87,1.41-.62.15-1.26-.22-1.41-.87l-2.23-9.2c-.32-1.31-1.26-2.2-2.32-2.2H15.66c-.89,0-1.73.69-2.08,1.76l-3.34,9.74c-.2.52-.64.82-1.14.82h0Z"/>
        <path id="_381944936" data-name=" 381944936" class="cls-1" d="M17.86,77.59c-2.47,0-4.48-2-4.48-4.48s2-4.48,4.48-4.48,4.48,2,4.48,4.48-2,4.48-4.48,4.48ZM17.86,70.96c-1.19,0-2.13.96-2.13,2.13s.96,2.13,2.13,2.13,2.13-.96,2.13-2.13-.96-2.13-2.13-2.13Z"/>
        <path id="_381945128" data-name=" 381945128" class="cls-1" d="M31.56,77.59c-2.47,0-4.48-2-4.48-4.48s2-4.48,4.48-4.48,4.48,2,4.48,4.48-2,4.48-4.48,4.48ZM31.56,70.96c-1.19,0-2.13.96-2.13,2.13s.96,2.13,2.13,2.13,2.13-.96,2.13-2.13-.94-2.13-2.13-2.13Z"/>
        <path id="_381945344" data-name=" 381945344" class="cls-1" d="M18.06,91.64c-.64,0-1.19-.52-1.19-1.19v-11.15c0-.64.52-1.19,1.19-1.19s1.19.52,1.19,1.19v11.15c0,.67-.54,1.19-1.19,1.19Z"/>
        <path id="_381945104" data-name=" 381945104" class="cls-1" d="M31.78,91.64c-.64,0-1.19-.52-1.19-1.19v-11.15c0-.64.52-1.19,1.19-1.19s1.19.52,1.19,1.19v11.15c-.02.67-.54,1.19-1.19,1.19Z"/>
        <path id="_381944720" data-name=" 381944720" class="cls-1" d="M7.84,80.48c-.64,0-1.19-.52-1.19-1.19V6.33c0-.64.52-1.19,1.19-1.19s1.19.52,1.19,1.19v72.99c-.02.64-.54,1.16-1.19,1.16h0Z"/>
        <path id="_381944552" data-name=" 381944552" class="cls-1" d="M41.6,80.48c-.64,0-1.19-.52-1.19-1.19V6.38c0-.64.52-1.19,1.19-1.19s1.19.52,1.19,1.19v72.94c-.02.64-.54,1.16-1.19,1.16h0Z"/>
        <path id="_381944192" data-name=" 381944192" class="cls-1" d="M24.26,54.31c-.35,0-.67-.15-.92-.42l-3.51-4.25c-.42-.49-.35-1.24.15-1.66s1.24-.35,1.66.15l3.51,4.25c.42.49.35,1.24-.15,1.66-.22.2-.47.27-.74.27h0Z"/>
        <path id="_381944744" data-name=" 381944744" class="cls-1" d="M24.26,54.31c-.12,0-.25-.02-.35-.05-.62-.2-.96-.87-.77-1.48l4.33-13.78c.2-.62.84-.96,1.48-.77.62.2.96.87.77,1.48l-4.33,13.78c-.17.49-.64.82-1.14.82Z"/>
        <path id="_381944768" data-name=" 381944768" class="cls-1" d="M24.46,28.81h-.02c-.94-.02-1.73-.59-2.05-1.46l-2.57-7.07c-.57-1.56-.4-3.24.47-4.65.84-1.36,2.23-2.25,3.78-2.4h.12s.15-.02.27-.02h.25c1.76,0,3.39.87,4.33,2.35.92,1.41,1.04,3.14.32,4.7l-2.79,7.17c-.37.82-1.19,1.39-2.1,1.39h0ZM24.26,15.56c-.82.1-1.56.57-2,1.31-.49.79-.59,1.73-.27,2.6l2.47,6.75,2.7-6.88s.02-.05.02-.05c.52-1.14.12-2.05-.15-2.5-.52-.79-1.39-1.26-2.35-1.26h-.22s-.12.02-.2.02h0Z"/>
      </g>
    </g>
  </g>
</svg>