<?xml version="1.0" encoding="UTF-8"?>
<svg id="Layer_2" data-name="Layer 2" xmlns="http://www.w3.org/2000/svg" xmlns:xlink="http://www.w3.org/1999/xlink" viewBox="0 0 117.83 94.2">
  <defs>
    <style>
      .cls-1 {
        fill: #939393;
      }

      .cls-2 {
        fill: #aaa;
      }

      .cls-3 {
        fill: #3b3b3b;
      }

      .cls-4 {
        fill: #474747;
      }

      .cls-5 {
        fill: #7f7f7f;
      }

      .cls-6 {
        stroke: #000000;
        stroke-miterlimit: 10;
        stroke-width: 2px;
      }

      .cls-6, .cls-7 {
        fill: none;
      }

      .cls-8 {
        fill: #252525;
      }

      .cls-9 {
        fill: #4a4a4a;
      }

      .cls-10 {
        fill: #5d5d5d;
      }

      .cls-11 {
        fill: #454545;
      }

      .cls-12 {
        fill: #484848;
      }

      .cls-13 {
        fill: #a1a1a1;
      }

      .cls-14 {
        fill: #333;
      }

      .cls-15 {
        fill: #7b7b7b;
      }

      .cls-16 {
        fill: gray;
      }

      .cls-17 {
        fill: #313131;
      }

      .cls-18 {
        fill: #989898;
      }

      .cls-19 {
        fill: #575757;
      }

      .cls-20 {
        fill: #2b2b2b;
      }

      .cls-21 {
        fill: #9c9c9c;
      }

      .cls-22 {
        fill: #a7a7a7;
      }

      .cls-23 {
        fill: #626262;
      }

      .cls-24 {
        fill: #8b8b8b;
      }

      .cls-25 {
        fill: #a3a3a3;
      }

      .cls-26 {
        fill: #434343;
      }

      .cls-27 {
        fill: #676767;
      }

      .cls-28 {
        fill: #414141;
      }

      .cls-29 {
        fill: #848484;
      }

      .cls-30 {
        fill: #686868;
      }

      .cls-31 {
        fill: #a9a9a9;
      }

      .cls-32 {
        fill: #636363;
      }

      .cls-33 {
        fill: #747474;
      }

      .cls-34 {
        fill: #b1b1b1;
      }

      .cls-35 {
        fill: #606060;
      }

      .cls-36 {
        fill: #515151;
      }

      .cls-37 {
        fill: #b9b9b9;
      }

      .cls-38 {
        fill: #444;
      }

      .cls-39 {
        fill: #9d9d9d;
      }

      .cls-40 {
        fill: #717171;
      }

      .cls-41 {
        fill: #262626;
      }

      .cls-42 {
        fill: #ccc;
      }

      .cls-43 {
        fill: #646464;
      }

      .cls-44 {
        fill: #4b4b4b;
      }

      .cls-45 {
        fill: #6c6c6c;
      }

      .cls-46 {
        fill: #505050;
      }

      .cls-47 {
        fill: #363636;
      }

      .cls-48 {
        fill: #3c3c3c;
      }

      .cls-49 {
        fill: #b5b5b5;
      }

      .cls-50 {
        fill: #656565;
      }

      .cls-51 {
        fill: #707070;
      }

      .cls-52 {
        fill: #a0a0a0;
      }

      .cls-53 {
        fill: #afafaf;
      }

      .cls-54 {
        fill: #ababab;
      }

      .cls-55 {
        fill: #555;
      }

      .cls-56 {
        fill: #4d4d4d;
      }

      .cls-57 {
        fill: #919191;
      }

      .cls-58 {
        fill: #888;
      }

      .cls-59 {
        fill: #4c4c4c;
      }

      .cls-60 {
        fill: #494949;
      }

      .cls-61 {
        fill: #aeaeae;
      }

      .cls-62 {
        fill: #828282;
      }

      .cls-63 {
        fill: #b8b8b8;
      }

      .cls-64 {
        fill: #9e9e9e;
      }

      .cls-65 {
        fill: #323232;
      }

      .cls-66 {
        fill: #5e5e5e;
      }

      .cls-67 {
        fill: #5b5b5b;
      }

      .cls-68 {
        fill: #757575;
      }

      .cls-69 {
        fill: #565656;
      }

      .cls-70 {
        fill: #767676;
      }

      .cls-71 {
        fill: #4e4e4e;
      }

      .cls-72 {
        fill: #929292;
      }

      .cls-73 {
        fill: #666;
      }

      .cls-74 {
        fill: #b3b3b3;
      }

      .cls-75 {
        fill: #969696;
      }

      .cls-76 {
        fill: #909090;
      }

      .cls-77 {
        fill: #8a8a8a;
      }

      .cls-78 {
        fill: #464646;
      }

      .cls-79 {
        fill: #7e7e7e;
      }

      .cls-80 {
        fill: #a4a4a4;
      }

      .cls-81 {
        fill: #a8a8a8;
      }

      .cls-82 {
        fill: #858585;
      }

      .cls-83 {
        fill: #959595;
      }

      .cls-84 {
        fill: #404040;
      }

      .cls-85 {
        fill: #979797;
      }

      .cls-86 {
        fill: #8c8c8c;
      }

      .cls-87 {
        fill: #999;
      }

      .cls-88 {
        fill: #525252;
      }

      .cls-89 {
        fill: #8e8e8e;
      }

      .cls-90 {
        fill: #3e3e3e;
      }

      .cls-91 {
        fill: #9a9a9a;
      }

      .cls-92 {
        fill: #585858;
      }

      .cls-93 {
        fill: #595959;
      }

      .cls-94 {
        fill: #4f4f4f;
      }

      .cls-95 {
        fill: #5a5a5a;
      }

      .cls-96 {
        fill: #949494;
      }

      .cls-97 {
        fill: #5f5f5f;
      }

      .cls-98 {
        fill: #b0b0b0;
      }

      .cls-99 {
        fill: #6d6d6d;
      }

      .cls-100 {
        fill: #b2b2b2;
      }

      .cls-101 {
        fill: #5c5c5c;
      }

      .cls-102 {
        fill: #acacac;
      }

      .cls-103 {
        fill: #bbb;
      }

      .cls-104 {
        fill: #9f9f9f;
      }

      .cls-105 {
        fill: #2c2c2c;
      }

      .cls-106 {
        fill: #616161;
      }

      .cls-107 {
        clip-path: url(#clippath);
      }

      .cls-108 {
        fill: #b7b7b7;
      }

      .cls-109 {
        fill: #535353;
      }

      .cls-110 {
        fill: #6a6a6a;
      }

      .cls-111 {
        fill: #8d8d8d;
      }
    </style>
    <clipPath id="clippath">
      <ellipse class="cls-7" cx="52.15" cy="20.02" rx="37.92" ry="14.53"/>
    </clipPath>
  </defs>
  <g id="Layer_1-2" data-name="Layer 1">
    <g>
      <path class="cls-6" d="M32.36,78.2v6.95c0,.56,1.23,1.01,2.74,1.01h0c1.51,0,2.74-.45,2.74-1.01v-6.89l-5.49-.06Z"/>
      <path class="cls-6" d="M26.7,75.89v10.82c0,.77,1.23,1.4,2.74,1.4h0c1.51,0,2.74-.63,2.74-1.4v-9.58l-5.49-1.24Z"/>
      <path class="cls-6" d="M46.76,77.27v13.91c0,1.11,1.23,2.02,2.74,2.02h0c1.51,0,2.74-.9,2.74-2.02v-13.79l-5.49-.12Z"/>
      <path class="cls-6" d="M70.4,77.27v9.43c0,.66,1.23,1.2,2.74,1.2h0c1.51,0,2.74-.54,2.74-1.2v-9.35l-5.49-.07Z"/>
      <ellipse class="cls-6" cx="52.36" cy="19.91" rx="43.88" ry="18.91"/>
      <path class="cls-6" d="M96.17,19.05c.11.53-.28,1.36-.39,1.8-2.21,8.27-19.64,18.91-43.88,18.91-22.98,0-39.75-9.51-42.56-16.14l-.72-.18.48,27.71c.25,14.51,12.08,26.13,26.59,26.13h33.88c14.69,0,26.6-11.91,26.6-26.6v-31.63Z"/>
      <g class="cls-107">
        <g>
          <path class="cls-60" d="M112.45,20.66c2.36.25,2.48,3.61,2.39,5.32-.32.32-1.42,2.09-1.2,2.66l-1.49-1.06-1.49,1.06c-1.37-.65-2.59-1.94-2.39-3.19-1.48.91-2.78.85-3.9-.19l-1.49-.34c-1.08-.32-1.08-.67,0-1.06-1.44-1.15-.38-2.09,1.2-1.06,1.43-.26,2.59-.98,3.47-2.16l1.31.03c.77-1.31,2.65-1.04,3.59,0Z"/>
          <path class="cls-50" d="M110.66,12.68c.23.12,1.17-.15,1.75.29.78.58,1.03,1.88,2.44,1.85l-1.19,1.05c4.17,1.46,4.1,3.21,4.18,6.92-.14.09-1.1,1.44-1.79,2.13-1.97.36-1.32-2.35-.83-3.83-1.29-.49-1.82-1.16-1.56-2.02-1.44,1.11-3.52-.86-2.39-2.13-.94.93-1.7.22-1.31-.98,1.34-.1,1.57-.83.71-2.21-1.34-.06-1.31-.79,0-1.06Z"/>
          <path class="cls-15" d="M113.65,19.06c1.08.67,2.87.98,2.99,1.08.22.2-1.48,4-.6,4.77-.43.42-.89.76-1.2,1.06-3.46-.83-.59-1.26-.61-1.86-.01-.38-2.02-1.06-2.38-1.6,2.12-.46.45-.97.6-1.86-1.6-.84-.41-2.1,1.2-1.6Z"/>
          <path class="cls-110" d="M50.85,2.58c.89.9,1.09,2.32.6,4.25-.88.95-1.97.76-1.95-.42l-1.04-.12-.64-.35c.21-1.52-.21-2.28-1.15-3.37,2.38-.43,1.8-.6,2.99-1.06.17-.06.42.06.6,0l.6,1.06Z"/>
          <path class="cls-11" d="M108.26,25.44c.88,1,2.32.98,2.39,1.08s-.35.75,0,2.11c.15.55.28,1.1.6,1.6-.63,0-1.13.02-1.79,0-2.72-.81-3.32-1.7-1.79-2.66-2.1-1.16-1.34-2.48.6-2.13Z"/>
          <path class="cls-68" d="M.01,23.32c.5-1.85,1.3-1.14,2.39,2.13.5-.03.9.16,1.2.53.94-1.68,2.47.4,1.35,1.38.79,1.02.64,2.27.45,3.41,1.42,1.06.51,2.4-1.2,1.6h-.6C3.45,30.85.12,27.11.01,23.32Z"/>
          <path class="cls-86" d="M84.34,5.77c1.17-1.17-1.31-2.59,1.48-2.12,1.78.3,1.86,1.65,3,2.65.05-2.16,1.95-2.25,3.12-.64,1.02,1.4,1.27,1.07,1.36,1.17,1.1-.19,1.7.7,1.79,2.66,1.72-.31,1.86,1.49,0,1.06-2.71.72-.64,5.12.51,7.17-.23.99-.55,1.74-1.71,1.33-.48.44-.68.26-.6-.53-.27,1.33-.67,1.33-1.2,0-1.48.98-2.08.1-1.79-2.66-.52-.15-.51-.33,0-.53-.39-2.06,1.54-.62,1.19-.58-1.63.15-2.69-.7-2.99-2.07-.2.45-.4.45-.6,0-1.06.1-1.48-.68-1.27-2.32-2.3.16-2.93-3.17-2.32-4.59Z"/>
          <path class="cls-85" d="M84.34,5.77c.36,1.97-.58.75-.5.8.96.68,3.45,5.84,1.1,6.64,1.67.57,1.65,2.56.64,3.62,1.68.62,1.67,1.19-.04,1.7-.02.34-.21.52-.6.53-2.55,2.05-3.97-.97-1.79-1.6-1.82-1.54-1.96-4.08-1.65-6.13l-1.22-3.16c.62-1.06.58-1.87-.11-2.41.13-.63-.1-1.45,0-2.13.81-.7,3.55,1.53,4.18,2.13Z"/>
          <path class="cls-40" d="M72.38,2.58c.52.15.51.33,0,.53,1.34.72,1.67,2.34.6,3.19-.51,1.81-1.3,2.16-2.39,1.06l-2.39.53c-.14.45-.34.44-.6,0-.06.48-.27.45-.6,0-1.94.52-2.51-1.34-1.2-2.13-.98-.9-1.57-1.97-1.79-3.19,3.13-.75,5.35-.24,8.37,0Z"/>
          <path class="cls-86" d="M97.5,9.49c.08-.2.98-.43,1.06-.61.24-.54-1.4-1.75.43-1.51,1.57,1.1,2.43,1.97,1.5,3.71l1.79-1.06c1.22-1.42,3.14,2.28.6,2.13.69,1.38-.05,2.95-1.79,3.19.73.5.39,1.76-.6,1.6-1.68,1.01-2.48-.06-2.39-3.19-.33-1.93.76-1.25,1.65-.56-1.84.2-2.59-.85-2.25-3.16-.52-.17-.51-.35,0-.53Z"/>
          <path class="cls-30" d="M75.37,2.58c3.68,1.57,4.33,4.75,2.99,7.98.52.15.51.33,0,.53,1.51,1.01.51,1.67-1.2,1.06-.23,1.39-.66,1.31-1.2,0-1.22.24-1.55-1.59-.6-2.13-1.17-.12-1.26-.84-.26-2.14l-1.46-.78c.2-1.4.01-3.1-1.28-3.99v-.53c.96.08,2.07-.12,2.99,0Z"/>
          <path class="cls-88" d="M104.08,9.49c2-.3,4.21.77,5.83,1.75.44.27.56,1.34.75,1.44v1.06c2.89,1.51-2.23,4.69-1.79,0-.62,0-1.02.35-1.2,1.06,1.01,1.25.35,1.77-1.2,1.06-.3,1.42-.7,1.35-1.2,0l-.15-2.02c-1.15-1.58-1.5-3.04-1.04-4.36Z"/>
          <path class="cls-110" d="M62.21,2.05c2.33,1.12,1.03,3.05-1.2,1.6-.59.42-.92.24-1.3-.22,1.95,1.29.9,4.98-1.09,5.01-1.16.21-2.41-.89-1.67-1.82l-2.51-1.37c.29,1.38-.11,1.56-1.2.53-2.45,1.27-2.72-2.53-.6-3.19,2.95-.57,6.55-.83,9.57-.53Z"/>
          <path class="cls-85" d="M75.37,2.58c1.21.16,3.67.68,3.94,1.87.25,1.08-1.4,1.09.85,1.32,1.38,1.38.85,5.17-1.79,4.79l-1.2-2.65,1.79-.53c-1.85.15.02-1.97-2.98-1.61l1.19-1.05-1.79-2.13Z"/>
          <path class="cls-85" d="M96.9,9.49h.6c-.06.17.07.39,0,.53.74.65.93,1.89.6,3.72.98,1.03.93,3.36-.6,3.19.44-1.62,2.93.56,1.45,1.07l-.26,1.06c1.15.67,1.54,1.56,1.2,2.66.52.15.51.33,0,.53.91,2.95.51,3.84-1.2,2.66-2.87,1.51-3.29-2.11-2.99-4.25-1.58-1.18-.47-4.08,1.79-3.72-1.79,1.76-4.21.03-2.55-1.97-1.69-1.39-2.56-3.78.39-3.71.1,0-1.51.12-.24-.7,0-.09.54-.42.44-.75l-.44-.32c-.4-1.94,1.32-1.84,1.79,0Z"/>
          <path class="cls-52" d="M102.28,10.02c-.28-.85-.14-2.94,1.2-2.12-.86,1.18.48,1.37.6,1.59.7,1.38,3.01,5.61,1.2,6.38l-1.8.44c-.23-.08-.7-4.07-.59-4.16-.08-.3.45-.96.39-1.36-.08-.53-.95-.68-.98-.77Z"/>
          <path class="cls-86" d="M96.9,9.49c-.98-.86-1.42-.07-1.79,0-.64.13-1.2.28-1.79.53.02-.77.58-2.58,0-3.19-.24-2.64,4.24.56,3.59,2.66Z"/>
          <path class="cls-29" d="M64.01,2.58c2.8,1.06,1.46,1,1.79,3.19-.68.13-1.28-.05-1.79-.53-.68.82-1.47.64-2.39-.53-1.12.29-1.47-.38-.6-1.06,1.6.25,1.22-.34,1.2-1.6,1.15.11,1.04.24,1.79.53Z"/>
          <path class="cls-89" d="M52.64,2.58c.26,1.6-1.39,2.52.6,3.19.15.48-.05.66-.6.53.62.75.28,1.02-.6.53-.17.46-.37.46-.6,0l-1.79-1.6,1.19-.53-1.2-.79c.92.11,1.12-1.29,1.2-1.33.3-.14,1.28.1,1.79,0Z"/>
          <path class="cls-5" d="M107.67,27.57c-.09,1.75,2.12,1.1,1.79,2.66-2.36-.06-8.81.51-13.16.53-1.59-.17-1.52-.66,0-1.06-.22-.45-.22-.8,0-1.06,1.94-.87,3.72-2.13,5.35-3.79l1.23.6c1.83-.88,3.96.86,4.78,2.13Z"/>
          <path class="cls-38" d="M99.89,34.48c-.28,2.89-3.13,2.26-5.38,3.72l-2.35-.92c-1.85.52-3.46.47-4.83-.15-1.6-.7-.97-1.49.6-1.6.17-.46.37-.46.6,0,.32-1.41,4.16-1.05,5.61-.59.13.04-2.71-.08-2.02-1-.69-1.4,3.34-1.48,3.82-1.44,1.47.14,3.06,1.7,3.96,1.97Z"/>
          <path class="cls-36" d="M87.93,27.04c.73.12,1.52.12,2.39,0,1.89-2.12,5.91-.41,2.99,1.6,1.59,1.06,1.79,1.77.6,2.13-2.95-.06-4.87-.18-7.77-.53l-.07-.65c-.62-2.03-.4-2.87.67-2.54.36-1.03.89-1.05,1.2,0Z"/>
          <path class="cls-81" d="M84.94,19.06c2.12-1.03,2.75.22,1.89,3.73.75,1.14,1.28,3.75-.1,4.24-.15.35-.59.72-.6.81-.04.2,2.59.05,0,2.38-.2-.02-.41.03-.6,0-.35,1.03-.88,1.04-1.2,0-.43-.87-2.26-6.76-1.92-7.41.28-.52,1.79-.73,1.9-.44.3.72-1.74.99.02-.66-1.9-1.32-1.89-2.91.6-2.66Z"/>
          <path class="cls-90" d="M84.34,30.23c.33.08.82-.06,1.2,0l.6,1.6c-.25,1.2-2.36,1.05-2.99,0-.33,1.71-3.92,1.3-3.59-.53-.71-.29-.51-.47.6-.53-.39-1.6,1.07-1.66,2.39-1.06,1.14-1.09,1.63-.96,1.79.53Z"/>
          <path class="cls-39" d="M86.14,31.83c.21.03,1.01.4,1.79.53,2.08.91.84,1.5-.6,2.13.23,2.42-4.5,1.33-2.53-.25l-.46-.81c-1.54,1.35-3.27-.71-1.2-1.6.96.08,2.08-.12,2.99,0Z"/>
          <path class="cls-72" d="M92.12,33.95c.49.02,1.63.69,2.59.54.18-.03,1.04-1.96,2.19-1.07.18.14-1.42,1.73-1.82,1.88-1.01.39-4.86-.5-6.56.24-1.71-1.87.64-3.03,2.39-1.6.19,0,.99,0,1.2,0Z"/>
          <path class="cls-75" d="M93.31,28.63c1.06-2.93,3.2-1.83,2.99,1.06v1.06c-.8,0-1.6.02-2.39,0v-.72c-2.24-.78-.64-1.06-.6-1.41Z"/>
          <path class="cls-71" d="M87.93,32.36c1.18.2,2.35.56,3.59.54l-.6,1.06c-.72.03-1.44.4-2.39,0v1.6h-.6c-1.59.24-1.72-.02-.6-1.06,0-.4.84-1.42.6-2.13Z"/>
          <path class="cls-45" d="M102.28,34.48l-.88.54-.32-.54c.35.04.84.04,1.2,0Z"/>
          <path class="cls-43" d="M13.17,12.15c2.32.09,1.99,4.63,1.62,6.23.86.58.32.99-1.62,1.21-.72,1.52-1.28.74-1.79-.53-.64-.25-1.24-.61-1.79-1.06-.19,1.6-1.79,1.45-2.39,0-.87-.1-.87-.63,0-1.6-.86.57-.99.38-1.2-.53,1.41-1.85,1.35-1.64,3.59-2.13.89.14.83.76.52,1.45-.05.11-.38-1.5.67-1.45.1-.08,0-.95.6-1.33.66-.42,1.56-.15,1.79-.27Z"/>
          <path class="cls-85" d="M26.33,6.3c3.01-.98,2.76,2.82,1.79,4.25l.49,2.05c1.15,1.31.97,3.74-1.09,4.34.08,1.4-.72,1.5-1.79.53-.27.14-.53.24-.75.19-.35-.08-.85-5.4-.45-6.04-.94-1.71-.69-2.43,1.08-1.62l.11-.51c-1.9-1.4-2.1-2.46-.6-3.19.31-.09.87.09,1.2,0Z"/>
          <path class="cls-27" d="M7.19,16.4c-.29,1.43-.89,2.14-1.79,2.13-1.47,1.55-1.4-1.68-.52.26.53,1.16.32,2.95-1.28,2.4-.66.64-.85,1.91-.57,3.82l-.62.43c-.2-.18-1.88.38-1.2-2.13-.37.05-.95-.08-1.19,0-.04-1.32-.07-2.17.67-3.39.14-.23,2.23-2.84,2.41-2.93.72-.37,2.13.57,2.29.48.08-.05.23-1.1.61-1.6.59-.05,1-.07,1.2.53Z"/>
          <path class="cls-50" d="M21.54,7.9c.26-.13.52-.23.74-.18.53.1.65,7.85.46,9.22-.49.43-1.2.23-1.79,0-.12.47-.32.45-.6,0-1.01,1.12-1.35.88-1.2-.53-1.29-.95-1.09-6.5-.74-6.3.46.26-.15.56-.45-.61,1.46-.7,1.89-.96,3.59-1.6Z"/>
          <path class="cls-52" d="M14.37,11.62c1.73-.42,2.78,2.26,1.79,3.19.54.12.53.3,0,.53.73.15,1.25.6.6,1.06.54.13.53.31,0,.53l-.25.92c.3.73,1.11,3.35-.35,4.93.75.77.41,1.05-.6.53-.12.56-.52.56-1.2,0-1.44.66-1.7.13-1.2-1.06l.47-.52c-1.6.03-2.01-2.06-.17-1.77l-.3-.37c1.67-.77,1.86-1.39,0-1.86.28-.33,1.44-1.07,1.2-1.33-.19-.2-1.43.44-1.2-.53l1.19-.53-1.79-.53c2.07.2-.28-1.02,1.8-1.34l-1.2-1.33c.43-.21.96-.4,1.2-.53Z"/>
          <path class="cls-57" d="M23.34,8.96c.9.71,1.3,1.59,1.2,2.66-.41,2.18-1.17.55-.78.56,1.13.06,2.41,5.14.18,4.75-.19,1.41-.74,1.35-1.2,0l-1.8-1.33c3.13-1,0-1.4-.01-1.6-.02-1.12,3.2-2.64-.58-2.4l1.79-.53c.26-.94-1.03-.35-1.19-.53-.57-.65,1.74-1.71.59-2.66.41-.15.79-.39,1.2-.53,1.46-.62,2.46,1.42.6,1.6Z"/>
          <path class="cls-1" d="M17.96,9.49c2.05-.23.83.54.92,1.33.22,1.99,1.12,3.76.28,5.58-.58,1.04-1.47.58-1.2-.53-.74.21-1.29-.03-1.79-.53-.07-.14.07-.37,0-.53-.41-1.63-.21-3.22.6-4.79.41-.2.8-.34,1.2-.53Z"/>
          <path class="cls-51" d="M40.68,3.64c.52.15.51.33,0,.53l1.03.66c.02.14-1.04,1.59-1.63,1.46l-1.17-.02c1,1.89.43,3.89-1.82,2.67-1.06.99-1.85.46-2.39-1.6.32-.7.3-1.4-.07-2.09l1.27-.57c1.94-.51,2.04-.65,4.78-1.06Z"/>
          <path class="cls-75" d="M46.66,2.58c2.45.99,1.38,2.45,1.79,3.72,2.54,0,2.44,1.13.6,2.13,1.37.88,1.06,1.31-.6,1.06-1.64,1.89-4.05-.75-2.99-2.66.77-1.4.64-2.55-.41-3.45l.41-.81c.36-.07.83.07,1.2,0Z"/>
          <path class="cls-99" d="M45.47,2.58c.17.79,1.52.87,1.72,1.33.05.11.13,2.25.03,2.33-.13.11-1.11.07-1.75.59.83.71.47,1-.6.53-.18.26-.38.25-.6,0-1.4-1.11-1.67-1.95-.82-2.53-1.28-.56-1.07-1.18.22-1.72.28-.05,1-.39,1.79-.53Z"/>
          <path class="cls-23" d="M28.72,5.77c2.14-.3,2.94.94,2.39,3.72.88,1.28-1.09,2.02-2.39,1.6-.28.43-.48.26-.6-.53,0-.08-.53-.63-.62-1.29-.21-1.5.85-3.37-1.17-2.96.98-.27,1.59-.34,2.39-.53Z"/>
          <path class="cls-43" d="M16.76,10.02c2.16.83.44,1.37,0,2.65l1.19.53-1.79,1.6c-.32-.74-1.45-2.19-1.79-3.19.14-.08.87-.83,2.39-1.6Z"/>
          <path class="cls-77" d="M30.52,5.24c2.71-.94,3.47,1.98,1.2,2.66,2.41.36,1.46,2.58-.6,1.6-.52-.52-1.26-.82-1.79-1.33l1.19-.79-1.79-1.6c.56-.13,1.15-.38,1.79-.53Z"/>
          <path class="cls-57" d="M43.67,3.11l.6,4.25c-.87.77-1.38.55-1.2-.53-2.03,1.28-2.37-1.12-2.39-2.66v-.53c.93-.14,1.99-.37,2.99-.53Z"/>
          <path class="cls-23" d="M32.91,4.71c2.3.3,2.89,1.18,1.79,2.66-.09.38-.49.55-1.2.53-.27,1.48-1.22,1.37-1.79,0,.09-1.12.8-3.02-1.2-2.66,1.16-.28.3-.45,2.39-.53Z"/>
          <path class="cls-87" d="M10.78,13.75c.27.44.74,3.09.6,3.19-.55.38-2.78-.87-2.93-1.12-.17-.29,1.06-1.53,1.14-2.07.36-.08,1.07.1,1.2,0Z"/>
          <path class="cls-50" d="M25.13,6.3c-1.2,2.26.16,1.3.89,2.11.38.42-.3.92-.29,1.08-1.13.67-2.3,1.12-2.39-.53.01-.53.17-1.47-.6-1.6.69-.23,1.46-.78,2.39-1.06Z"/>
          <path class="cls-1" d="M35.9,4.71c-.67,2.1.82,2.34-1.2,2.66-.56-.35-1.09-.58-1.79-.54l1.8-.79-1.8-1.33c.86-.03,2.36.17,2.99,0Z"/>
          <path class="cls-28" d="M99.89,22.25c1.58.14,2.57.67,2.99,1.6-.02.05.54.64,0,1.06.52.15.51.33,0,.53-.13.03-2.14,1.15-2.24,1.23-.8.71-.95,3.43-4.34,1.96-1.84-.76.61-4.4,2.39-3.72.19-.23.98-.4,1.19-.8.08-.19-2.91-.36,0-1.86Z"/>
          <path class="cls-79" d="M113.65,19.06c-.24.48-1.13,1.17-1.2,1.6-1.53.49-2.31.19-3.59,0-1.22,1.02-1.79,1.02-1.79-.53-2.9-1.29.83-2.61,2.99-2.13-.7-1.3-.29-1.66,1.2-1.06.76.72,1.47,1.56,2.39,2.13Z"/>
          <path class="cls-4" d="M107.07,20.13c.53.1,1.1.43,1.79.53l-2.76,3.16c-.55.09-1.52-.69-2.02-1.03-3.65.88-1.95-2.92.6-3.19,1.19-.86,2.14-1.01,2.39.53Z"/>
          <path class="cls-79" d="M104.67,19.6c-1.36,1.95-2.87,1.66-.6,3.19-.6.19-1,.52-1.2,1.06-1.28-.14-3.37-.06-2.99-1.6v-.53c.36-.81.79-1.49,1.79-1.6-.35-.87.24-1.22,1.79-1.06.51-.47,1.43-.2,1.2.53Z"/>
          <path class="cls-79" d="M102.88,24.91c1.29-.42,2.94.58,3.85.56.46,0,.01-1.68,1.53-1.09.1.31-.11.93,0,1.06-2.63,1.32.04.9.05,1.37.01.36-.65.66-.65.75-2.51.54-2.35-2.76-4.78-2.13v-.53Z"/>
          <path class="cls-79" d="M108.86,13.75c1.05,1.72,1.79,3.02,1.79,0,5.11.58.7,2.03.09,2.76-.12.14.53.41.51.43-.32.34-.79.86-1.2,1.06-1.37.19-2.37.02-2.99-.53-1.39.33-2.02-.88-.6-1.6.38-.12,1.04-1.05,1.2-1.06.24-.56.64-.91,1.2-1.06Z"/>
          <path class="cls-88" d="M51.45,6.83h.6c2.06.64,1.46,1.17-1.79,1.6-.34,1.01-.86,1.01-1.2,0,.12-.75.58-1.45.54-1.54-.05-.11-1.05-.33-1.14-.59,1.02-.75,1.97.1,2.99.53Z"/>
          <path class="cls-78" d="M5.4,18.53c.31-.18.59-.31.76-.24.53.22,1.17,9.48.73,10.13,1.06.99,1,2.63-.89,2.34-.19-.01-.54-.04-.6,0-2.08-.68.3-2.06-1.8-2.38.93-.83,1.71-2.2,0-2.4-.92-.72-1.05-4.01,0-4.79,2.11-1.73-.17-3.05,0-3.19l1.79.53Z"/>
          <path class="cls-96" d="M3.6,21.19v4.79c-.32-.04-.87.7-1.13.48-.22-.18.04-.91-.06-1.01.21-1.18-.3-2.9-.03-3.95.16-.63,1.1-.2,1.23-.31Z"/>
          <path class="cls-19" d="M95.11,10.56c.02.21.81.95.61,1.06-.39.21-1.79-.34-1.81.27l2.4,1.07-1.79.27c-.08.85.99.45,1.57,1.3.82,1.22-.75,1.15-.97,1.88.76.2,1.65.31,2.39.54-.63,1.2-2.28,1.7,0,1.6-.21,1.2-2.45-.45-1.79,2.12-.17.46-.37.46-.6,0-1.5.55-2.01-.57-1.2-1.6,1.51-1.36-.43-2.24-.46-2.39-.11-.44-.58-4.35-.5-4.7.35-1.45.35-1.64,2.16-1.43Z"/>
          <path class="cls-93" d="M84.34,5.77c.23.21-.7,1.65,2.39,1.07l-1.79.53v.52s1.8.27,1.8.27l-1.8.79,2.98.55v3.18c.01.63-.79.8-2.39.53-.17.46-.37.46-.6,0-.07-1.16-.02-2.25-1.2-2.39,2.31-1.83.46-1.09.16-1.41-.12-.14.29-.94.18-1.52-.09-.5-.88-1.06-.88-1.33,0-.36.93-.57,1.14-.79Z"/>
          <path class="cls-31" d="M93.91,19.06c.07.08,1.17,1.5,1.2,1.6.19.05.35.12.41.22.74,1.27,1.02,4.55-.61,5.35-1.2.59-3.45.13-2.8-1.33-.84.1-.83-.97-.6-1.6-.53-.15-.52-.32,0-.53-.16-2.25.44-3.66,1.79-4.25.51.15.4.31.6.53Z"/>
          <path class="cls-51" d="M93.31,18.53c-.74.87-.38,3.96-.62,4.25-.13.16-.92-.1-1.18,0-1.88-.32-2.3-1.27-1.2-2.66-.26-1.86.34-2.39,1.79-1.6.16-.05,1.02-.05,1.2,0Z"/>
          <path class="cls-24" d="M87.93,12.68c.19,0,.41-.02.6,0,.86.71,1.45,1.6,1.79,2.66v.53c-.19.45-.39.45-.6,0-.27,1.38-.69,1.3-1.2,0-2.39.64-3.39-.25-2.99-2.66.41-.79,1.61-.53,2.39-.53Z"/>
          <path class="cls-44" d="M90.32,15.87c.33.08,1.42,1.31,2.39,1.07v.52s-1.79.01-1.79.01v.52s1.19.54,1.19.54c-.45.14-1.46,1.15-1.79,1.6-1.67-.06-2.36-3.28-.6-4.25.21.02.43-.04.6,0Z"/>
          <path class="cls-44" d="M88.53,12.68c1.17.14,2.34,1.45,3.59,1.86.05.09-1.68.78-1.79.8-.55.08-1.22-.05-1.8,0v-2.65Z"/>
          <path class="cls-97" d="M80.15,5.77c.78.08,1.61-.06,2.39,0l-1.2.79,1.2.79-1.79.53,2.39.81-1.8.53c4.02,1.68-1.67,1.17,2.39,2.4l-1.79.53,1.21,1.33-1.2.79h1.8s-1.2,1.33-1.2,1.33l1.79.81c.14.51-.78.87-1.19,1.05-.52,1.71-1.03,1.78-2.39.53l-.97-.79c.53-2.57.27-4.04-1.42-6.12v-.53c1.4-1.21,1.46-3.17,1.79-4.79Z"/>
          <path class="cls-67" d="M87.93,18c1.24-.41,1.76-.34.96.59,1.14,1.69,1.22,3.79.24,6.32-.04.22-.44.4-1.2.53.94.07,1.03.9,0,1.06.52.15.51.33,0,.53-.31-.08-.82.06-1.2,0,.83-1.97-.64-.7-.63-1.36,0-.46.66-1.07.65-1.54,0-.34-1.01-.22-1.1-.55-.23-.85.66-4.37.48-4.53-.12-.11-.85.08-1.2,0,.21-.17.35-.39.6-.53.3-1.42,1.14-1.32,2.39-.53Z"/>
          <path class="cls-4" d="M85.54,13.21l2.39,1.07-1.8.79,2.4.8c.89,1.41.69,2.12-.6,2.13-.64.26-1.9.25-2.39.53,1.37-1.63-1.54-.5-.11-2.6-2.2-.07-.33-.47-.14-1.38.09-.42-.33-.93-.35-1.34h.6Z"/>
          <path class="cls-9" d="M83.14,17.47c2.07-.12,1.41.83-.6.54-.18.78,1.46.83,2.39,1.06-.37.3-.64,1.04-1.19,1.33,2.26.59.58,1.09.6,1.33-1.13.76-1.48.87-1.79-.53-2.2-.03-2.21-1.03-1.79-2.66-.52-.15-.51-.33,0-.53.71-.23,1.76-.25,2.39-.53Z"/>
          <path class="cls-25" d="M67.6,7.9c1.29.17,1.25.62,0,1.06-.25.23-.25.4,0,.53,1.43,1.38,2.21,3.53,1.2,5.32,1.41.97.68,3.17-1.2,3.19-1.26,2.07-2.73.11-1.79-1.6-1.15-1.38-1.35-2.98-.6-4.79-1.48-1.28-1.68-2.35-.6-3.19.34-1.55,1.18-1.49,2.39-.53.19-.03.4,0,.6,0Z"/>
          <path class="cls-97" d="M72.98,6.3c1.77-.54,2.65,2.65,1.2,4.25,1.54.67,1.76,5.1-.6,3.72-.33,1.37-.68,1.33-1.2,0l-1.38-.23c.23-2.22.09-3.73-.41-4.56-.49-.11-1.07-1.78,0-2.13l2.39-1.06Z"/>
          <path class="cls-64" d="M72.38,3.11c2.98-.25,1.54,1.73,2.21,3.59.24.66,1.17.58,1.26.93.09.38-.54,2.01-.48,2.39.14,1.43-.09,1.58-1.2.53l-1.79-1.6,2.39-.53-2.39-1.06,1.19-.53-.6-.53c-.95-1.26.73-1.94-1.24-2.42l.64-.77Z"/>
          <path class="cls-91" d="M68.19,7.9c.07-.91.53-1.77.35-2.7-.15-.73-2.61-1.69-1.54-2.61,1.8-1.54,3.43,4.08,3.59,4.78.27,1.24,0,1.23,0,2.13-.44,1.77-3.11,1.3-2.39-.53-.01-.28,0-.5.09-.52,1.31-.41,1.43.66.17.03-.16-.08-.22-.3-.26-.56Z"/>
          <path class="cls-81" d="M65.8,5.77c.15.99-.06,1.72,1.2,2.13-.62.08-1.51.73-2.39.53-1.58-.05-2.44-4.08-.6-3.19.26.07,1.05-1.18,1.79.53Z"/>
          <path class="cls-59" d="M68.19,7.9c.8.14,1.65.19,1.79,1.06h-1.79c-.17.47-.37.46-.6,0,.07-.31-.05-.72,0-1.06.19,0,.42-.03.6,0Z"/>
          <path class="cls-35" d="M102.88,12.15c.06.22,2.76,1.98,1.2,3.72.37-.04.99.09,1.2,0,.15,1.1-.14,1.75-.95.92-.63-.65,4.41.46-.25,1.74-.15.44-.35.43-.6,0-2.6,2.18-2.47-.41-2.07-2.53l-.32-.66c.36-1.08.86-2.4,1.79-3.19Z"/>
          <path class="cls-18" d="M101.09,15.34c2.33-.37.37,1.29.7,1.54.69.51,1.95-.7-.1,1.65.58.07,1.24-.08,1.79,0,.52.15.51.33,0,.53-.09.92-1.74.98-1.79,1.06-.94,1.35-2.75.35-2.39-1.06-1.1-2.04-1.06-2.78,1.47-1.73l-.28-.4c.01-.17.46-1.18.6-1.6Z"/>
          <path class="cls-66" d="M98.1,13.75c.87.16,1.75-.13,2.39.8.09.21-4.15,1.35,0,2.39,0,.04.72.14.61.52-1.83-.18-2.05-.05-1.8,1.6-.17.46-.37.46-.6,0-.02-1.94-.03-1.76-1.2-2.13,1.23-2.36-.77-1.37-.6-1.86.55-.26.86-1.09,1.19-1.33Z"/>
          <path class="cls-56" d="M97.5,10.02l2.39,1.07-1.8.79,1.8,1.32c-.71-.05-1.25.14-1.79.54-2.12-.39-.04-.35-1.79-1.87,1.6-.45.6-.64,1.19-1.86Z"/>
          <path class="cls-104" d="M75.97,12.15c2.11.56,2.41,3.4,1.2,4.79,1.35.42,1.33,2.84-.6,2.66-.73.82-2.27-.3-1.2-1.06-2.22-1.18-2.81-2.6-1.79-4.25l.59-.27c.4-1.38-1.36-.28-1.18-1.32,1.93.29.92-1.34,1.19-2.13.04-.11.94-.35,1.2-.53.05.34.45,1.29.6,2.13Z"/>
          <path class="cls-21" d="M78.36,11.09c.23-.06,2.29.48,2.36.57.06.07-.48.79-.36,1.2.56,1.87,1.15,3.07.39,5.15v.53c-.19.45-.39.45-.6,0-2.9-.08-2.79-.36-1.79-2.66-.43-1.27-.82-2.51-1.2-3.72.59-.03,1.11-1.04,1.2-1.06Z"/>
          <path class="cls-78" d="M77.16,12.15c1.35.49,3.99,1.86,1.19,2.39,2.14.61.99.46,0,1.33,0,.95-.15,1.47-1.2,1.06-.01-1.06-.89-3.08-1.2-4.79.36.06.93-.1,1.2,0Z"/>
          <path class="cls-98" d="M108.86,13.75v1.6c-.44.05-1.01-.55-1.2-.53-.48-1-1.46-2.03-.91-3.2.8-1.68,1.89,1.78,2.1,2.13Z"/>
          <path class="cls-91" d="M106.47,15.87l.6,1.6c.56,1.55-1.51,2.48-2.99,1.06l1.19-.8c-.51-.75-2.02-.52-1.79-1.33.74.12,1.21-.31,1.79-.54.27-.11.87.1,1.2,0Z"/>
          <path class="cls-75" d="M58.62,8.43c1.45-1.73-1.64-2.7,1.79-2.92-1.04-1.18-1.15-1.92-2.98-2.13,1.54-1.31,2.59-1.21,3.59.26.11.16.57.98.6,1.06,1.56.47,1.56,1.78.91,2.99,1.86,1.24,1.67,3.15.88,4.45,1.33.87,1.05,1.46-.6,1.6.99.97.38,2.06-1.2,1.6-1.61,1.52-2.39-.13-1.58-1.97-.59-1.29-.86-2.58-.81-3.88-1.56.47-1.75-.02-.6-1.06Z"/>
          <path class="cls-91" d="M54.44,5.24c.34-.22,1.3-.63,1.19-.8l-1.79-1.86h2.99c-1.05,1.71.68,4.24,1.79,5.85.19.27.25.63.6,1.06,1.12,1.78,1.95,7.78-1.2,5.32-2.56,1.46-3.41-2.51-1.79-4.25-1.78-.59-2.26-1.44-1.42-2.56-.74-.88-1.55-2.05-.37-2.76Z"/>
          <path class="cls-35" d="M64.01,5.24l-.59.52c1.6-.27.88,1.15,1.19,2.67.38,1.84,1.7,1.85.6,3.19.49,1.46-.78,1.69-1.79.53-2.71.28.39-1.3,0-1.59-.12-.09-1.23.18-1.21-.32.02-.38.69-1.03.56-1.23-.1-.16-1.62-.33-1.75-.86-.09-.36,1.25-1.35.61-3.45l.28-.5c.72.09,1.63.91,2.11,1.03Z"/>
          <path class="cls-80" d="M52.64,6.3c2.68-.67,2.71,2.78,1.79,4.25.52,1.21-.51,1.41-.28.76s2.13.5.7,1.84c.84,1.09,2.03,3.67.18,4.31.72.74.42,1.02-.6.53-3.23.73-3.9-.98-2.99-3.72-.81-1.53-1.21-3.48-1.2-5.85.28-1.57,2.05-.34,2.39-.54.26-.15-.6-.84-.6-1.06,0-.4.52-.44.6-.53Z"/>
          <path class="cls-94" d="M54.44,5.24v1.06s2.39.55,2.39.55l-1.79.53,1.79,1.33-1.79.27c-.16.81,1,.56,1.52,1.06.26.25-.34.5-.33.53-.04,1.52-1.39,1.45-1.79,0-2.56-.76.41-1.72,0-2.12-.1-.1-.87.11-1.08-.07s1.31-1.57-.7-2.07c.17-.2.38-.37.6-.53.29-.22.85-.31,1.2-.53Z"/>
          <path class="cls-76" d="M87.33,37.14c.96-.06,2.34-.06,3.18-.2,2.42-.42,1.31-1.61,4,1.26-.18.12-.41.36-.6.53-.48-1.88-6.45.81-6.58-1.6Z"/>
          <path class="cls-93" d="M95.7,20.66l1.79,1.86-1.19.79,2.39,1.6c-.49.6-2.28,3.1-2.39,3.72-.06.31,0,.72,0,1.06-.83-1.71-.78-2.16-2.99-1.06.06-.52-.04-1.07,0-1.59-.96-.1-2.07.13-2.99,0-.98-.99-.15-1.43,1.2-1.6-.5-.71-.23-.99.6-.53.41.02,1.52,1.34,2.72,0,.15-.17.33-4.04.27-4.25h.6Z"/>
          <path class="cls-73" d="M84.34,33.42c.14.07,1.85-.93.6,1.59l2.39-.53c0,.26.59.8.6,1.06.01.59-.61,1.37-.6,1.6-.58.04-1.21.02-1.79,0-.15.69-.63.5-1.2,0-1.59.76-4.91-.94-2.99-2.13.12-1.34,1.66-1.86,2.99-1.6Z"/>
          <path class="cls-54" d="M89.72,27.04c.15-.47.35-.45.6,0-.1.3.11.97,0,1.06-.14.1-1.78-.9-2.39-1.06v-.53c.4-.86,1-.68,1.79.53Z"/>
          <path class="cls-23" d="M84.34,21.72c.03.37.76,1.02.6,1.59-1.18.03-2.14-.42-1.79,1.06l2.38.27-1.79.53,1.79,1.86-1.79.53,2.38,1.34-1.78,1.33c-.69-.16-1.12-.25-1.79-.53-.86.53-1.17.29-.6-.53-.93-.68-1.29-1.28-.12-1.63-.96-1.34-.87-1.83.12-3.15-1.95.32-1.67-3.07,0-2.66-.77-.78-.42-1.06.6-.53.35.16,1.42-.2,1.79.53Z"/>
          <path class="cls-109" d="M71.18,17.47c1.2,3.14,1.6,5.98,1.2,8.51.35.64.55.82.6.53-1.17-2.38-.77-3.44,1.2-3.19-1.34-.04-.56-1.55.6-1.06,1.64.28,2.38,1.67,2.23,4.17l.76.73c-.62,1.05-.55,2.64.6,3.08,1-1.06,1.48-.66,1.79.53-.2.11-.38.38-.6.53l.05,1.29c-.94.54-1.55,1.35-1.84,2.43l2.3.88c1.45-.25,2.87,1.48,1.29,1.78-2.44.56-2.19,2.28-2.95,2.92-.27.22-1.3-.05-2.01.25-.38.16-.3.91-.72.99-2.47.48-3.34-.75-3.89-2.55-.53-.14-.52-.32,0-.53.51-.58,1.05-1.11,1.6-1.57-1.55-.13-2.48-.67-2.79-1.62-2.31,2.09-5.04-1.59-1.79-2.13.38-1.79.22-3.28-.47-4.47l1.07-1.38c-1.36-.15-1.76-1.34-1.21-3.57l-.82-.32c.66-.83.88-2.64.04-3.51.69-1.21.76-1.93.2-2.18.23-.63,1.23-3.02,1.2-3.19.17-.46.37-.46.6,0,1.75-1.09,2.94,1.56,1.79,2.66Z"/>
          <path class="cls-35" d="M83.14,31.83c-.02.98.35,1.19,1.2,1.6-.55,1.12-1.74,1.39-2.99,1.6-.43,1.72-2.25.92-3.59,0-1.44-2.08.12-2.57,1.79-3.72.85.55,2.5.44,3.59.53Z"/>
          <path class="cls-56" d="M78.36,15.87c.9,1.84-.95,1.87,1.79,2.66.14,1.22-1.69.08-1.56.05,1.4-.41,2.12,1.41,2.16,2.61.68,1.32.55,2.95,0,4.25.48.86-.61.38-.52.34,1.51-.6,1.75,2.33,1.72,3.38.23.12.41.45.6.53-.59.67-1.8.74-2.39,1.06-.75.32-1.7-.54-1.79-.53-1.33.74-1.65-2.41-1.06-2.66-1.03-1.91-1.08-3.68-.14-5.32-1.21-1.1-1.91-3.47.23-2.37.05.03-.84.43-.83-.29.28-.66.61-2.01.6-2.66.4-.35.8-.71,1.2-1.06Z"/>
          <path class="cls-22" d="M9.58,18c.27-.04.89-.87,1.79-.53.13.42-.15,1.39,0,1.6,1.79.71,1.48,2.06.6,3.19,1.56.74,1.53,2.31,0,2.13,1.91,2.64,2.31,5.12,1.2,7.44,1.29.93.55,2.72-1.2,2.13-.08-.23-.42-.67-.6-1.06-.35-.46-1.35-.82-2.99-1.06-.52-.15-.51-.33,0-.53.16-.47.36-.46.6,0-.09-1.94-.09-3.89,0-5.85-.52-.17-.52-.35,0-.53-.45-1.79-.59-3.79-.41-6l1.01-.92Z"/>
          <path class="cls-80" d="M7.19,18l1.34.73c0,2.19.16,4.25.46,6.18-.1.11.1.43,0,.53-.65,2.05-.74.3-.27.48.77.31.46,4.07.27,5.37-.12.06-.38-.04-.6,0-.41.96-.87,1.01-1.2,0-.58-.05-1.13-.53-1.2-.53.66-.82,1.07-3.7-.59-3.2v-.52c1.98.12,1.67-1.03,0-1.33l1.19-1.32c-1.62.55-.89-3.64-.79-4.86.04-.53-.41-.95-.4-1,.15-.73.96-1.8,1.79-2.13.13.41-.09,1.11,0,1.6Z"/>
          <path class="cls-88" d="M9.58,18c.15.51.65,3.23.61,3.39-.16.63-1.46-.04-1.21.85l1.78,1.06c-1.26-.12-1.21.95-1.78,1.61-2.19-.02-1.53.75-1.39-.96.16-1.85-.06-4.11-.41-5.95.76-.08,1.69.12,2.39,0Z"/>
          <path class="cls-12" d="M13.17,19.6c.44.12,1.24-.09,1.79,0l-1.79,1.07c-.23.88.63.38.78.52,1.02.97.29,1.24-.79,1.06-.27,1.42-.55,1.27-1.2,0-.14-.92-.59-2.15-.6-3.19.05.07,1.43.43,1.79.53Z"/>
          <path class="cls-92" d="M28.72,11.09c2.63.17,4.82,5.94,2.39,7.44.62,1.34-.9,1.6-1.79.53-.53-.1-.51-.28,0-.53-1.45.44-2.1-.32-1.79-1.6-.02-1.3.89-2.19,1.19-2.93.19-.47-1.01-.08-1.1-.51-.08-.39.57-2.3.51-2.94.2.16.48.32.6.53Z"/>
          <path class="cls-36" d="M24.54,11.62c.72.56,1.77.64,2.39,1.33l-2.39.27,2.39,1.33-1.79.27c-.02,1.01,3.15.14,1.79,1.59-.3.32-2.8-.76-1.2,1.07.26,1.01-.21.96-1.2.53-.17.46-.37.46-.6,0-1.06-.37-1.12-.81,0-1.06,0-.62,1.49-.78-.6-1.33,2.36-1.9.44-1.05.08-1.42s.64-1.2.41-1.45c-.27-.29-2.68-.3.71-1.12Z"/>
          <path class="cls-70" d="M27.53,16.94c.62.09,1.64,1.03,1.79,1.6-.64.8-1.24,1.33-1.79,1.6-1.24,1.08-3.62-.72-2.99-2.13.41-.14.79-.4,1.2-.53.53-.17,1.18-.62,1.79-.53Z"/>
          <path class="cls-36" d="M25.73,9.49s.73.13.61.53l-1.8.27c.57.78,1.99.52,1.79,1.33-.56.09-1.32-.11-1.79,0-.48-.38-1.16-.63-1.39-1.22-.33-.84.19-1.12.2-1.44l2.39.53Z"/>
          <path class="cls-55" d="M20.95,16.94c2.05-.01,3.05,1.23,2.99,3.72.35,1.58.55,3.35.6,5.32.62,1.13.76,3.19,0,4.25v.53c-1.34.27-2.33.27-2.99,0-.72.23-1.12-.65-1.2-2.66-.2.33-.4.33-.6,0-.46-.21-.72-.56-.46-.96,1.04-1.56,1.75-2.71.07-4.25-.49-1.81-1.15-4.59.99-5.96.18.04.4-.03.6,0Z"/>
          <path class="cls-91" d="M17.96,15.87c.41.18.64.35,1.2.53.44.14,1.02.5,1.2.53l.59,1.59c-1.28-.63-1.34,1.76-1.15,2.33.32.94.43-.58.56,1.61.03.42.96.24,1.06.58.52,1.67-.83,3.66-1.67,5.06h-.6c-.87.69-1.2.38-.6-.53-.59-.02-.86-.76-.81-2.23-1.75-.55-.7-1.39.21-2.02-1.09-1.07-1.35-2.3-.78-3.69-1-.4-1.14-1.3-.42-2.69-.1-.11.09-.4,0-.53-.58-.81.35-.77,1.2-.53Z"/>
          <path class="cls-64" d="M22.74,16.94h1.2c0,.35,0,.71,0,1.06,1.3.68,1.83,2.23,0,2.66-.17-1.47,1.39-1.33,2.19-.27.42.56,1.43,7.45-.4,5.59-.47,1.38-.87,1.38-1.2,0-2.99,0,0-2.44-2.39-2.13l1.8-.53-1.21-1.33,1.2-1.33h-2.39c-.16-.97,3.18-.18,1.78-1.59-.41-.41-1.09.86-.76-.92.23-1.23-.97-.43-1.62-1.21.54.07,1.22,0,1.79,0Z"/>
          <path class="cls-23" d="M16.76,16.94c.17.19,1.56.72,1.19,1.06l-1.19.27c2.67,1.12,1.24,1.1,1.12,3.21-.07,1.29,2.8.46.07,1.84-1.02,1.26-1.82.99-1.79-.53-1.01-.94.04-2.89-.09-3.47-.07-.32-1.07-.23-1.07-.48.01-.39.57-2.39,1.76-1.9Z"/>
          <path class="cls-22" d="M15.56,23.32c2.78.74,3.26,2.91,1.79,4.79,1.23.99,1.1,1.51-.6,1.6.8.82.46,1.11-.6.53-.17.46-.37.46-.6,0-.52-.1-.49-.28,0-.53l-.6-.53c-.96-.69-1.56-1.93-1.79-3.72.05-.22.12-.42.27-.53.64-.5.02.58-.55-.2-1.14-1.58,0-2.24,1.47-1.4.31-.16.61-.33.9-.52l.3.52Z"/>
          <path class="cls-69" d="M17.96,23.32c.62.09.95.34,1.79,0l-1.79,1.07c-.19,1.04,1.49.29,1.8.53,1.07.83-.91,1.04-1.2,1.44-.23.31.12,1.05,0,1.21.76,1.34-.19,1.65-1.2.53v-2.66s-1.79.53-1.79.53c.84-.9-.11-2.15,0-2.65,0-.04.56-.53.6-.53.17-.02,1.25.45,1.79.53Z"/>
          <path class="cls-38" d="M13.17,22.25c.34.12.83.81,1.2,1.06-.38.2-.68.59-1.19.54v.52c2.67-.34,2.65,1.44,0,1.07-.93.92-1.44.02-1.2-1.06-.03-.14.55-.55.54-.82,0-.35-1.05-.17-1.07-.5-.01-.27.55-.66.53-.81.37.06.92-.09,1.2,0Z"/>
          <path class="cls-44" d="M17.96,15.87l-1.2.53c-.56-.84-.42-.7-.6-1.06.91-.25,1.26.3,1.79.53Z"/>
          <path class="cls-75" d="M34.7,7.37c.39.24,2.33,1.48,2.39,1.6,1.78-.43,1.97,2.54.6,3.19-.32,2.54.07,5.16,1.17,7.84l-1.17.67c.55,1.4-2.79.73-2.88.57-.57-1.05-.79-3.11-.71-4.29-.8-1.55-2.06-6.86-1.06-8.18.26-.35,1.81-.3,1.75-.24-.26.26-1.89.27-1.28-.63.16-.55.71-.45,1.2-.53Z"/>
          <path class="cls-85" d="M37.09,8.96c2.96-1.43-.03-1.69,0-1.84.08-.33.67-.87.79-1.48.14-.7-.27-1.43-.2-1.47,1.73-.81,1.87.83,2.39,2.12,1.81.11,1.7.77.85,1.96.85.7.82,4.28-1.45,3.89h-.6c-.34.99-.89.99-1.2,0-.57-.78-.34-2.7-.6-3.19Z"/>
          <path class="cls-97" d="M40.68,4.17c1.73.95,4.27.44.59,1.33.74.24,1.24,1,1.8,1.33,1.42,2.02,1.69,6.64-1.2,7.44-.17.46-.37.46-.6,0-1.37.03-1.62-.48-1.2-1.6l-.6-.53c1.06-1.78,1.38-3.92.6-5.85l.6-2.13Z"/>
          <path class="cls-88" d="M45.47,6.83l2.39,1.06-2.39.53,2.99,1.07c1.59.15,1.84.61.6,1.6.48,1.91.28,3.33-.6,4.25-1.47.98-2.29,1.33-2.99-.53-1.32-.15-1.23-.82-.81-1.78-.48-1.01-1.39-5.17-1.18-5.41.29-.33.87-.33,1.39-.26.11-.15.42-.39.6-.53Z"/>
          <path class="cls-97" d="M50.25,8.43c1.63.19,4.27.05,1.19,1.33.06.37,2.23.2,1.2,1.33-.18.19-1.43-.44-1.19.53l1.79,1.06c-1.71-.13-1.47,1.22-1.79,1.61.83.75.45,1.06-.6.53-1.8,1.8-2.56-.54-1.46-1.32-1.1-.54-1.34-1.72-.33-2.41-.06-.37-.56-.84-.6-1.6,0-.06.52-.57.6-1.06.39.03.81-.04,1.2,0Z"/>
          <path class="cls-85" d="M43.08,6.83c.37.22.81.34,1.2.53h.6c-1.59,2.1.79,1.41.6,1.86l-1.19,1.07,1.79.27-1.19,1.33c1.92.32.57,1.7.6,2.92,1.63.87,3.23,5.79,1.79,6.91-.15,1.27-.55,1.63-1.2,1.06-2.14,2.46-4.24-4.03-3.15-6.32-.9-.36-1.25-.91-1.04-1.65-.52-.18-.52-.36,0-.53.61-2.69,1.81-2.29-.6-4.78l2.08.54c1.66-1.33-2.22-1.37-2.08-1.87l1.79-1.33Z"/>
          <path class="cls-52" d="M31.11,9.49c1.41-1.17,2.9.19,1.53,1.14.84,1.72,1.13,3.87.86,6.3,1.42.69,1.06,2.48-.6,2.66-1.35.72-2.69.4-1.79-1.06-.67-.54.19-1.74-.1-2.03s-1.34.26-1.09-.62l1.79-.53-2.38-.55,1.79-.79c-1.98-.72-1.65-1.64-2.39-2.93.64-1.08,2.01-1.34,2.39-1.6Z"/>
          <path class="cls-46" d="M33.51,7.9c.35.06,1.81.55,1.8.8l-1.81.53,1.8,1.07-2.39.27,2.39,1.33-1.79.27,1.8,1.32-1.8.79,2.38.55-1.79,1.05,2.39.81-2.39.26c-.17.46-.37.46-.6,0-.13-.42-1.15-.52-1.18-.57-.2-.33.7-1.28.48-1.5-.18-.17-.99.03-1.09-.07-.31-.29,1.47-1.26,1.18-1.58-.08-.08-.84.09-1.02-.09s.54-2.21.37-2.74-.8-.57-1.13-.9c1.77-1.19.55-.94.6-1.6.57.06,1.27-.09,1.79,0Z"/>
          <path class="cls-46" d="M110.06,18c-1.65.85-3.21-.71-2.99,2.13-.82-.16-1.61-.38-2.39-.53-.34-.07-.77-.47-1.2-.53v-.53c.19.03.4,0,.6,0,3.53.14,2.04-.73,2.99-1.06.64-.23,2.21.43,2.99.53Z"/>
          <path class="cls-28" d="M99.29,19.06l2.39,1.06c-.52.79,1.29,1.55-1.79,1.6-.6,0-1.2,0-1.79,0l1.19-1.33c-2.26-.61-.59-1.07-.6-1.33h.6Z"/>
          <path class="cls-26" d="M14.97,31.83c.62-1.08,1.41-.48,1.79.53,1.71.35,1.09,2.22-.6,2.13-1.65,4.17-1.32,1.34-2.24,1.07-.55-.16-1.58.17-1.91-.05-.28-.19.09-1.19-.04-1.55.68-.33.59-2.08,1.2-2.13.46-.88,1.06-.88,1.79,0Z"/>
          <path class="cls-73" d="M18.55,30.23c2.89-.12,2.38,1.96,1.2,3.72,1.2,1.27.44,1.32-1.2,1.06-.08,1.38-.65,1.3-1.2,0-.38-.08-.8-.41-1.2-.53.25-.63.52-2.05.6-2.13-1-.85-1.2-1.56-.6-2.13.21-.14.5-.32.6-.53.75-1.24,1.81-.91,1.79.53Z"/>
          <path class="cls-40" d="M20.95,37.14c.58,1.08,1.58,1.61,2.99,1.6.58-1.47,1.91-.99,1.79.53.52.15.51.33,0,.53-.59.02-.45.2-.6.53-.59.1-1.33.2-1.79.53-.4-.48-3.96-1.6-4.19-1.6-.41-.57-.1-1.67-.6-2.13-.13-1.44,2.01-1.16,2.39,0Z"/>
          <path class="cls-84" d="M18.55,35.02c2.49-1.78,4.92,1.84,2.39,2.13h-2.39c-.19-.17-1.88.48-1.2-2.13.36.08.9-.09,1.2,0Z"/>
          <path class="cls-47" d="M8.39,31.83c.72.13,2.61-.22,2.98.02.19.12-.1.8.01,1.04-1.24-.77-2.64.05-3.59,0-.52-.44-.22-1.3.6-1.06Z"/>
          <path class="cls-25" d="M8.39,31.29v.53l-.6,1.06c-.9-.04-.58-.89-.6-1.6.35.03.88.05,1.2,0Z"/>
          <path class="cls-109" d="M32.91,37.67c.18-.45.38-.45.6,0h.6c.78.17,1.1.43.6,1.06.11.87-.07,1.78,0,2.66-.23-.3-2.41-.36-2.99-.53-.14.46-.34.44-.6,0-.56-1.26-.53-2.77.6-3.72.55-.59,1.02-.17,1.2.53Z"/>
          <path class="cls-40" d="M30.52,40.33c.64-.79.84-.61.6.53.17.06.41-.05.6,0l2.39,3.72-2.99-.53c1.33-2.06.02-1.33-1.21-2.35-.48-.4-1.95-1.49-.58-1.9.37-.35.76-.18,1.2.53Z"/>
          <path class="cls-44" d="M30.52,40.33c-.5-.17-.83-.39-1.2-.53-2.69-1.05-1.46.5-2.07.5-.29,0-.95-.52-1.52-.5v-.53c-.85-.75-.47-1.07.6-.53-.42-2.59,6.84-.9,4.19,1.6Z"/>
          <path class="cls-19" d="M91.52,23.32c.13.37.88.88.6,1.6-.3-.01-.47.47-.6.53-.62.32-1.02.32-1.2,0-.26-.44-.46-.97-.6-1.6-.7-.76-.39-1.06.6-.53.53-.26.93-.26,1.2,0Z"/>
          <path class="cls-41" d="M91.52,22.79c.06.15-.06.37,0,.53h-1.2c-.45-1.45.06-1.65,1.2-.53Z"/>
          <path class="cls-21" d="M89.72,15.87l.6,1.33c-2.28,1.82-.53,1.06-.17,1.42.06.06-.18.69.17,1.51.39.89.83,1.76,1.2,2.66-.51.2-.58.1-1.2.53-.23.16-.39.37-.6.53.94.44.49,1.19-.6,1.06l-1.79-1.6,1.79-.53-1.79-1.06,1.8-.53-1.2-1.07,1.2-.53c.14-.15-.93-1.19-1.2-1.59-.08-.11,1.26-1.03-1.79-1.07v-.52c.95.34,1.95-.49,2.39-.54.35-.04.84-.03,1.2,0Z"/>
          <path class="cls-63" d="M89.72,23.85c1.66-.25,1.47.49.6,1.6-.11,1.25-.59,1.04-1.2,0,.06.96-.83.81-1.2,0,.34-.62,1.13-.45,1.2-.53.39-.47.55-1.02.6-1.06Z"/>
          <path class="cls-9" d="M89.13,25.44c1.26,0,1.46.53.6,1.6-.45-.05-1.17-.57-1.79-.53.08-.32-.11-.86,0-1.06.39.03.81-.05,1.2,0Z"/>
          <path class="cls-62" d="M80.15,18.53c.21.02.43-.04.6,0,2.35.55-.4,1.67,1.79,2.66-.17.2-.42.34-.6.53-1.02.72-1.16.66-1.2-.53-.79-.19-1.59-.39-2.39-.54l1.2-1.32-1.2-.8c.59.02,1.2-.06,1.79,0Z"/>
          <path class="cls-59" d="M65.8,16.4c.12.1.85-.08,1.2,0l-.6,1.59c.39.03.8-.03,1.19,0,.65.26.43,1.08,0,1.53.61,2.82,1.01,5.68,1.2,8.57.95,1.45-.02,1.81-1.2.53-1.4.66-1.91.22-2.39-1.06-1.42.64-1.64-2.7-1.12-3.51-.58-1.03-.8-1.99-.67-2.87-.53-.15-.52-.33,0-.53l.07-1.87c-.75-.91-1-2.9.53-3.45.71-1.32,1.95-.12,1.79,1.06Z"/>
          <path class="cls-27" d="M70.59,9.49c.74.99,1.33,6.21-1.2,5.32h-.6c-.17-.84-.82.59-.64-2.97.02-.32-1.43.59-.56-2.35-.27-.15-.26-.33,0-.53h.6c.67.71,1.53.47,2.39.53Z"/>
          <path class="cls-101" d="M65.2,11.62c.1,0,1.1.79,1.79.54.26.99-1.2.18-1.2.79,0,.61,1.46-.19,1.2.79h-1.79c1.79,1.12.47,2.56.6,2.66l-1.79-1.06c-.75.01-1.15-.52-1.2-1.6.21-.3.26-1.33.6-1.6.07-.06,1.7-.53,1.79-.53Z"/>
          <path class="cls-14" d="M67.6,9.49l-.49-.25c.11-.17.48-.22.49-.28-.08.08.06.35,0,.53Z"/>
          <path class="cls-59" d="M73.58,14.28c.28.13.82,1.27,1.79,1.07l-1.8.79c1.72,1.09,3.27.18,1.8,2.39.56,1.07.96,2.13,1.2,3.19.62,1.85-.58,1.87-1.79.53-.75.36-.47.92-.6,1.06-1.37,1.6-2.17,1.01-2.42-1.76-.43-2.04-.22-3.23.63-3.56-1.05-.98-1.66-3.03,0-3.72.36.07.97-.1,1.2,0Z"/>
          <path class="cls-2" d="M70.59,9.49c2.36.17.7.91.92,2.75.09.72.69,1.39.87,2.04.25.9.03,2.32,0,3.72-1.07,1.09-1.43.9-1.2-.53-.47-.57-.86-2-1.79-2.66,1.01-.81,1.18-3.98,1.2-5.32Z"/>
          <path class="cls-82" d="M76.57,19.6c.22.1.83-.07,1.19,0l-1.19,1.33c.5.53,1.52-.06,1.19,1.06l-.59.27c-.84.74-1.18.41-.6-.53-.47-.26-1.75-.34-2.39-.54l1.79-.53-1.79-1.07c-.32-.41,1.07-.86,1.2-1.05.21.59.63.8,1.2,1.06Z"/>
          <path class="cls-97" d="M59.22,9.49c.68.87,1.49,1.24,2.39,1.86-3.22,1.24.61,1.75,0,2.92-2.12-.09-1.08.54,0,1.07,1.03,1.35-.04,2.63-1.79,2.13-1.01,1.25-2.3.31-1.79-1.06-1.57-.55-1.6-1.1,0-1.6,1.94.45,1.86-3.31,0-2.4l1.2-2.92Z"/>
          <path class="cls-18" d="M62.81,13.75c1.24-.35,1.15.44,1.2,1.6.05,1.16.35,2.19.26,4.09-.05.94,1.04,1.42-.86,1.23-1.45.37-3.33-1.2-4.19-2.13-1.29-.83-.98-1.2.6-1.06.67-.72,1.2-1.37,1.79-2.13.49-.63.73-.94,1.2-1.6Z"/>
          <path class="cls-10" d="M56.23,10.56c.26.4,1.35,1.45,1.2,1.59l-1.79,1.07,1.8-.25c-1.27,1.51.41,1.42.59,1.85.15.35-.1,1.13,0,1.6.04,1.19-.56,1.45-1.79,1.06-.52,1.4-.59,1.39-1.2,0-.1-1.42-.65-2.65-.99-3.99-.15-.6.35-1.39.3-1.61-.08-.36-2.43-.07.09-1.31h1.79Z"/>
          <path class="cls-71" d="M51.45,14.28l1.79,1.06-1.79.53,2.39.81-1.8.53,2.4.8c.83,1.41-2.35.98-2.2.93,1.57-.51,3.53-.66,2.2,1.2,1.57-.03,1.58.6.6,1.6l.3.98c.86,2.55,1.55,4.9-.89,7-.51.54-.91.54-1.2,0-1.42,2.54-2.71-2.58-1.2-3.72l-1.25-.47c1.06-.45.88-.93-.52-1.44.8-1.28.99-2.41.58-3.4-.88-.94-1.07-1.69-.55-2.23-.97-1.53-2.41-4.16.55-3.62.13-.19.44-.34.6-.53Z"/>
          <path class="cls-57" d="M56.23,17.47c.93.57,1.47,1.46.16,1.77,1.34,1.2-1.05,2.72-1.96.89-.72-1.39-2.4-.81-2.4-1.33.85-.28,1.55-.43,2.4-.8.23-.1.41-.46.6-.53.28-.11.93.11,1.2,0Z"/>
          <path class="cls-36" d="M62.21,21.19c1.86,1.47,2.65,3.77,2.39,6.91l.56.46c-.46,1.38-.88,4.66,1.24,4.33-.12-1.45,1.4-1.13,1.79,0,.87-.67,1.21-.36.6.53.22,1.67-2.13,1.12,1.79,2.13,1.63.45,1.61,1.2,0,1.6.64.77.34,1.37-.92,1.8l-.28,1.39c-1.31.87-.62,1.06-2.99,1.6-1.79.46-2.44-.46-1.2-1.6l.45-.8c-1.08.3-3.5-.59-4.03-1.33-.55-.29-.75-1-.6-2.13-.52-.15-.51-.33,0-.53-.93-.25-.9-.79.1-1.64-1.06-1.65-1.09-2.69-.1-3.14-.5-.76-1.05-1.73-1.66-2.92l.45-1.18c-.85-1.79-.65-2.73.62-2.82-1.42-.52-1.05-2.07,0-2.66.04-1.52,1.39-1.45,1.79,0Z"/>
          <path class="cls-109" d="M58.62,36.61c2.77.36,3.37,1.07,1.79,2.13.15.77.55,1.3,1.2,1.6.68-.77,1.41-.44,1.2.53-1.34,3.14-4.82,2.38-4.79-1.06-1.94.27-.09,2.7-.59,3.19l-4.18-1.59c-.43-1.14-.29-2.36,1.2-2.66,1.71-.36,2.64-1.19,2.78-2.5l.81-.16c.52-.24.71-.03.6.53Z"/>
          <path class="cls-111" d="M53.84,38.74c.19-.33.39-.33.6,0,.22,1.2-.64,1.8-1.2,2.66-.1.15-.94.41-.6,1.06-.78,1.15-2.55-.48-2.99-.53-2.38-.28-.76-2.29,1.36-2.18-.25-1.35.09-2.15,1.63-1.54.74-.79,1.44-.47,1.2.53Z"/>
          <path class="cls-3" d="M81.35,35.02c.25,1.64,1.49,1.99,2.99,2.13.52.15.51.33,0,.53-.37-.02-2.85-.03-2.99,0,.33-2.07-1.05-.41-1.71-.62-.14-.04-1.74-1.83-1.88-2.04,1.12-.12,2.54.17,3.59,0Z"/>
          <path class="cls-18" d="M70.59,37.14c1.32-1.6,3.11.41,1.2,1.6.04.17-.05.37,0,.53-.95.09-1.67.58-2.39,1.06l-1.79-1.33,2.99-1.86Z"/>
          <path class="cls-94" d="M65.2,40.33c.25.17.52,1.36,1.2,1.6-.77.18-1.68.97-2.99.53-.26-.19.75-1.43.6-1.59-.1-.11-.85.08-1.2,0-.38-.09-.79-.41-1.2-.53-1.85-2.42,3.53-1.36,3.59,0Z"/>
          <path class="cls-61" d="M85.54,37.14l1.19.54v.52c-.78.31-1.93-.51-2.39-.53v-.53c.39.04.8-.01,1.2,0Z"/>
          <path class="cls-16" d="M90.32,25.44c.37-.05.81.04,1.2,0-1.27.67-.88.68-1.2,1.6-.19-.03-.4.02-.6,0l-.6-1.6c.81.1.43.11,1.2,0Z"/>
          <path class="cls-100" d="M81.95,29.17c-1.03-.54-2.09-1.14-2.99-1.86l2.38.27-1.79-1.61c-.21-.93.83-.34,1.19-.52-.75-1.27-.26-1.66,1.2-1.06.14,1.52.91,3.18,0,4.79Z"/>
          <path class="cls-64" d="M81.95,21.72c-.83.86-.11,1.43,0,2.66-.39.31-.77.85-1.2,1.06l-1.8-1.86,1.8-.27-1.5-1.05,1.5-1.07c.46.11.98.01,1.2.53Z"/>
          <path class="cls-39" d="M77.16,22.25c2.14,1.35.53.49.2,1.95-.15.66.41,1.54-.21,2.3h1.8s-1.18,1.36-1.18,1.36l.58,2.37c-.41.03-.52,2.14-2.99-.27l1.79-.53-2.39-1.86,2.39-.27-2.39-1.6h1.8s-1.8-1.33-1.8-1.33c-.24-.98,1.15-.17,1.2-.79.03-.41-1.71-.08-1.2-1.33.34-.16,1.48.23,1.79-.53.23.13.38.4.6.53Z"/>
          <path class="cls-83" d="M67.6,18c.39.04.8-.03,1.2,0-1.31,2.32,1.81,3.57-.6,5.58,1.74.52.86.38.68,1.77,2.31.14.27.56.05,1.42-.08.3.45.64.46.8,0,.36-.2.53-.6.53l-2.39-1.07,1.79-.53-1.8-1.32,1.8-.79-2.38-.55,1.79-.53c0-.91-1.54-.88-1.79-1.06-.78-.58,1.58-.15,1.2-1.32-.2-.6-1.34.04-1.21-.54l1.07-.35c-.56-1.1.23-.69.73-2.05Z"/>
          <path class="cls-2" d="M72.98,26.51c.28.29,1.2.48,1.19.86,0,.48-.62,1.06-.63,1.5,0,.37,2.26-.19.03,2.42.28.2,1.88-.32,1.79.26-.31,2.14-1.99,2.68-4.18,1.86l2.38-.53-2.39-2.39,1.8-.27-1.79-1.6,1.79-.53-.6-2.12c.58-.16.78.01.6.53Z"/>
          <path class="cls-57" d="M71.18,17.47c.15.19.9.33,1.2.53-.02,1.03-.02,2.18,1.2,2.39l-1.19,1.33c3.05-.32-2.2,1.96,1.79,1.6-.39.44-.67.98-1.2,1.33,1.82.42,1.62,1.12,0,1.86-.18-.18-.39-.38-.6-.53-.61-.44-.82-1.33-2.39-1.07l2.39-.53-2.39-1.06,2.39-.53-2.38-1.06,1.79-.53c.19-.12-3.56-4-.6-3.72Z"/>
          <path class="cls-49" d="M69.39,27.57c.09,1.44-.38,2.03,1.19,2.39-3.13,1.77,2.46,2.41-1.79,3.46-.02-.13-.55-.35-.6-.53-2.13-.1-2.11-3.96-1.56-4.21.26-.12.6-.1.96-.05.61.07.83-.29,1.2-.53.21-.14.38-.39.6-.53Z"/>
          <path class="cls-26" d="M70.59,35.55c2.5.64,4.96-.02,3.6,3.43l-2.4-.24c-.64-2.6-.82-1.14-1.2-1.6-.15-.18.1-1.19,0-1.6Z"/>
          <path class="cls-67" d="M13.17,25.44c.56.37,1.7.47,1.82.88.23.74-.16,1.96-.03,2.84l.6.53c.04.15.01.37,0,.53.71.95.81,1.71-.6,1.6-.05,0-.36.34-.81.39-.41.05-.84-.41-.99-.39-2.16-.89-.33-1.18-.27-2.37.11-2.13-2.41-2.87-.93-5.08.05.25.87.85,1.2,1.06Z"/>
          <path class="cls-46" d="M8.99,25.44c.29.65,2.18.12,1.8,1.32-.2.63-1.4-.19-1.2.79l1.78.81c-2.1.4-1.52,2.49-2.38,2.92-.75-1.23-.04-2.49-1.79-2.92,1.83-.62.42-2.62.64-2.87.2-.22,1.07.02,1.15-.06Z"/>
          <path class="cls-55" d="M32.91,19.6c.51.16.51.34,0,.53.36,1.43.56,2.85.6,4.25.94.91.62,3.33-1.2,3.19-.56,1.36-2.05.49-2.39-.53-.16.46-.36.45-.6,0-.73-.85-1.12-3.18.6-3.72-1.93-.17-2.79-4.36-.6-4.25.51.06,1.58-.56,1.79-.53.11.02,1.17,1.09,1.79,1.06Z"/>
          <path class="cls-39" d="M29.32,18.53c.04.16-.02.35,0,.53,0,.06-.76.13-.54.47l1.14.32c-2.29,1.82-.5,1.07-.17,1.41.08.08.17,1.81.17,2.04-.47,1.37-.87,1.37-1.2,0-2.49,2.39-3.94-3.29-1.2-3.19.34-.9.55-1.89,1.79-1.6Z"/>
          <path class="cls-19" d="M24.54,18l2.99,2.13c-.57,1.5-1.28,3.09,1.2,3.19.4,1.05.6,2.3.6,3.72.19.05.42-.05.6,0,1.52.49,1.57.6,0,1.06.26,1.71,0,4.26-2.39,3.72-.82,1.04-1.3.75-1.2-.53-1.55-1.53-3.14-4.03-.6-5.32.02-.03.69.07.6-.53h-1.8c1.1-.98,1.43-3.32.67-4.47-.42-.63-1.19-.24-1.26-.32-.1-.11.01-2.13,0-2.66h.6Z"/>
          <path class="cls-111" d="M26.33,31.29c.36.21.94.33,1.2.53.57-.15.77.02.6.53-.24.67.03,1.47.79,2.41l-.79.25c.29,1.36-.24,1.9-1.79,1.6.71.76.38,1.01-.6.53-2.58,2.51-4.01-3.84-1.79-3.72.5-.44-.19-1.24-.68-1.33-2.69-.47-.71-1.71,1.28-1.33v-.53c.71-.62,1.51.32,1.79,1.06Z"/>
          <path class="cls-34" d="M25.73,25.98c-1.51,2.21.82,1.37.6,1.86-2.81,2,.46,1.33,0,3.46-.36-.21-.82-.4-1.79-1.06-.55-.38-1.08-.59-1.79-.54l1.8-.53-1.81-1.86c2.13-.03,1.58-1.13,1.8-1.33.1-.09.86.06,1.2,0Z"/>
          <path class="cls-53" d="M20.35,28.1c.39.03.8-.02,1.19,0-.64.84.03,2.34,0,2.66,1.63.63.41,1.82-.6,2.66.29,1.41-.08,1.6-1.2.53-.05-1.84.68-2.67-1.2-3.72.22-.74.82-1.28,1.79-1.6-.52-.15-.51-.33,0-.53Z"/>
          <path class="cls-48" d="M24.54,30.76l-1.79.54c-.74.38,5.22,1.71,1.19,2.12h-1.79c-.56,1.39-.6,1.35-1.2,0-.05-.91.52-1.82.6-2.66.96-.63,2.03-.63,2.99,0Z"/>
          <path class="cls-42" d="M20.35,28.1v.53c-1.05,1.19-1.71.9-1.2-.53h.6c.2.01.4-.01.6,0Z"/>
          <path class="cls-71" d="M19.15,28.1c.38.29.62.58,1.2.53.18,1.72.14,1.75-1.79,1.6-.37-.21-1.33-.17-1.79-.53.22-.5.23-1.05.6-1.6.14-.2,1.06-.35,1.2-.53.22.16.39.37.6.53Z"/>
          <path class="cls-58" d="M16.16,30.23c0,.98.68,1.56,1.79,1.6.29.94-1.01.34-1.19.52-.54-.3-1.15-.51-1.79-.53.31-.49.55-1.03.6-1.6h.6Z"/>
          <path class="cls-33" d="M15.56,29.7c-.29-.06-.56-.28-.6-.53.29.07.53.27.6.53Z"/>
          <path class="cls-101" d="M37.69,12.15c.29-.06.86-.03,1.2,0l1.2.53c.65.46,1.27.57,1.2,1.6-.11.6-.3,1.21-.57,1.84.61,2.08,1,4.13,1.17,6.14,1.37,1.93,1.37,2.99,0,3.19-.4,1.13-1,1.31-1.79.53-.98.18-2.78-1.06-2.39-2.13-2.32.74-2.23-3.29,0-3.19.43-2.78-.27-1-.57-1.93-.13-.4-.18-2.07-.44-3.13-.45-1.82-1.47-2.97,1.01-3.44Z"/>
          <path class="cls-46" d="M34.1,16.94l2.39,2.13-1.79,1.05,2.99.54c-.14.9-.9,2.23,0,3.19.93,1.63,1.64,3.2.84,4.72.52,1.69,1.07,4.04-1.44,3.26-.42,1.38-1.02,1.38-1.79,0-1.45-1.36-1.7-2.21-.76-2.54-1.43-1.24-1.01-3.4-.43-4.9-.62-.22-1.3-2.02-1.4-2.57-.05-.25.08-1.38.21-1.68-.06-.12.02-.34,0-.53-.08-.67.64-2.53.6-2.66h.6Z"/>
          <path class="cls-61" d="M40.08,12.68l-1.2-.53c.21.02.44-.04.6,0,.22.06.4.39.6.53Z"/>
          <path class="cls-18" d="M41.88,14.28c-.04.17.03.36,0,.53,1.35.87,1.13,2.37.86,3.49.45.81,1.42,2.74-.26,3.42-.08.36-.14.59-.6.53h-2.39c-.13-1.7-.22-2.02,1.5-1.07,1.32-1.75-1.35-.41-1.5-1.58l1.79-.27-2.39-.81,1.79-.53-1.79-1.06c-.25-.9.69-.31,1.07-.6.12-.09-.57-1.23,1.32-2.05h.6Z"/>
          <path class="cls-101" d="M48.46,15.34c1.32,1.34,2.12,3.12,2.39,5.32.48.99-1.6.44-2.03.05-.18-.16,4.31.74,1.59,2.83,1.82,1.48,1.37,2.47-1.36,2.96.63.74.33,1.06-.6.53-2.01.29-2-2.87-1.66-4.48l.46-.84c-.37-2-1.76-5.17-1.79-6.91l2.99.53Z"/>
          <path class="cls-64" d="M49.06,11.09c.39,2.33.58,1.47,1.1,2.22.43.62-1.61,1.8.7,1.51-.33.5-.71.94-1.19,1.33,2.12.54.69.82.67,1.61-.01.4.67-.71.51,1.53,0,.13,2.71.76.01,1.38-.83-.38-1.32-.74-2.4-.53-.64-1.43.96-.77,1.21-1.33.59-1.32-1.9,0-1.8-1.32l1.79-.27-2.39-.81,1.19-1.06-1.19-1.06,1.79-.27-1.79-.81,1.19-.53-1.2-.53,1.8-1.06Z"/>
          <path class="cls-56" d="M41.88,14.81l2.99,1.33c-2.54.88-.45.29,0,1.32l-1.79.53,2.38,1.06-2.39.53,2.39.81-1.79.79,2.09.54-1.2.53,1.49.53c1.84-.04.68,2.06-.6,2.13-.46,1.71-2.36,1.13-1.79-.53-1.91.02-2.54-1.34-1.2-2.66.03-2.61-.57-1.41-.61-1.91-.02-.34.72-.99.5-1.22-.29-.31-2.26.49.11-1.39-1.67-.34-.9-.9-.6-2.39Z"/>
          <path class="cls-2" d="M47.26,21.72c.33,1.79-.4,4.42,1.2,5.32,1.15.87.82,1.1-.6,1.06-.02.97-.42,1.15-1.2.53-1.7,2.05-2.9-2.06-1.75-3.15.68-.64,1.18.21.98.02-.18-.17-.31-.38-.43-.6v-.72c1.96-.59.51-1.15.6-1.41.08-.22.97-.74,1.2-1.06Z"/>
          <path class="cls-78" d="M50.85,36.61c.68-1.91,3.25.95,1.79,1.6-1.32.28.27,2.45,0,2.65-1.62.14-3.42-.66-2.99,1.07-1.1-.12-2.43.03-3.59,0-.2,0-.4,0-.6,0-1.66.08-2.84-2.9-.6-2.66.86-.76,1.36-.53,1.2.53,1.29-.47,2.29-1.53,2.99-3.19.26-1.5,1.26-1.43,1.79,0Z"/>
          <path class="cls-80" d="M22.14,33.42c.36.76.88,1.42,1.54,1.97-.29.84-.21,1.96.25,3.34-.84,0-3.19,1.01-2.99-1.6,0-.09.94-.74.6-1.06-.11-.1-2.53-.93-2.99-1.07.64-.1.92-.89,1.2-1.06.21-.13.77-.3,1.2-.53.22-.12,1.06.13,1.2,0Z"/>
          <path class="cls-46" d="M23.94,33.42s-.57.29-.32.54c.73.75,3.68.84-.28,2.13l2.39,1.05c1.71.2,1.91.45.6,1.6-.15.18-.45.32-.6.53-.53-.28-1.16-.53-1.79-.53-3.21-.89-1.16-1.37-1.17-2.89,0-.17-2.17-.33-.63-2.43.11-.1.07-2.8,1.79,0Z"/>
          <path class="cls-102" d="M37.69,23.85c.12.13,1.97.69,2.39,2.13.89,2.35,1.42,5.03.6,7.44l1.01,1.07c-.93,1.23-.34,3.32.19,4.77-.38,1.09-1.11,2.02-2.36,2.43-2.85.93-2.03.1-2.43-.83l.3-1.14c-1.26-1.08-.84-3.25.07-4.5-1.1-.61-1.22-1.74-.37-3.4.94-1.24,2.2-1.86,0-2.39l1.2-1.86-1.8-.53,1.79-.8-2.38-1.33,1.79-1.07Z"/>
          <path class="cls-95" d="M37.09,31.83c.36.11,1.32,1.06,1.79,1.33l-1.8.53c1.96.98,2.95,2.49,0,2.66,2.39.43.37,1.38.55,2.61.03.19,3.37.79-.54,1.91-.51-1.18-.6-1.16-1.79-2.13-.66-.32-.64-.73,0-1.06-.8-.35-.24-2.24.6-2.66-.63-.03-.83-.38-.6-1.06-1.51-.65-1.75-2.94,0-2.13.53.09,1.37-.13,1.79,0Z"/>
          <path class="cls-81" d="M43.67,35.55c1.51-2.11,4.01-.09,2,.97.29.82.73,2.69-.8,2.75-.48,1.33-.69,1.4.6,2.66-.23,0-.69.6-1.09.44-.81-.32-1.63-3.13-2.5-3.63-1.28-.33-.72-2.33.6-2.13-.21-.91.22-1.39,1.2-1.06Z"/>
          <path class="cls-106" d="M41.28,33.42c2.85-1.99,2.94,1.2,1.2,3.19-.69,1.11-.37,1.58-.6,2.13-.06.15.06.37,0,.53-3.11-.75-1.14-1.08-1.16-2.37,0-.35-1.34-.22-1.24-.55.29-.91,1.01-1.17,1.2-2.94.17-.46.37-.46.6,0Z"/>
          <path class="cls-85" d="M35.3,37.67c-.03.35.02.71,0,1.06h-.6c-.03-.29-.48-.73-.6-1.06.52-.72,1.12-1.04,1.2,0Z"/>
          <path class="cls-25" d="M30.52,35.55c2.1-.14,2.27.11,1.2,1.6.97,1.55-.06,2.3-.6,3.72-.23-.08-.43-.47-.6-.53-.62-1.98-2.55-3.62-4.19-1.6.06-.48-.62-1.35-.6-1.6s.52-.41.6-.53c.65-.68,1.54-.73,2.7-.18l.89-.89c.17-.46.37-.46.6,0Z"/>
          <path class="cls-95" d="M32.31,35.02c.46-.96,2.39-.36,1.79.53-.26.38-.66.74-1.2,1.06,1.07.21.88.55,0,1.06-.3-.08-.99-.37-1.2-.53-.08-.06-.17-1.42-1.2-1.6-.52-.15-.51-.33,0-.53.19-.46.39-.46.6,0h1.2Z"/>
          <path class="cls-13" d="M35.9,35.02c-.06.79-.52,1.7-.6,2.66h-1.2c-.2,0-.41.02-.6,0-.49-.46-.09-.81,1.2-1.06-1.48-.05-1.41-.63,0-1.06-.51-.17-.51-.34,0-.53.42-.48.84-.58,1.2,0Z"/>
          <path class="cls-85" d="M34.7,36.61c-.12.32-.9.75-1.2,1.06-.21-.02-.44.04-.6,0-.06-.34.09-.77,0-1.06.06-.76,1.62-.79,1.79,0Z"/>
          <path class="cls-85" d="M63.41,21.19c.2.33,1.66,1.74,1.67,1.86.07.53-.61,2.15-.46,2.6.17.48,1.13.28,1.17.34.25.32-.98.88-1.08,1.33-.04.17.48.23.49.26.54.13.53.31,0,.53-.17.46-.37.46-.6,0l-2.4-.8,1.8-.27-1.79-1.06,1.79-.53-1.79-1.06,1.19-.53-1.79-1.07,1.49-.52-.89-1.07c-.14-1.04.57-.7,1.2,0Z"/>
          <path class="cls-23" d="M67.6,28.63c.04.14-1.43.18,1.19,1.34l-1.79.8c-.23.86.87.25,1.2.89.19.37-.09.92,0,1.23h-1.79c-1.05,1.52-2.66-1.21-1.45-1.47-.59-.92-.5-2.02.26-3.31-.02-.17.03-.36,0-.53.77.2,2.17.21,2.39,1.06Z"/>
          <path class="cls-88" d="M59.22,18.53h3.59c-1.15,1.98.24,1.52.6,2.13.08.14-.08.4,0,.53h-2.99c-1.08.42-1.68-.11-1.79-1.6-.52-.15-.51-.33,0-.53-.77-.71-.41-1,.6-.53Z"/>
          <path class="cls-36" d="M58.03,16.4c.45.05,1.26.86,1.79,1.06-.25.27-.36.87-.6,1.06-.18.15-.22.39-.6.53-1.21.19-1.21.36,0,.53,1.56,1.4,1.16,2.72.6,4.25.45,1.15-.44,1.49-.26.8.24-.88,2.67,1.51.18,2.34,1.58,1.22,2.12,4.73-.52,2.71.18,1.51-.93,2.95-1.79,1.06-1.81-.43-1.36-2.4-.92-3.69.06-1.36.07-2.97-1.52-4.25l.64-1.09c-.81-1.1-.55-1.51-.6-1.6,2.35.05,1.03-1.42,1.79-2.66.26-.11.45-1.2,1.79-1.06Z"/>
          <path class="cls-81" d="M55.04,21.72c2.37,3.22,1.56,4.76,1.79,9.04,1.53-.2,2.5,3.09,1.2,3.72.48.67.48,1.2,0,1.6-.17,2.29-1.29,2.69-3.59,2.66-.2,0-.43.04-.6,0-.96-.77-.66-1.33.6-1.06l.04-.73c-.85-2.64-.87-5.05-.04-7.25-.01-.39-.42-.88-.34-1.33.09-.53,1.17-1.06.94-1.32-.16-.18-1.46.41-1.19-.53.51-.1,1.62.29,1.79-.28.49-1.54-1.73-.09-1.8-1.32l1.79-.27-2.39-1.33,1.79-1.6Z"/>
          <path class="cls-74" d="M52.05,25.98c.18,1.92,1.24,1.74,1.19,1.86-.18.45-1.23.61-1.21,1.6,0,.45,1.15.2,1.21.26.81,1.57,1.01,3.54.59,5.92.96.85,1.17,1.53.6,2.06-.15.05-.38.83-.6,1.06-.25-.05-1.03-.39-1.2-.53-.12-.1.28-1.27-1.79-1.6l-.97-.36c-.33-1.87-.76-5.45,1.57-5.49-1.58-.56-2.14-1.27-1.67-2.14-1.74-1.18-.81-2.09,1.07-1.58-.89-1.02-.07-1.42,1.2-1.06Z"/>
          <path class="cls-32" d="M54.44,29.7c.07,2.01.09,3.95,1.79,5.31l-1.79.53c1.09-.09,1.84.96,1.8,1.86-.03.6-1.34.1-1.8.27-.18-.68-1.74-1.03-1.8-1.42-.14-.87.83-6.3.61-6.55l.3-.52.9.52Z"/>
          <path class="cls-104" d="M50.85,20.66c2.07.95.26,2.23.63,3.39.29.93.33-.65.57,1.93-.39.33-.75.82-1.2,1.06-1.69.62-2.29.44-1.79-.53.2-.22-.6-1.5,1.79-1.07.7-2.26-2.07.46-1.8-1.33.18-1.21.62-1.67,1.8-2.12l-2.39-1.33c.73-.11,1.75.14,2.39,0Z"/>
          <path class="cls-25" d="M60.42,23.85c-.1.34-.8.95-.61,1.06h1.8s-1.19,1.34-1.19,1.34l1.19.27c-2.54,2.4-.05,2.1-.04,2.36,0,.29-.58,1.08-.56,1.89-.17.46-.37.46-.6,0-2.13,1.38-3.05,1.22-1.79-1.06.15-.1.85.09,1.19,0,.38-1.67-1.42-.72-1.81-2.37s.4-1.44,1.81-1.35c-.66-1.38-3.26-.81-.6-2.12-.47-1.39,1.27-1.8,1.2,0Z"/>
          <path class="cls-83" d="M61.61,38.21c1.22-.43,2.56,1.19,3.25,1.06.84-.16,1.08-2.51,2.73-2.12-1.26,1.43.06,2.86-2.39,3.19-.15-.1-2.49-1.05-2.64-1.04-.61.07-.8.95-.95,1.04-1.16.66-1.44.82-2.38-.26.35-.5.73-.9,1.18-1.33-.24-1.21.21-1.27,1.2-.53Z"/>
          <path class="cls-63" d="M65.2,28.1s.38.12.43.36c.2.92-1.39,1.55.76,2.03-2.63,1.82-.07,1.96,0,2.4.27,1.59-2.34,2.78-3.59.8l2.38-.53-2.38-1.34,1.79-.53-1.8-1.86c.06-.57,2.34.25,1.8-1.33h.6Z"/>
          <path class="cls-89" d="M60.42,21.19c.27.66.23,1.89,0,2.66-.48-.52-1.14.01-1.2,0-.34-.06-1.8-.56-1.8-.8l1.8-.79-2.38-.55c.69-1.23,2.41.35,1.79-2.12.77.3,1.5.89,1.79,1.6Z"/>
          <path class="cls-103" d="M61.02,30.76c.06,2.12,1.22,2.24,1.22,2.4.01.84-1.29,1.42-1.22,2.39-.83,1.05-1.83.75-1.79-.53-.79-.48-.74-.92-.26-1.54-1.9-1.61-1.41-2.51,1.46-2.72h.6Z"/>
          <path class="cls-83" d="M61.02,36.08c.86-.48,1.38-1.23,2.39-1.06-1.07.71-1.38,2.68-1.79,3.19-.37.45-1.1.44-1.2.53.23-.99-.95-1.34-1.79-2.13.7-.62,1.49-.92,2.39-.53Z"/>
          <path class="cls-38" d="M59.22,35.02c.58.25,1.14.48,1.79.53v.53c-.59.32-.46,1.45-2.39.53-.19-.18-.38-.37-.6-.53,0-.09-1.34-1.28,0-1.6,1.08-1.05,1.17-.88,1.2.53Z"/>
          <path class="cls-54" d="M34.1,24.38c.08,2.2,2.01,1.24,0,3.72h1.8c.39,1.05-1,1.38-1.2,1.87-.22.54,1.47-.68.6,1.86-.01.04-.81,0-.51.45,2.16.09.48,1.14.51,1.68-.71,1.29-3.01,1.09-1.79,0-1.52-.02-1.82-1.1-.88-3.23-1.57-.56-1.67-1.61-.32-3.15l.6-1.59c-.93-.08-2.01.35-1.8-.53,1.37.03,2.73.42,2.39-1.07.17-.46.37-.46.6,0Z"/>
          <path class="cls-36" d="M32.31,27.57c.46.18,1.26,1.03,1.79,1.33l-2.39.27,2.39,1.86c-.43,1.37-1.92.57-.6,2.92-.19.83-.64.73-1.2,0-.18.45-.38.44-.6,0-1.68.44-2.36-1.09-2.04-4.59l.25-1.25c-.12-.17.08-.75,0-1.06.79.24,2,.38,2.39.53Z"/>
          <path class="cls-85" d="M32.91,20.13c.26.55,1.75,2.18,1.75,2.36,0,.29-.58,1.08-.55,1.89h-.6l-2.99-2.13,2.39-.79-2.39-.8,2.39-.53Z"/>
          <path class="cls-53" d="M29.92,23.32c0,.73-1.67,1.31.6,1.86l-1.2,1.87c-.78-.21-1.6-.38-2.39-.54l1.8-.53-1.81-1.33c2.13-.03,1.58-1.13,1.8-1.33.1-.09.86.06,1.2,0Z"/>
          <path class="cls-81" d="M29.92,28.1c.6.87,1.83.24.59,2.66h1.8c-.19,1.29-3.04,2.36-.6,3.19.41.59.13.64-.6.53.35.16.34.34,0,.53-.16-.08-.47.08-.6,0-.16.14-.31.24-.42.21-1.16-.27-4.31-2.45-1.97-2.87-.21-.18-.37-.36-.6-.53l1.79-2.38-2.39-1.07,3-.27Z"/>
          <path class="cls-65" d="M28.12,32.36c.08.07-.14.68.15.91.47.38,1.89,1.52,2.24,1.74v.53h-.6c-.45,1.5-2.12,1.01-1.79-.53-.1-.11.2-.83-.07-1.03-.35-.26-1.21.49-1.43.47-1.65-.21-.1-2.17,1.5-2.09Z"/>
          <path class="cls-9" d="M29.92,35.55c1.37,2.99-1.39,1.93-3.59,1.06.46-.71.91-1.27,1.79-1.6.3.32,1.29.43,1.79.53Z"/>
          <path class="cls-98" d="M42.48,21.72c-.02,1.64-.2,1.79,1.8,1.6.24.15-.64.78-.6,1.06l1.69,3.1-.53.45c.99.87.75,1.28-.56,1.76,1.57,1.51,2.58,5.81-.6,5.85-.42.58-1.15,1-1.2,1.06l-.53-1.35c2.41-.76,1.09-1.16-.66-1.84-.98-1.2-.8-2.31.2-3.42-1.19-2.6-.86-3.35.39-4.55-.01-.14.67-.67.31-1.09-.71-.81-3.2-.33-.31-2.1.21-.13.37-.39.6-.53Z"/>
          <path class="cls-46" d="M41.88,25.44c.02.23,1.73,1.16-.59,1.07v.52c2.06-.21.78.89.91,1.88.05.41.66.79.65,1.05-.02.64-2.09,2.12-1.56,3.46h-.6c.17-1.59-1.21-1.77-1.21-1.9,0-.47.64-1.08.65-1.53,0-.34-2.36.05-.03-2.16.07-.24-2.51.02,0-1.85.45-.34,1.21-.43,1.79-.53Z"/>
          <path class="cls-69" d="M50.85,27.04c-.25.14-1.22-.29-1.19.26,1.37.81,3.25,1.34.59,2.13.03.58,2.43.41,1.2,1.33l-1.38.29c.9,2.31-.99,3.03-1.61.78-1.53-.24-1.42-2.84-.6-3.72.09-.86.52-.89.6-1.06.05-.11.43-.34.6-.53l1.79.53Z"/>
          <path class="cls-95" d="M45.47,24.91c.65.15,1.16-.04,1.19,0,.91,1.27-1.94,1.05-1.19,1.59.27.19,1.78.15,1.79,1.06h-2.39s1.79,1.07,1.79,1.07c1.92.51,1.64,2.65-1.2,1.6-.71.82-1.53.47-1.2-.53,0-.52-.06-1.91-.1-2.41-.01-.17-2.01-1.15-.5-2.9.08.63,1.38.44,1.79.53Z"/>
          <path class="cls-37" d="M47.86,28.1c-.06.59.52,2.92.6,3.72.78.69.58,1.04-.6,1.06.71.79.35,1.12-.6.53-2.31,1.89-3.42-3.16-.79-2.64.1.02-1.05,1.14-1-.55l1.8-.54c.19-.48-.58-.88-.61-1.06-.04-.26.03-.42.31-.53h.89Z"/>
          <path class="cls-95" d="M45.47,30.23c.54.21,1.38.1,1.79.81l-1.79,1.06,1.8,1.33c1.96,1.72,1.69,6.13-1.2,6.38-.4-.17-.79-.36-1.2-.53.71-1.94.05-.47-.51-1.12-.72-.84,3.32-2.99-.69-2.6.43-.59.58-1.37,1.2-1.87l-1.2-.51c2.3-2.32.06-1.7-.02-2.18-.07-.43.63-1.05.63-1.28.4.17.79.37,1.2.53Z"/>
          <path class="cls-108" d="M47.86,32.89c2.4-2.02,2.27,2.4,1.2,3.72.08,1.17.84,1.78-.92,3.19-1.01.81-1.05.42-2.07,0,.28-.78,1.23-1.57,1.23-2.38,0-.57-1.5.12-1.22-.8,1.54.19,2.47,0,1.57-1.47-.29-.47-1.29.56-.38-1.73.06-.15.47-.33.6-.53Z"/>
          <path class="cls-73" d="M51.45,30.76c-.34.26-.71.57-1.19.54-.51.62,1.79.79,1.78,1.32,0,.42-1.53.63-1.7.89-.14.21.36,2.54.52,3.1-.54-.09-1.22.06-1.79,0-.09-1.3-.68-2.34,0-3.72h-1.2c.15-.24-.18-1.15.6-1.07.21.02.67.69,1.19.53-.2-1.62-.05-1.81,1.8-1.6Z"/>
          <path class="cls-20" d="M35.9,35.02h-1.2c-.59-.57-.29-1.2.6-1.06,0,.11.63.61.6,1.06Z"/>
          <path class="cls-85" d="M35.3,33.95c.09.23-.57.82-.6,1.06-.02.18.04.38,0,.53-.17.46-.37.46-.6,0-.5-.51-1.11-.48-1.79-.53-.64-.47-.85-.8,0-1.06.39,0,.81-.03,1.2,0,.04,0,.12.4.31.54l.3-1.06c.06-.05,1.17.47,1.19.53Z"/>
          <path class="cls-17" d="M34.1,35.55h.6c-.09.31.1.78,0,1.06h-1.79c-.03-.11-.78-.06-.35-.54.4-.44.94-.54,1.54-.53Z"/>
          <path class="cls-105" d="M32.31,35.02c-.09,0,.45.77-1.2,0v-.53c.68-.42,1.02-.13,1.2.53Z"/>
          <path class="cls-8" d="M58.62,19.06v.53c-.43-.17-1.63.34-1.8-.27,0-.59,1.33-.1,1.8-.27Z"/>
          <path class="cls-66" d="M58.62,29.7l.61,1.6,1.19-.53-1.79,1.07,2.1,1.59-1.5,1.6c-.37-.16-.93-.34-1.2-.53-.08-.06-.15-1.17-1.17-1.4.76-.96,0-1.75-.03-2.33,1.13.27,1.26-.71,1.79-1.06Z"/>
          <path class="cls-56" d="M32.31,33.95c-.07.3.11.97,0,1.06-.05.04-.91-.44-1.2-.53.03-.36.26-.43.6-.53.14-.04.4,0,.6,0Z"/>
        </g>
      </g>
    </g>
  </g>
</svg>