<?xml version="1.0" encoding="UTF-8"?>
<svg id="Layer_2" data-name="Layer 2" xmlns="http://www.w3.org/2000/svg" viewBox="0 0 90.38 90.38">
  <defs>
    <style>
      .cls-1 {
        fill: #000000;
        fill-rule: evenodd;
      }
    </style>
  </defs>
  <g id="Layer_1-2" data-name="Layer 1">
    <g id="Layer_1-3" data-name="Layer_1">
      <path class="cls-1" d="M68.52,53.74c-1.27,0-2.01-1.48-1.22-2.49,2.65-3.34,2.65-8.79,0-12.13-1.27-1.59,1.16-3.49,2.38-1.91,3.55,4.45,3.55,11.44,0,15.94-.26.37-.74.58-1.16.58ZM45.17,90.38C20.28,90.38,0,70.1,0,45.17S20.28,0,45.17,0s45.22,20.28,45.22,45.17-20.28,45.22-45.22,45.22ZM45.17,3.07C21.97,3.07,3.07,21.97,3.07,45.17s18.9,42.15,42.09,42.15,42.15-18.9,42.15-42.15S68.41,3.07,45.17,3.07ZM45.17,83.18c-20.91,0-37.96-17.05-37.96-38.02S24.25,7.2,45.17,7.2s38.02,17.05,38.02,37.96-17.05,38.02-38.02,38.02ZM45.17,10.27c-19.22,0-34.89,15.67-34.89,34.89s15.67,34.95,34.89,34.95,34.95-15.67,34.95-34.95S64.44,10.27,45.17,10.27ZM45.17,54.59c-5.19,0-9.42-4.24-9.42-9.42s4.24-9.42,9.42-9.42,9.42,4.24,9.42,9.42-4.24,9.42-9.42,9.42ZM45.17,38.81c-3.49,0-6.35,2.86-6.35,6.35s2.86,6.35,6.35,6.35,6.35-2.86,6.35-6.35-2.86-6.35-6.35-6.35ZM45.17,31.93c-.85,0-1.54-.69-1.54-1.54v-3.23c0-2.01,3.07-2.01,3.07,0v3.23c0,.85-.69,1.54-1.54,1.54ZM45.17,22.71c-.85,0-1.54-.69-1.54-1.54v-3.28c0-2.01,3.07-2.01,3.07,0v3.28c0,.85-.69,1.54-1.54,1.54ZM57.61,71.8h-24.83c-.85,0-1.54-.69-1.54-1.54v-8.95c0-.85.69-1.54,1.54-1.54h24.83c.85,0,1.54.69,1.54,1.54v8.95c0,.85-.69,1.54-1.54,1.54ZM34.31,68.73h21.76v-5.88h-21.76v5.88ZM29.17,52.31c-2.44,0-6.62-8.26-1.11-13.77,1.43-1.43,3.6.74,2.17,2.17-2.44,2.44-2.44,6.46,0,8.95,1.01.95.26,2.65-1.06,2.65ZM21.87,53.74c-.42,0-.9-.21-1.22-.58-3.55-4.5-3.55-11.49,0-15.94,1.27-1.59,3.65.32,2.44,1.91-2.65,3.34-2.65,8.79,0,12.13.79,1.01.05,2.49-1.22,2.49ZM61.21,52.31c-1.38,0-2.06-1.69-1.11-2.65,2.49-2.49,2.49-6.51,0-8.95-1.43-1.43.74-3.6,2.17-2.17,5.56,5.51,1.38,13.77-1.06,13.77Z"/>
    </g>
  </g>
</svg>