<?xml version="1.0" encoding="UTF-8"?>
<svg id="Layer_2" data-name="Layer 2" xmlns="http://www.w3.org/2000/svg" viewBox="0 0 51.74 85.09">
  <defs>
    <style>
      .cls-1 {
        fill: #000000;
      }
    </style>
  </defs>
  <g id="Layer_1-2" data-name="Layer 1">
    <g>
      <path class="cls-1" d="M15.22,85.09h21.31c1.68,0,3.04-1.37,3.04-3.04v-10.65h1.52c2.52,0,4.57-2.05,4.57-4.57v-18.26c0-3.36-2.73-6.09-6.09-6.09v-1.52c0-2.52-2.05-4.57-4.57-4.57h-18.26c-2.52,0-4.57,2.05-4.57,4.57v1.52c-3.36,0-6.09,2.73-6.09,6.09v1.37c0,.84.68,1.52,1.52,1.52s1.52-.68,1.52-1.52v-1.37c0-1.68,1.37-3.04,3.04-3.04h1.52c.84,0,1.52-.68,1.52-1.52v-3.04c0-.84.68-1.52,1.52-1.52h18.26c.84,0,1.52.68,1.52,1.52v3.04c0,.84.68,1.52,1.52,1.52h1.52c1.68,0,3.04,1.37,3.04,3.04v18.26c0,.84-.68,1.52-1.52,1.52h-3.04c-.84,0-1.52.68-1.52,1.52v12.17h-9.13v-10.65h3.04c2-.04,2-3.01,0-3.04H10.65c-.84,0-1.52-.68-1.52-1.52v-9.28c-.03-2-3.01-2-3.04,0,0,0,0,9.28,0,9.28,0,2.52,2.05,4.57,4.57,4.57h1.52v10.65c0,1.68,1.37,3.04,3.04,3.04h0ZM24.35,82.04h-9.13v-10.65h9.13v10.65Z"/>
      <path class="cls-1" d="M19.78,79c2-.03,2-3.01,0-3.04-2,.03-2,3.01,0,3.04Z"/>
      <path class="cls-1" d="M30.44,77.48c.03,2,3.01,2,3.04,0-.03-2-3.01-2-3.04,0Z"/>
      <path class="cls-1" d="M13.7,54.5v7.76c0,.84.68,1.52,1.52,1.52h21.31c.84,0,1.52-.68,1.52-1.52v-7.76c0-.84-.68-1.52-1.52-1.52H15.22c-.84,0-1.52.68-1.52,1.52ZM16.74,56.02h18.26v4.72h-18.26v-4.72Z"/>
      <path class="cls-1" d="M30.44,46.89c2-.03,2-3.01,0-3.04h-9.13c-.84,0-1.52.68-1.52,1.52s.68,1.52,1.52,1.52h9.13Z"/>
      <path class="cls-1" d="M50.22,27.26c.84,0,1.52-.68,1.52-1.52-1.42-34.32-50.33-34.31-51.74,0,0,.84.68,1.52,1.52,1.52s1.52-.68,1.52-1.52c1.26-30.29,44.41-30.27,45.65,0,0,.84.68,1.52,1.52,1.52Z"/>
      <path class="cls-1" d="M38.43,25.74c0,.84.68,1.52,1.52,1.52s1.52-.68,1.52-1.52c0-8.6-7-15.6-15.6-15.6s-15.6,7-15.6,15.6c0,.84.68,1.52,1.52,1.52s1.52-.68,1.52-1.52c.69-16.66,24.42-16.65,25.11,0Z"/>
      <path class="cls-1" d="M20.54,25.74c.22,7.04,10.43,7.04,10.65,0-.22-7.04-10.43-7.04-10.65,0ZM28.15,25.74c-.05,3-4.51,3-4.57,0,.05-3,4.51-3,4.57,0Z"/>
    </g>
  </g>
</svg>