<svg xmlns="http://www.w3.org/2000/svg" viewBox="0 0 48 48" fill="none" stroke="currentColor" stroke-width="1.5" stroke-linecap="round" stroke-linejoin="round">
  <!-- Main body - double stroke rectangle -->
  <rect x="8" y="14" width="32" height="20" rx="1" stroke="currentColor" fill="none"/>
  <rect x="10" y="16" width="28" height="16" rx="1" stroke="currentColor" fill="none"/>
  <!-- Internal dashed lines (contacts/coil) -->
  <line x1="12" y1="22" x2="36" y2="22" stroke-dasharray="2 2"/>
  <line x1="12" y1="26" x2="36" y2="26" stroke-dasharray="2 2"/>
  <!-- Top pins (5) with circles -->
  <line x1="14" y1="14" x2="14" y2="10"/>
  <circle cx="14" cy="8" r="1.5" fill="currentColor"/>
  <line x1="22" y1="14" x2="22" y2="10"/>
  <circle cx="22" cy="8" r="1.5" fill="currentColor"/>
  <line x1="26" y1="14" x2="26" y2="10"/>
  <circle cx="26" cy="8" r="1.5" fill="currentColor"/>
  <line x1="34" y1="14" x2="34" y2="10"/>
  <circle cx="34" cy="8" r="1.5" fill="currentColor"/>
  <line x1="40" y1="14" x2="40" y2="10"/>
  <circle cx="40" cy="8" r="1.5" fill="currentColor"/>
  <!-- Bottom pins -->
  <line x1="12" y1="34" x2="12" y2="40"/>
  <line x1="18" y1="34" x2="18" y2="40"/>
  <line x1="24" y1="34" x2="24" y2="40"/>
  <line x1="30" y1="34" x2="30" y2="40"/>
  <line x1="36" y1="34" x2="36" y2="40"/>
</svg>
