<svg width="512" height="512" viewBox="0 0 512 512" fill="none" xmlns="http://www.w3.org/2000/svg">
<path d="M486.486 127.622L444.125 85.2606L476.636 52.7496C479.014 50.3716 479.014 46.5386 476.636 44.1606C474.258 41.7826 470.425 41.7826 468.047 44.1606L435.536 76.6716L386.963 28.0986C385.847 26.9826 384.294 26.3516 382.693 26.3516H279.434C277.833 26.3516 276.28 26.9826 275.164 28.0986L36.9109 266.401C25.5079 277.804 25.5079 296.389 36.9109 307.792L206.794 477.675C218.246 489.127 236.782 489.127 248.233 477.675L486.486 239.422C487.602 238.306 488.281 236.753 488.281 235.152V131.892C488.282 130.291 487.602 128.738 486.486 127.622ZM476.151 232.628L239.644 469.134C233.142 475.588 221.836 475.588 215.382 469.134L45.4999 299.203C38.8039 292.555 38.8039 281.637 45.4999 274.941L281.958 38.4826H380.171L426.948 85.2596L423.018 89.1896C410.741 80.7946 393.612 81.9106 382.452 93.0716C369.981 105.591 369.933 125.777 382.452 138.296C394.971 150.815 415.206 150.864 427.725 138.345C438.74 127.33 440.002 110.249 431.607 97.7786L435.537 93.8486L476.152 134.415V232.628H476.151ZM398.658 122.139C401.036 124.517 404.869 124.517 407.247 122.139L422.678 106.66C426.511 114.133 425.395 123.498 419.136 129.757C411.469 137.424 398.902 137.618 391.041 129.757C383.277 121.993 383.277 109.425 391.041 101.662C397.106 95.5966 406.18 93.9946 414.138 98.0706L398.659 113.55C396.28 115.928 396.28 119.761 398.658 122.139Z" fill="#000000"/>
<path d="M316.832 352.214C314.463 354.583 314.463 358.424 316.832 360.791C319.202 363.161 323.04 363.16 325.409 360.791C368.934 317.264 367.247 244.753 321.646 199.152C319.277 196.783 315.438 196.783 313.069 199.152C310.7 201.521 310.7 205.36 313.069 207.729C353.94 248.6 355.627 313.416 316.832 352.214Z" fill="#000000"/>
<path d="M302.72 338.1C300.351 340.469 300.351 344.308 302.72 346.677C305.09 349.047 308.928 349.046 311.297 346.677C347.415 310.559 346.031 250.408 308.212 212.589C305.843 210.22 302.004 210.22 299.635 212.589C297.266 214.958 297.266 218.797 299.635 221.166C332.725 254.256 334.109 306.711 302.72 338.1Z" fill="#000000"/>
<path d="M286.201 226.025C283.832 228.392 283.832 232.233 286.201 234.602C311.506 259.909 312.586 300.008 288.608 323.988C286.239 326.357 286.239 330.198 288.608 332.565C290.978 334.935 294.816 334.934 297.185 332.565C325.892 303.856 324.811 256.061 294.778 226.025C292.409 223.656 288.57 223.656 286.201 226.025Z" fill="#000000"/>
<path d="M283.074 318.451C304.721 296.804 303.329 261.442 281.34 239.462C278.971 237.093 275.132 237.093 272.763 239.462C270.394 241.831 270.394 245.672 272.763 248.039C290.587 265.858 290.849 293.522 274.497 309.874C272.128 312.243 272.128 316.082 274.497 318.451C276.866 320.82 280.704 320.82 283.074 318.451Z" fill="#000000"/>
<path d="M272.253 293.186C263.81 301.629 249.835 301.387 241.1 292.652C232.414 283.966 231.929 270.04 240.518 261.451C248.961 253.008 262.936 253.25 271.719 261.985C280.453 270.768 280.696 284.743 272.253 293.186Z" fill="#000000"/>
<path d="M214.202 415.166C227.624 428.584 249.056 429.056 261.987 416.13L311.34 366.777C313.709 364.408 313.709 360.569 311.34 358.2C308.971 355.831 305.132 355.831 302.763 358.2L253.41 407.551C245.236 415.73 231.494 415.299 222.779 406.589L103.966 287.774C95.051 278.859 94.993 265.159 103.004 257.148L201.711 158.441C209.673 150.484 223.385 150.455 232.337 159.403L283.799 210.865C286.168 213.234 290.007 213.234 292.376 210.865C294.745 208.496 294.745 204.657 292.376 202.288L240.914 150.826C227.799 137.716 206.463 136.535 193.134 149.864L94.427 248.571C81.308 261.69 82.107 283.078 95.389 296.351L214.202 415.166Z" fill="#000000"/>
<path d="M259.927 369.853L244.788 384.944C237.413 392.368 225.136 392.174 217.42 384.507L128.767 295.853C121.1 288.138 120.906 275.861 128.33 268.437L143.421 253.346C150.845 245.922 163.122 246.164 170.789 253.831L259.443 342.484C267.109 350.152 267.303 362.429 259.927 369.853Z" fill="#000000"/>
</svg>
