<svg width="512" height="512" viewBox="0 0 512 512" fill="none" xmlns="http://www.w3.org/2000/svg">
<path fill-rule="evenodd" clip-rule="evenodd" d="M249.925 21.3128L228.976 21.793L223.65 24.4197C217.452 27.4768 213.193 31.848 210.211 38.2142L208.09 42.7425L207.687 110.023C207.466 147.027 206.974 177.938 206.595 178.713C206.012 179.905 204.752 180.123 198.465 180.123C187.423 180.123 182.197 182.425 179.439 188.504C178.107 191.441 177.938 194.055 177.923 212.152L177.905 232.497H150.324C119.384 232.497 119.626 232.456 114.739 238.497L112.304 241.507L112.059 264.196C111.924 276.675 112.029 288.053 112.292 289.48C112.556 290.907 113.706 293.187 114.847 294.545C118.378 298.745 121.364 299.479 134.44 299.364C140.859 299.307 146.357 299.287 146.658 299.318C146.959 299.349 146.17 302.217 144.903 305.692C142.507 312.261 140.857 318.271 139.277 326.165L138.35 330.799H126.782C111.752 330.799 112.707 329.551 112.707 349.188V363.995L115.49 366.782L118.274 369.568L128.405 369.32L138.538 369.072L138.983 371.086C141.203 381.145 143.596 389.295 145.658 393.831C149.616 402.533 149.452 402.983 140.275 408.699C135.959 411.387 131.884 414.54 131.22 415.705C130.095 417.678 130.169 418.121 132.306 422.216C136.259 429.791 145.483 443.426 147.32 444.41C149.794 445.736 152.051 444.972 161.77 439.524C166.463 436.893 170.799 434.74 171.405 434.74C172.011 434.74 174.174 436.295 176.212 438.195C180.986 442.644 189.087 448.366 195.21 451.612C197.867 453.02 200.269 454.793 200.55 455.553C200.831 456.313 199.854 460.733 198.379 465.377C194.191 478.564 194.868 482.199 201.741 483.421C203.462 483.726 209.453 485.408 215.055 487.157C220.657 488.906 225.762 490.337 226.4 490.337C227.038 490.337 228.165 489.669 228.905 488.851C230.785 486.771 236.867 471.056 236.434 469.397C236.108 468.149 237.354 468.038 251.06 468.106C259.301 468.146 268.036 467.998 270.471 467.776L274.898 467.373L278.52 477.979C280.512 483.812 282.674 489.203 283.326 489.959C285.007 491.911 290.32 491.175 302.746 487.268C319.588 481.973 318.938 483.376 313.055 465.001C310.429 456.796 310.586 456.393 318.127 451.967C325.048 447.905 334.42 440.75 338.436 436.46C339.736 435.071 341.098 433.935 341.461 433.935C341.825 433.935 346.332 436.473 351.478 439.575C356.624 442.677 361.313 445.215 361.898 445.215C364.942 445.215 367.547 442.581 374.167 432.809C378.101 427.002 381.733 421.459 382.24 420.491C383.902 417.313 382.104 414.996 373.58 409.333C369.159 406.397 365.196 403.569 364.772 403.05C364.258 402.421 364.919 399.896 366.759 395.456C369.106 389.795 371.909 380.393 373.844 371.69L374.336 369.475L382.974 369.462C392.668 369.45 394.677 368.789 397.423 364.711C399.162 362.128 399.258 361.234 399.258 347.725C399.258 334.934 399.107 333.329 397.786 332.132C396.557 331.018 394.361 330.799 384.457 330.799C375.175 330.799 372.737 330.58 373.227 329.791C373.572 329.238 373.749 327.878 373.62 326.77C373.176 322.951 369.272 309.436 367.364 305.116C366.312 302.734 365.452 300.468 365.452 300.08C365.452 299.692 371.156 299.373 378.129 299.373C392.471 299.372 394.998 298.668 398.269 293.768C400.123 290.989 400.128 290.913 399.895 266.714C399.662 242.573 399.651 242.433 397.721 239.615C396.654 238.057 394.508 235.909 392.951 234.842L390.121 232.9H362.09H334.06V212.406C334.06 193.169 333.955 191.696 332.353 188.382C331.325 186.259 329.345 183.989 327.385 182.689C324.375 180.693 323.375 180.506 314.402 180.263L304.68 180.001L304.433 112.58C304.16 38.4027 304.264 39.9764 299.204 33.3354C293.547 25.9112 284.964 21.5513 275.006 21.0436C272.733 20.9284 261.446 21.0493 249.925 21.3128ZM231.203 34.9106C228.227 35.9436 222.877 40.5211 221.106 43.5483C220.407 44.7448 220.164 62.5342 220.164 112.599C220.164 176.771 220.234 180.055 221.608 180.416C223.228 180.843 271.163 180.757 284.019 180.306C291.046 180.059 292.262 179.824 291.866 178.791C291.608 178.119 291.393 147.842 291.389 111.509C291.383 55.6402 291.203 45.1034 290.224 43.2082C288.521 39.9127 283.803 36.0741 280.342 35.1701C275.446 33.8905 234.761 33.6762 231.203 34.9106ZM191.908 194.224C191.753 194.667 191.528 203.464 191.407 213.773L191.187 232.516L256.184 232.488L321.181 232.461V213.15V193.84L256.685 193.629C214.221 193.49 192.093 193.694 191.908 194.224ZM250.025 245.19C160.689 245.338 126.655 245.641 125.867 246.296C125.004 247.013 124.782 251.696 124.785 269.055L124.788 290.914L127.24 288.295L129.692 285.676H146.152C161.539 285.676 162.717 285.781 164.222 287.288C165.107 288.174 165.832 289.617 165.832 290.492C165.832 291.369 163.982 295.77 161.721 300.273C155.067 313.528 152.22 323.104 150.495 338.034C148.279 357.23 153.052 382.024 162.255 399.12C169.677 412.904 178.019 423.414 187.872 431.393C201.721 442.607 215.857 449.349 234.25 453.509C240.454 454.912 244.326 455.225 254.775 455.167C273.333 455.064 287.415 451.858 303.875 443.991C319.544 436.503 330.017 427.921 340.427 414.042C355.405 394.073 361.594 375.104 361.673 348.928C361.726 331.11 357.988 314.964 350.238 299.532C346.612 292.314 346.15 289.057 348.455 286.97C349.8 285.751 352.05 285.61 368.377 285.723L386.782 285.85L386.998 266.002C387.165 250.539 386.987 246.081 386.193 245.819C383.908 245.068 367.93 244.995 250.025 245.19ZM240.287 269.167C229.085 271.241 217.401 276.274 208.895 282.69C202.453 287.549 192.68 297.768 188.41 304.11C172.402 327.885 170.266 362.57 183.341 386.395C195.183 407.972 212.032 422.088 234.011 428.846C240.527 430.849 242.215 431.025 255.178 431.06C267.377 431.093 270.152 430.854 275.888 429.28C301.64 422.215 322.937 402.958 332.149 378.409C339.239 359.514 338.86 338.128 331.094 318.778C324.187 301.572 315.412 291.072 298.949 280.313C285.984 271.841 272.108 267.917 255.58 268.047C250.268 268.09 243.386 268.594 240.287 269.167ZM247.675 281.693C236.571 282.984 223.686 288.202 214.932 294.949C203.674 303.627 196.221 314.596 191.119 329.993C189.028 336.303 188.847 337.825 188.825 349.331C188.796 363.871 190.148 370.064 195.85 381.504C201.217 392.27 214.298 405.05 225.798 410.762C243.518 419.564 264.065 420.258 283.11 412.699C305.004 404.01 321.757 379.615 323.309 354.165C324.572 333.455 317.768 315.853 302.752 300.986C290.871 289.222 278.487 283.42 261.549 281.679C257.066 281.219 253.345 280.89 253.281 280.948C253.218 281.006 250.694 281.342 247.675 281.693ZM245.81 306.218C225.447 310.652 211.712 328.401 211.712 350.285C211.712 362.622 215.016 370.896 223.591 380.031C241.207 398.796 270.993 398.159 288.998 378.634C297.555 369.352 301.892 356.325 300.281 344.733C298.651 333 294.828 325.486 286.334 317.322C275.516 306.923 260.93 302.927 245.81 306.218ZM247.719 319.537C236.664 322.332 227.711 332.23 225.372 344.245C222.828 357.309 229.97 371.283 242.299 377.363C246.301 379.337 247.578 379.546 255.597 379.546C263.999 379.546 264.752 379.406 269.842 376.898C276.073 373.827 280.95 368.796 284.066 362.223C285.918 358.317 286.166 356.789 286.161 349.331C286.153 339.353 284.816 335.834 278.338 328.737C272.582 322.433 266.099 319.43 257.441 319.059C253.761 318.901 249.387 319.116 247.719 319.537ZM373.903 343.923C373.438 344.487 373.268 347.524 373.501 351.119C373.842 356.397 374.086 357.222 375.111 356.57C375.775 356.147 378.373 355.796 380.885 355.789L385.452 355.777L385.715 349.329L385.977 342.881L380.343 342.914C376.946 342.933 374.389 343.334 373.903 343.923ZM131.824 345.943L126.391 346.181V350.108C126.391 355.845 126.665 356.194 131.085 356.078C137.595 355.907 138.472 355.358 138.408 351.493C138.315 345.97 137.964 345.674 131.824 345.943ZM150.329 418.752C145.216 422.251 145.211 422.308 149.516 427.402L151.826 430.135L156.213 427.046C158.626 425.347 160.725 423.871 160.878 423.765C161.216 423.532 156.396 416.436 155.558 415.935C155.232 415.739 152.879 417.007 150.329 418.752ZM353.776 419.999C352.165 422.429 350.963 424.487 351.106 424.572C351.249 424.657 353.383 426.034 355.85 427.632L360.334 430.536L363.348 425.709C365.006 423.053 366.248 420.812 366.108 420.728C365.968 420.644 364.586 419.652 363.037 418.525C358.029 414.88 357.07 415.033 353.776 419.999ZM212.627 467.019L211.048 471.701L214.743 472.962C216.775 473.655 218.922 474.222 219.512 474.222C220.411 474.222 225.045 465.434 224.4 464.954C224.283 464.867 221.943 464.242 219.198 463.566L214.207 462.336L212.627 467.019ZM293.467 464.697C287.777 466.474 287.845 466.42 288.91 468.302C289.373 469.121 290.134 471.321 290.6 473.19C291.416 476.464 291.544 476.572 294.039 476.109C295.465 475.844 297.768 475.109 299.158 474.473L301.685 473.317L300.212 468.446C299.402 465.767 298.626 463.491 298.49 463.391C298.353 463.29 296.092 463.878 293.467 464.697Z" fill="#000000"/>
</svg>
