<?xml version="1.0" encoding="UTF-8"?>
<svg id="Layer_2" data-name="Layer 2" xmlns="http://www.w3.org/2000/svg" viewBox="0 0 47.41 31.61">
  <defs>
    <style>
      .cls-1 {
        fill: #000000;
      }
    </style>
  </defs>
  <g id="Layer_1-2" data-name="Layer 1">
    <g>
      <path class="cls-1" d="M45.04,0H2.37C1.06,0,0,1.06,0,2.37v26.86c0,1.31,1.06,2.37,2.37,2.37h42.67c1.31,0,2.37-1.06,2.37-2.37V2.37c0-1.31-1.06-2.37-2.37-2.37ZM45.83,29.24c0,.44-.35.79-.79.79H2.37c-.44,0-.79-.35-.79-.79V2.37c0-.44.35-.79.79-.79h42.67c.44,0,.79.35.79.79v26.86Z"/>
      <path class="cls-1" d="M32.4,3.16H3.95c-.44,0-.79.35-.79.79v15.8c0,.44.35.79.79.79h28.44c.44,0,.79-.35.79-.79V3.95c0-.44-.35-.79-.79-.79ZM31.61,18.96H4.74V4.74h26.86v14.22Z"/>
      <path class="cls-1" d="M43.46,3.16h-7.9c-.44,0-.79.35-.79.79v7.9c0,.44.35.79.79.79h7.9c.44,0,.79-.35.79-.79V3.95c0-.44-.35-.79-.79-.79ZM42.67,11.06h-6.32v-6.32h6.32v6.32Z"/>
      <path class="cls-1" d="M43.46,18.96h-7.9c-.44,0-.79.35-.79.79v7.9c0,.44.35.79.79.79h7.9c.44,0,.79-.35.79-.79v-7.9c0-.44-.35-.79-.79-.79ZM42.67,26.86h-6.32v-6.32h6.32v6.32Z"/>
      <path class="cls-1" d="M18.17,22.12c-1.75,0-3.16,1.42-3.16,3.16s1.42,3.16,3.16,3.16,3.16-1.42,3.16-3.16-1.42-3.16-3.16-3.16ZM18.17,26.86c-.87,0-1.58-.71-1.58-1.58s.71-1.58,1.58-1.58,1.58.71,1.58,1.58-.71,1.58-1.58,1.58Z"/>
      <path class="cls-1" d="M26.07,22.12c-1.75,0-3.16,1.42-3.16,3.16s1.42,3.16,3.16,3.16,3.16-1.42,3.16-3.16-1.42-3.16-3.16-3.16ZM26.07,26.86c-.87,0-1.58-.71-1.58-1.58s.71-1.58,1.58-1.58,1.58.71,1.58,1.58-.71,1.58-1.58,1.58Z"/>
      <path class="cls-1" d="M10.27,22.12c-1.75,0-3.16,1.42-3.16,3.16s1.42,3.16,3.16,3.16,3.16-1.42,3.16-3.16-1.42-3.16-3.16-3.16ZM10.27,26.86c-.87,0-1.58-.71-1.58-1.58s.71-1.58,1.58-1.58,1.58.71,1.58,1.58-.71,1.58-1.58,1.58Z"/>
      <rect class="cls-1" x="6.32" y="8.69" width="7.11" height="1.58"/>
      <rect class="cls-1" x="15.01" y="8.69" width="7.11" height="1.58"/>
      <rect class="cls-1" x="23.7" y="8.69" width="6.32" height="1.58"/>
      <rect class="cls-1" x="6.32" y="11.06" width="23.7" height="1.58"/>
      <rect class="cls-1" x="6.32" y="13.43" width="11.06" height="1.58"/>
      <rect class="cls-1" x="18.96" y="13.43" width="11.06" height="1.58"/>
      <path class="cls-1" d="M39.51,5.53c-1.31,0-2.37,1.06-2.37,2.37s1.06,2.37,2.37,2.37,2.37-1.06,2.37-2.37-1.06-2.37-2.37-2.37ZM39.51,8.69c-.44,0-.79-.35-.79-.79s.35-.79.79-.79.79.35.79.79-.35.79-.79.79Z"/>
      <path class="cls-1" d="M39.51,21.33c-1.31,0-2.37,1.06-2.37,2.37s1.06,2.37,2.37,2.37,2.37-1.06,2.37-2.37-1.06-2.37-2.37-2.37ZM39.51,24.49c-.44,0-.79-.35-.79-.79s.35-.79.79-.79.79.35.79.79-.35.79-.79.79Z"/>
      <rect class="cls-1" x="34.77" y="15.01" width="3.16" height="1.58"/>
      <rect class="cls-1" x="39.51" y="15.01" width="4.74" height="1.58"/>
    </g>
  </g>
</svg>