<?xml version="1.0" encoding="UTF-8"?>
<svg id="Layer_2" data-name="Layer 2" xmlns="http://www.w3.org/2000/svg" viewBox="0 0 30.3 30.3">
  <defs>
    <style>
      .cls-1 {
        fill: #000000;
      }
    </style>
  </defs>
  <g id="Layer_1-2" data-name="Layer 1">
    <g id="_1270_Competition_scoreboard_scoring_sports_stadium" data-name="1270, Competition, scoreboard, scoring, sports, stadium">
      <g>
        <path class="cls-1" d="M29.67,0H.63c-.35,0-.63.28-.63.63v23.99c0,.35.28.63.63.63h8.84v1.89c0,.35.28.63.63.63h3.16v1.89c0,.35.28.63.63.63h2.52c.35,0,.63-.28.63-.63v-1.89h3.16c.35,0,.63-.28.63-.63v-1.89h8.84c.35,0,.63-.28.63-.63V.63c0-.35-.28-.63-.63-.63ZM15.78,29.04h-1.26v-1.26h1.26v1.26ZM19.57,26.51h-8.84v-1.26h8.84v1.26ZM29.04,23.99H1.26V1.26h27.77v22.72Z"/>
        <path class="cls-1" d="M4.42,21.46h21.46c.35,0,.63-.28.63-.63V5.68c0-.35-.28-.63-.63-.63H4.42c-.35,0-.63.28-.63.63v15.15c0,.35.28.63.63.63h0ZM5.05,6.31h20.2v13.89H5.05V6.31Z"/>
        <path class="cls-1" d="M9.47,7.57c-1.74,0-3.16,1.42-3.16,3.16v5.05c0,1.74,1.42,3.16,3.16,3.16s3.16-1.42,3.16-3.16v-5.05c0-1.74-1.42-3.16-3.16-3.16h0ZM11.36,15.78c0,1.04-.85,1.89-1.89,1.89s-1.89-.85-1.89-1.89v-5.05c0-1.04.85-1.89,1.89-1.89s1.89.85,1.89,1.89v5.05Z"/>
        <path class="cls-1" d="M20.83,7.57c-1.74,0-3.16,1.42-3.16,3.16v5.05c0,1.74,1.42,3.16,3.16,3.16s3.16-1.42,3.16-3.16v-5.05c0-1.74-1.42-3.16-3.16-3.16h0ZM22.72,15.78c0,1.04-.85,1.89-1.89,1.89s-1.89-.85-1.89-1.89v-5.05c0-1.04.85-1.89,1.89-1.89s1.89.85,1.89,1.89v5.05Z"/>
        <path class="cls-1" d="M15.15,9.47c-.35,0-.63.28-.63.63s.28.63.63.63.63-.28.63-.63-.28-.63-.63-.63Z"/>
        <path class="cls-1" d="M15.15,15.78c-.35,0-.63.28-.63.63s.28.63.63.63.63-.28.63-.63-.28-.63-.63-.63Z"/>
        <path class="cls-1" d="M4.42,3.79c.35,0,.63-.28.63-.63s-.28-.63-.63-.63-.63.28-.63.63.28.63.63.63Z"/>
        <path class="cls-1" d="M12.62,3.79c.35,0,.63-.28.63-.63s-.28-.63-.63-.63-.63.28-.63.63.28.63.63.63Z"/>
        <path class="cls-1" d="M6.94,3.79h3.16c.35,0,.63-.28.63-.63s-.28-.63-.63-.63h-3.16c-.35,0-.63.28-.63.63s.28.63.63.63Z"/>
        <path class="cls-1" d="M17.04,3.79c.35,0,.63-.28.63-.63s-.28-.63-.63-.63-.63.28-.63.63.28.63.63.63Z"/>
        <path class="cls-1" d="M25.25,3.79c.35,0,.63-.28.63-.63s-.28-.63-.63-.63-.63.28-.63.63c0,.35.28.63.63.63Z"/>
        <path class="cls-1" d="M19.57,3.79h3.16c.35,0,.63-.28.63-.63s-.28-.63-.63-.63h-3.16c-.35,0-.63.28-.63.63s.28.63.63.63Z"/>
      </g>
    </g>
  </g>
</svg>