<?xml version="1.0" encoding="UTF-8"?>
<svg id="Layer_2" data-name="Layer 2" xmlns="http://www.w3.org/2000/svg" viewBox="0 0 89.07 85.07">
  <defs>
    <style>
      .cls-1 {
        fill: #000000;
      }
    </style>
  </defs>
  <g id="Layer_1-2" data-name="Layer 1">
    <g>
      <path class="cls-1" d="M83.77,21.91v-7.49c3.06-.88,5.31-3.71,5.31-7.06C89.07,3.3,85.79,0,81.76,0s-7.32,3.3-7.32,7.35c0,3.55,2.51,6.52,5.85,7.2v7.24h-13.81v-7.37c3.06-.88,5.3-3.71,5.3-7.07,0-4.05-3.28-7.35-7.32-7.35s-7.32,3.3-7.32,7.35c0,3.55,2.52,6.52,5.85,7.2v7.24h-15.54v-7.37c3.06-.88,5.3-3.71,5.3-7.07,0-4.05-3.28-7.35-7.32-7.35s-7.32,3.3-7.32,7.35c0,3.55,2.52,6.52,5.85,7.2v7.24h-15.54v-7.37c3.06-.88,5.3-3.71,5.3-7.07,0-4.05-3.28-7.35-7.32-7.35s-7.32,3.3-7.32,7.35c0,3.55,2.52,6.52,5.85,7.2v7.24h-15.63v-7.37c3.06-.88,5.3-3.71,5.3-7.07C14.63,3.3,11.35,0,7.32,0,3.28,0,0,3.3,0,7.35c0,3.55,2.52,6.52,5.85,7.2v7.35c-3.04.56-5.35,3.24-5.35,6.45v26.04c0,3.21,2.31,5.89,5.35,6.45v12.05c0,.96.78,1.74,1.74,1.74s1.74-.78,1.74-1.74v-11.94h15.63v22.38c0,.96.78,1.74,1.74,1.74s1.74-.78,1.74-1.74v-22.38h15.54v13.68c0,.96.78,1.74,1.74,1.74s1.74-.78,1.74-1.74v-13.68h15.54v8.46c0,.96.78,1.74,1.74,1.74s1.74-.78,1.74-1.74v-8.46h13.81v11.94c0,.96.78,1.74,1.74,1.74s1.74-.78,1.74-1.74v-12.06c3.01-.58,5.29-3.25,5.29-6.44v-26.04c0-3.19-2.28-5.86-5.29-6.44ZM77.92,7.35c0-2.13,1.72-3.87,3.84-3.87s3.84,1.74,3.84,3.87-1.72,3.87-3.84,3.87c-2.12,0-3.84-1.74-3.84-3.87ZM60.63,7.35c0-2.13,1.72-3.87,3.84-3.87s3.84,1.74,3.84,3.87-1.72,3.87-3.84,3.87c-2.12,0-3.84-1.74-3.84-3.87ZM41.61,7.35c0-2.13,1.72-3.87,3.84-3.87s3.84,1.74,3.84,3.87-1.72,3.87-3.84,3.87c-2.12,0-3.84-1.74-3.84-3.87ZM22.59,7.35c0-2.13,1.72-3.87,3.84-3.87s3.84,1.74,3.84,3.87-1.72,3.87-3.84,3.87c-2.12,0-3.84-1.74-3.84-3.87ZM3.48,7.35c0-2.13,1.72-3.87,3.84-3.87s3.84,1.74,3.84,3.87-1.72,3.87-3.84,3.87-3.84-1.74-3.84-3.87ZM82.52,57.47H7.04c-1.68,0-3.05-1.38-3.05-3.08v-26.04c0-1.7,1.37-3.08,3.05-3.08h75.49c1.68,0,3.05,1.38,3.05,3.08v26.04h0c0,1.7-1.37,3.08-3.05,3.08Z"/>
      <path class="cls-1" d="M77.49,29.79H12.07c-.96,0-1.74.78-1.74,1.74v19.68c0,.96.78,1.74,1.74,1.74h65.42c.96,0,1.74-.78,1.74-1.74v-19.68c0-.96-.78-1.74-1.74-1.74ZM75.75,49.47H13.81v-16.2h61.94v16.2Z"/>
      <path class="cls-1" d="M46.19,39.63c-.96,0-1.74.78-1.74,1.74s.78,1.74,1.74,1.74,1.74-.78,1.74-1.74-.78-1.74-1.74-1.74Z"/>
      <path class="cls-1" d="M39.23,39.63h-19.14c-.96,0-1.74.78-1.74,1.74s.78,1.74,1.74,1.74h19.14c.96,0,1.74-.78,1.74-1.74s-.78-1.74-1.74-1.74Z"/>
      <path class="cls-1" d="M69.47,39.63h-16.31c-.96,0-1.74.78-1.74,1.74s.78,1.74,1.74,1.74h16.31c.96,0,1.74-.78,1.74-1.74s-.78-1.74-1.74-1.74Z"/>
    </g>
  </g>
</svg>