<?xml version="1.0" encoding="UTF-8"?>
<svg id="Layer_2" data-name="Layer 2" xmlns="http://www.w3.org/2000/svg" viewBox="0 0 88.9 88.9">
  <defs>
    <style>
      .cls-1 {
        fill: #000000;
      }
    </style>
  </defs>
  <g id="Layer_1-2" data-name="Layer 1">
    <g>
      <path class="cls-1" d="M81.73,22.94H7.17c-3.95,0-7.17,3.22-7.17,7.17v51.62c0,3.95,3.22,7.17,7.17,7.17h74.56c3.95,0,7.17-3.22,7.17-7.17V30.11c0-3.95-3.22-7.17-7.17-7.17ZM86.03,30.11v13.3l-8.6,2.87v2.47h-8.6v-22.94h12.9c2.37,0,4.3,1.93,4.3,4.3ZM86.03,46.44v18.96l-5.74-1.91v-15.14l5.74-1.91ZM77.43,60.22h-8.6v-8.6h8.6v8.6ZM28.68,60.22v-28.68h31.54v28.68h-31.54ZM57.35,63.09v22.94h-25.81v-22.94h25.81ZM60.22,63.09h2.87V28.68H25.81v34.41h2.87v22.94h-5.74V25.81h43.01v60.22h-5.74v-22.94h0ZM11.47,51.62h8.6v8.6h-8.6v-8.6ZM7.17,25.81h12.9v22.94h-8.6v-2.47l-8.6-2.87v-13.3c0-2.37,1.93-4.3,4.3-4.3ZM8.6,48.35v15.14l-5.74,1.91v-18.96l5.74,1.91ZM2.87,81.73v-13.3l8.6-2.87v-2.47h8.6v22.94H7.17c-2.37,0-4.3-1.93-4.3-4.3ZM81.73,86.03h-12.9v-22.94h8.6v2.47l8.6,2.87v13.3c0,2.37-1.93,4.3-4.3,4.3Z"/>
      <path class="cls-1" d="M31.54,43.01h2.87c1.58,0,2.87,1.29,2.87,2.87,0,.77-.3,1.49-.84,2.03-.54.54-1.26.84-2.03.84h-2.87v2.87h2.87c1.53,0,2.97-.6,4.06-1.68,1.08-1.08,1.68-2.52,1.68-4.06,0-3.16-2.57-5.74-5.74-5.74v-2.87s5.74,0,5.74,0v-2.87h-8.6v8.6h0Z"/>
      <path class="cls-1" d="M48.75,51.62v-14.34c0-1.58-1.29-2.87-2.87-2.87h-2.87v2.87h2.87v14.34h2.87Z"/>
      <rect class="cls-1" x="51.62" y="34.41" width="5.74" height="2.87"/>
      <rect class="cls-1" x="51.62" y="40.15" width="5.74" height="2.87"/>
      <rect class="cls-1" x="51.62" y="45.88" width="5.74" height="2.87"/>
      <rect class="cls-1" x="31.54" y="54.48" width="2.87" height="2.87"/>
      <rect class="cls-1" x="37.28" y="54.48" width="2.87" height="2.87"/>
      <rect class="cls-1" x="48.75" y="54.48" width="2.87" height="2.87"/>
      <rect class="cls-1" x="54.48" y="54.48" width="2.87" height="2.87"/>
      <rect class="cls-1" x="43.01" y="54.48" width="2.87" height="2.87"/>
      <polygon class="cls-1" points="44.45 80 40.94 77.67 39.35 80.05 44.45 83.45 49.54 80.05 47.95 77.67 44.45 80"/>
      <polygon class="cls-1" points="44.45 69.11 47.95 71.45 49.54 69.06 44.45 65.67 39.35 69.06 40.94 71.45 44.45 69.11"/>
      <circle class="cls-1" cx="44.45" cy="74.56" r="1.43"/>
      <path class="cls-1" d="M44.45,2.87c4.6,0,8.92,1.79,12.17,5.04l2.03-2.03c-3.79-3.79-8.83-5.88-14.19-5.88s-10.4,2.09-14.19,5.88l2.03,2.03c3.25-3.25,7.57-5.04,12.17-5.04Z"/>
      <path class="cls-1" d="M54.59,9.93c-5.59-5.59-14.69-5.59-20.28,0l2.03,2.03c4.47-4.47,11.75-4.47,16.22,0l2.03-2.03Z"/>
      <path class="cls-1" d="M38.37,13.99l2.03,2.03c2.24-2.24,5.87-2.24,8.11,0l2.03-2.03c-1.62-1.62-3.79-2.52-6.08-2.52-2.3,0-4.46.9-6.08,2.52Z"/>
    </g>
  </g>
</svg>