<?xml version="1.0" encoding="UTF-8"?>
<svg id="Layer_2" data-name="Layer 2" xmlns="http://www.w3.org/2000/svg" viewBox="0 0 58.02 41">
  <defs>
    <style>
      .cls-1 {
        fill: #000000;
      }
    </style>
  </defs>
  <g id="Layer_1-2" data-name="Layer 1">
    <path class="cls-1" d="M57.04,23.01c-.55,0-1,.45-1,1v1h-2v-1c0-.55-.45-1-1-1s-1,.45-1,1v1h-2v-1c0-.55-.45-1-1-1s-1,.45-1,1v1h-2c-.27,0-.52.11-.71.29l-1.71,1.71h-2.59v-2c0-1.1-.9-2-2-2h-4v-4h1c1.1,0,2-.9,2-2v-.32l8.88-3.46s.1-.05.15-.08c.6-.36.97-1.02.97-1.71v-4.96c0-.66-.33-1.28-.88-1.66-.52-.35-1.16-.44-1.75-.24l-7.98,1.34c-.7-1.15-1.96-1.92-3.4-1.92v-2c0-1.1-.9-2-2-2h-6c-1.1,0-2,.9-2,2v2c-1.44,0-2.7.77-3.4,1.92l-7.98-1.34c-.59-.19-1.23-.11-1.75.24-.55.37-.88.99-.88,1.66v4.96c0,.7.37,1.35.97,1.71.05.03.1.05.15.07l8.88,3.46v.32c0,1.1.9,2,2,2h1v4h-4c-1.1,0-2,.9-2,2v2h-2.59l-1.71-1.71c-.19-.19-.44-.29-.71-.29h-2v-1c0-.55-.45-1-1-1s-1,.45-1,1v1h-2v-1c0-.55-.45-1-1-1s-1,.45-1,1v1h-2v-1c0-.55-.45-1-1-1s-1,.45-1,1v16c0,.55.45,1,1,1s1-.45,1-1v-1h2v1c0,.55.45,1,1,1s1-.45,1-1v-1h2v1c0,.55.45,1,1,1s1-.45,1-1v-1h2c.27,0,.52-.11.71-.29l1.71-1.71h2.59v2c0,1.1.9,2,2,2h20c1.1,0,2-.9,2-2v-2h2.59l1.71,1.71c.19.19.44.29.71.29h2v1c0,.55.45,1,1,1s1-.45,1-1v-1h2v1c0,.55.45,1,1,1s1-.45,1-1v-1h2v1c0,.55.45,1,1,1s1-.45,1-1v-16c0-.55-.45-1-1-1h.02ZM38.04,7.86l7.79-1.31c.07-.01.14-.03.21-.06v4.94l-8,3.12v-6.69ZM26.04,2.01h6v2h-6v-2ZM12.04,11.43v-4.94c.07.03.14.05.21.06l7.79,1.31v6.69l-8-3.12ZM22.04,8.01c0-1.1.9-2,2-2h10c1.1,0,2,.9,2,2v9h-14v-9ZM25.04,19.01h8v4h-8v-4ZM2.04,37.01v-10h2v10h-2ZM6.04,37.01v-10h2v10h-2ZM14.04,35.01c-.27,0-.52.11-.71.29l-1.71,1.71h-1.59v-10h1.59l1.71,1.71c.19.19.44.29.71.29h3v6h-3ZM19.04,39.01v-14h20v14h-20ZM46.45,37.01l-1.71-1.71c-.19-.19-.44-.29-.71-.29h-3v-6h3c.27,0,.52-.11.71-.29l1.71-1.71h1.59v10h-1.59ZM50.04,37.01v-10h2v10h-2ZM54.04,37.01v-10h2v10h-2Z"/>
  </g>
</svg>