<?xml version="1.0" encoding="UTF-8"?>
<svg id="Layer_2" data-name="Layer 2" xmlns="http://www.w3.org/2000/svg" viewBox="0 0 105.43 59.74">
  <defs>
    <style>
      .cls-1 {
        fill: #000000;
      }
    </style>
  </defs>
  <g id="Layer_1-2" data-name="Layer 1">
    <g id="dc_motor-electronics-2" data-name="dc motor-electronics-2">
      <path class="cls-1" d="M103.67,24.6h-3.51v-5.27c0-.97-.79-1.76-1.76-1.76h-3.51v-7.03h7.03v-3.51h-7.03v-1.76c0-2.91-2.36-5.26-5.27-5.27h-54.47c-2.91,0-5.26,2.36-5.27,5.27v12.3h-5.27c-.97,0-1.76.79-1.76,1.76v5.27h-7.03v-3.51c0-.97-.79-1.76-1.76-1.76H1.76c-.97,0-1.76.79-1.76,1.76v17.57c0,.97.79,1.76,1.76,1.76h12.3c.97,0,1.76-.79,1.76-1.76v-3.51h7.03v5.27c0,.97.79,1.76,1.76,1.76h5.27v12.3c0,2.91,2.36,5.26,5.27,5.27h54.47c2.91,0,5.26-2.36,5.27-5.27v-1.76h7.03v-3.51h-7.03v-7.03h3.51c.97,0,1.76-.79,1.76-1.76v-5.27h3.51c.97,0,1.76-.79,1.76-1.76v-7.03c0-.97-.79-1.76-1.76-1.76ZM12.3,36.9H3.51v-1.76h8.79v1.76ZM12.3,31.63H3.51v-3.51h8.79v3.51ZM12.3,24.6H3.51v-1.76h8.79v1.76ZM22.84,31.63h-7.03v-3.51h7.03v3.51ZM29.87,38.66h-3.51v-17.57h3.51v17.57ZM77.32,42.17h-36.9v-24.6h36.9v24.6ZM77.32,14.06h-38.66c-.97,0-1.76.79-1.76,1.76v28.12c0,.97.79,1.76,1.76,1.76h38.66v10.54h-42.17c-.97,0-1.76-.79-1.76-1.76V5.27c0-.97.79-1.76,1.76-1.76h42.17v10.54ZM91.37,54.47c0,.97-.79,1.76-1.76,1.76h-8.79V3.51h8.79c.97,0,1.76.79,1.76,1.76v49.2ZM96.65,38.66h-1.76v-17.57h1.76v17.57ZM101.92,31.63h-1.76v-3.51h1.76v3.51Z"/>
    </g>
  </g>
</svg>