<svg width="512" height="512" viewBox="0 0 512 512" fill="none" xmlns="http://www.w3.org/2000/svg">
<path fill-rule="evenodd" clip-rule="evenodd" d="M148.074 21.1985C115.707 24.7136 86.449 42.8379 71.6919 68.5139C65.3199 79.6007 62.7671 88.6658 62.0958 102.591C60.7191 131.139 74.1869 152.457 101.803 165.44L108.358 168.521L119.26 182.542C135.648 203.619 148.091 220.545 158.43 235.822L167.73 249.564L163.453 251.639L159.176 253.713L157.686 264.454L156.196 275.196L153.615 276.515C152.196 277.24 143.837 281.285 135.039 285.503L119.042 293.174L118.156 300.482C117.669 304.502 117.118 308.318 116.934 308.961C116.743 309.623 122.275 319.116 129.666 330.815C136.855 342.191 153.304 368.333 166.221 388.908C186.131 420.625 205.277 451.059 225.868 483.73C228.862 488.479 230.81 490.842 231.859 490.995C232.715 491.119 238.027 488.903 243.665 486.069C254.671 480.536 319.495 446.861 319.88 446.476C320.008 446.349 321.267 439.116 322.68 430.404C324.482 419.285 325.032 414.162 324.526 413.216C324.129 412.474 306.396 386.284 285.118 355.015C263.841 323.745 236.66 283.711 224.716 266.05C203.896 235.263 202.918 233.956 200.997 234.34C199.895 234.561 194.453 236.901 188.904 239.54L178.815 244.338L170.914 232.728C159.206 215.526 147.683 199.527 138.638 187.916C131.563 178.834 130.851 177.664 132.677 178.127C145.112 181.283 162.041 181.938 174.275 179.736C183.283 178.115 193.727 174.623 201.606 170.6C219.42 161.502 234.849 145.37 240.793 129.63C246.405 114.763 248.731 99.9133 246.85 90.9482C246.313 88.388 245.812 82.2927 245.736 77.4035C245.583 67.525 244.169 61.7104 239.969 53.698C237.151 48.3191 228.828 39.831 222.998 36.3893C217.195 32.9631 207.969 29.9118 199.145 28.4998C195.074 27.8487 189.078 26.5115 185.822 25.5278C182.565 24.544 177.414 23.2187 174.375 22.5831C168.781 21.4126 153.508 20.6081 148.074 21.1985ZM142.153 25.55C129.767 27.5516 118.221 31.7386 107.366 38.165C87.0204 50.2096 73.5149 66.7538 67.7328 86.713C65.4517 94.5899 64.9114 110.11 66.6241 118.584C69.5366 132.993 76.813 144.658 88.4918 153.642C92.4361 156.677 100.351 161.484 101.402 161.484C102.125 161.484 94.5892 152.828 91.4584 150.062C79.0927 139.138 73.2159 129.66 70.4255 116.136C65.0594 90.134 78.8085 61.543 104.936 44.3721C134.643 24.8484 169.31 22.6749 196.402 38.6369C202.466 42.2097 213.477 53.3824 217.228 59.7681C223.513 70.4681 226.297 81.6919 226.286 96.2938L226.279 106.295L228.774 101.479C231.69 95.8522 231.979 92.0016 230.237 82.0001C226.386 59.8977 211.774 40.5555 192.214 31.6652C189.513 30.4377 183.472 28.4546 178.79 27.2597C168.181 24.5506 152.783 23.8328 142.153 25.55ZM150.452 35.1892C131.974 40.0962 116.65 46.41 105.515 53.7032C89.3919 64.264 77.2223 79.3533 74.0848 92.6742C72.6659 98.6977 72.6578 109.985 74.067 116.644C75.2905 122.425 79.1075 130.989 82.6772 135.964C83.9769 137.775 85.1353 139.162 85.2515 139.047C85.3669 138.93 84.6668 136.642 83.6949 133.962C82.7231 131.282 81.0415 124.96 79.9586 119.914C75.3986 98.6651 78.5457 85.3293 91.3296 71.7275C101.584 60.8178 116.222 50.48 128.889 45.2018C136.244 42.1371 156.387 36.633 165.96 35.0722C174.192 33.7298 174.406 33.0876 166.883 32.306C163.619 31.9667 160.574 32.5009 150.452 35.1892ZM135.491 34.3966C124.009 37.3923 116.359 40.9215 105.833 48.0776C102.198 50.5496 98.2248 53.4417 97.0036 54.5047C94.2695 56.8849 95.3427 56.29 102.925 51.2208C112.317 44.9418 125.419 39.0369 139.932 34.5418C147.47 32.2075 144.282 32.1031 135.491 34.3966ZM202.537 32.8579C206.358 36.2382 212.088 40.3377 215.175 41.9001C223.327 46.0256 230.388 52.9105 234.157 60.4096C238.204 68.4606 239.13 80.5074 236.493 90.7837C233.098 104.013 222.519 121.523 210.98 133.008C197.302 146.624 182.567 154.944 164.452 159.281C154.774 161.599 155.879 161.986 168.535 160.713C181.291 159.429 186.831 157.567 195.679 151.591C205.038 145.27 217.135 133.874 223.628 125.26C229.631 117.296 238.236 100.19 240.247 92.2194C241.069 88.9599 241.933 83.4595 242.166 79.9963C243.601 58.7095 230.595 40.7956 208.874 34.1402C204.134 32.6875 201.814 32.2186 202.537 32.8579ZM175.09 37.6101C175.09 37.9287 178.171 38.5798 181.936 39.0569C185.701 39.534 189.615 40.1237 190.633 40.3674C191.751 40.6355 191.166 40.0762 189.152 38.9539C186.479 37.4635 184.763 37.0901 180.456 37.0634C177.504 37.0449 175.09 37.2909 175.09 37.6101ZM158.806 41.5023C149.975 42.1638 144.579 43.2794 136.602 46.0945C122.982 50.8993 109.326 59.054 101.377 67.1286C85.0968 83.6654 79.0105 106.029 85.1153 126.88C94.7113 159.654 123.568 179.089 160.287 177.507C176.629 176.803 190.993 172.773 204.295 165.157C210.911 161.37 222.885 151.713 225.471 148.077C226.945 146.006 226.46 146.263 222.419 149.693C212.498 158.118 203.527 163.158 191.003 167.345C178.828 171.414 170.253 172.829 157.696 172.838C123.77 172.863 99.5423 156.649 89.816 127.407C87.6851 121.003 87.4704 119.504 87.4282 110.739C87.389 102.621 87.654 100.241 89.1151 95.5848C96.954 70.5993 119.09 52.8194 149.648 46.9656C159.17 45.1418 173.976 45.3137 184.267 47.3686C193.394 49.1902 199.979 51.4882 206.758 55.2151C212.115 58.1606 212.036 57.3175 206.409 51.463C203.26 48.1857 202.049 47.5049 196.179 45.7093C183.998 41.9838 171.364 40.5615 158.806 41.5023ZM220.011 50.0125C221.997 52.7638 229.121 59.777 229.121 58.9806C229.121 57.9317 223.923 52.009 221.134 49.8799L218.42 47.8087L220.011 50.0125ZM155.776 49.6258C130.87 52.4979 110.453 64.5588 98.1938 83.6424C91.7759 93.6313 89.1188 109.056 91.71 121.276C93.3598 129.056 94.7868 131.541 101.416 138.181C110.267 147.045 123.098 154.377 135.212 157.495C142.75 159.435 158.749 157.872 170.75 154.021C178.597 151.504 191.368 144.819 198.141 139.684C205.254 134.292 216.491 122.762 219.111 118.167C221.59 113.819 222.815 106.119 222.766 95.1826C222.722 85.09 221.087 76.0256 218.086 69.2362C215.008 62.2705 199.799 54.0817 183.852 50.8037C176.751 49.3436 163.164 48.7739 155.776 49.6258ZM231.097 71.5764C233.887 79.5962 235.06 81.5542 235.009 78.1072C234.935 72.992 233.708 69.4258 231.141 66.856L228.554 64.2669L231.097 71.5764ZM241.532 99.2569C240.438 102.72 238.999 108.054 238.335 111.11C235.984 121.922 229.764 132.08 219.663 141.602C210.199 150.524 198.021 157.426 185.369 161.038C167.522 166.134 146.642 165.571 129.767 159.538C122.574 156.966 112.297 151.626 106.928 147.67C104.523 145.898 102.555 144.735 102.555 145.086C102.555 146.352 114.932 157.468 119.063 159.911C136.306 170.113 166.092 172.193 188.339 164.749C211.12 157.126 227.75 143.545 237.508 124.594C242.56 114.78 245.126 103.634 244.023 96.2938L243.522 92.9602L241.532 99.2569ZM228.937 124.259C227.913 125.787 225.122 129.377 222.732 132.237C216.851 139.277 215.638 141.156 219.87 136.667C224.806 131.433 232.163 121.481 231.095 121.481C230.932 121.481 229.96 122.731 228.937 124.259ZM115.137 171.575C115.137 171.779 117.733 175.175 120.905 179.123C134.781 196.392 152.382 220.338 163.595 237.2L170.84 248.096L172.965 246.996C174.133 246.392 175.09 245.704 175.09 245.469C175.09 243.805 143.546 199.564 131.649 184.543C125.011 176.162 123.993 175.198 119.763 173.291C117.219 172.144 115.137 171.372 115.137 171.575ZM265.203 204.715C254.721 209.703 245.836 214.1 245.457 214.488C244.596 215.369 241.438 247.869 242.107 248.953C242.377 249.39 256.282 268.307 273.008 290.992C289.734 313.677 311.515 343.238 321.412 356.684C363.734 414.183 369.257 421.503 370.32 421.503C371.327 421.503 440.093 386.281 445.722 382.882C447.84 381.602 448.154 380.905 449.229 375.107C449.878 371.605 450.177 368.36 449.892 367.896C449.608 367.433 445.511 362.054 440.786 355.943C433.022 345.898 417.788 326.044 398.023 300.213C341.356 226.15 320.896 199.671 320.118 199.392C319.746 199.258 314.856 201.325 309.253 203.985C303.649 206.645 298.694 208.921 298.24 209.043C297.787 209.165 295.028 206.181 292.111 202.413C288.956 198.338 286.29 195.578 285.534 195.603C284.834 195.628 275.686 199.727 265.203 204.715ZM269.452 206.755C260.907 210.853 252.999 214.543 251.88 214.956C250.761 215.369 249.845 215.88 249.845 216.092C249.845 216.304 255.45 224.022 262.302 233.243C269.153 242.465 296.838 279.844 323.824 316.31C350.81 352.776 373.466 383.22 374.172 383.965C375.408 385.268 376.131 384.98 393.721 376.171L411.987 367.024L391.241 339.63C379.83 324.563 356.94 294.234 340.374 272.233C306.241 226.901 287.029 201.539 285.816 200.21C285.176 199.509 281.484 200.985 269.452 206.755ZM309.427 207.804C304.949 209.983 300.953 211.898 300.548 212.059C300.141 212.219 301.745 214.924 304.111 218.07L308.412 223.79L309.819 221.999C314.558 215.969 325.893 218.377 327.266 225.705C328.186 230.611 324.144 235.554 319.207 235.56C317.268 235.563 317.949 236.626 330.721 253.528C338.188 263.408 357.715 289.25 374.113 310.955L403.929 350.418L405.408 348.535C408.715 344.329 413.865 343.368 418.657 346.063C421.467 347.644 423.783 351.159 423.778 353.832C423.774 355.695 421.224 359.749 419.462 360.693C418.671 361.116 416.987 361.542 415.721 361.638C413.03 361.843 412.982 362.009 414.899 364.462C416.533 366.553 416.725 369.568 415.631 375.993C415.219 378.411 414.728 381.303 414.54 382.42C414.207 384.4 414.58 384.259 429.722 376.675C438.259 372.399 445.245 368.598 445.245 368.229C445.245 367.86 443.973 365.945 442.419 363.973C440.865 362.001 433.606 352.554 426.288 342.979C418.97 333.404 407.478 318.403 400.749 309.643C381.8 284.973 337.072 226.793 327.709 214.636C323.081 208.626 318.905 203.739 318.431 203.774C317.957 203.811 313.905 205.623 309.427 207.804ZM247.655 221.767C247.638 222.531 247.11 228.575 246.481 235.197L245.337 247.238L267.062 276.774C279.01 293.018 296.409 316.644 305.725 329.274C315.042 341.905 329.521 361.573 337.901 372.981C346.281 384.389 356.621 398.458 360.878 404.246C365.452 410.464 368.811 414.403 369.089 413.876C369.348 413.386 370.132 408.317 370.831 402.613C371.53 396.909 372.267 391.392 372.469 390.353C372.775 388.776 368.365 382.44 345.651 351.832C330.7 331.684 303.443 294.919 285.081 270.132C248.228 220.384 247.699 219.701 247.655 221.767ZM316.088 222.076C314.526 222.399 312.018 224.323 312.018 225.198C312.018 225.483 313.707 225.553 315.772 225.354C318.809 225.063 319.934 225.294 321.654 226.567C322.824 227.433 323.927 227.895 324.104 227.593C324.549 226.836 323.402 223.973 322.408 223.357C320.925 222.44 317.593 221.765 316.088 222.076ZM314.66 229.136C313.257 230.164 313.26 230.199 314.796 231.021C316.641 232.01 321.64 232.147 321.64 231.209C321.64 229.13 316.679 227.656 314.66 229.136ZM182.306 246.515C172.23 251.268 163.987 255.451 163.987 255.811C163.987 256.171 171.076 267.181 179.741 280.276C188.406 293.372 214.635 333.169 238.028 368.715C261.422 404.26 280.956 433.346 281.438 433.349C281.92 433.353 290.85 428.984 301.283 423.64C314.491 416.876 320.136 413.621 319.869 412.925C319.657 412.374 299.237 382.148 274.488 345.757C249.74 309.364 223.162 270.193 215.428 258.709C207.693 247.225 201.198 237.838 200.995 237.851C200.791 237.864 192.382 241.762 182.306 246.515ZM161.74 260.936C161.725 261.038 161.28 264.411 160.751 268.434L159.787 275.747L174.424 298.066C205.421 345.331 219.3 366.546 237.008 393.723C247.095 409.206 259.832 428.707 265.313 437.06L275.279 452.246L276.644 445.209C277.395 441.338 277.885 437.504 277.734 436.69C277.5 435.428 246.047 387.325 177.831 283.9C164.599 263.838 161.881 259.959 161.74 260.936ZM140.418 286.806C128.982 292.387 123.997 295.181 124.259 295.865C124.467 296.408 131.602 307.815 140.114 321.212C155.254 345.043 182.732 388.61 204.067 422.614C232.508 467.946 236.9 474.834 237.253 474.658C260.385 463.182 273.495 456.116 273.052 455.366C272.761 454.872 270.254 451.067 267.481 446.908C264.707 442.75 253.495 425.582 242.565 408.757C208.437 356.226 158.709 280.419 157.813 279.558C157.178 278.947 152.673 280.825 140.418 286.806ZM148.814 294.777C139.728 296.971 138.186 308.193 146.433 312.11C153.775 315.597 161.767 311.317 161.767 303.9C161.767 301.03 161.377 300.188 158.894 297.703C157.313 296.121 155.342 294.827 154.513 294.827C153.684 294.827 152.562 294.695 152.021 294.534C151.478 294.373 150.035 294.482 148.814 294.777ZM147.968 298.525C146.199 299.24 144.003 302.03 144.003 303.565C144.003 304.269 144.581 304.111 145.954 303.03C148.813 300.778 153.607 300.952 156.529 303.412C158.37 304.962 158.806 305.095 158.806 304.104C158.806 299.67 152.795 296.575 147.968 298.525ZM121.49 302.791C120.385 309.786 119.884 308.724 137.324 336.364C161.971 375.426 164.73 379.816 198.754 434.097C215.992 461.599 230.496 484.541 230.984 485.081C231.693 485.862 232.098 485.16 232.992 481.608L234.113 477.155L228.572 468.404C225.525 463.592 217.62 450.987 211.006 440.393C181.903 393.779 122.571 300.013 122.177 300.013C122.041 300.013 121.731 301.263 121.49 302.791ZM148.705 305.193C143.404 307.334 148.769 311.485 154.329 309.544C157.205 308.541 157.173 307.758 154.18 305.931C151.535 304.317 151.041 304.25 148.705 305.193ZM408.978 349.646C407.03 351.595 407.001 352.927 408.929 351.894C411.53 350.501 415.373 350.999 417.802 353.045C420.023 354.915 420.08 354.923 420.08 353.382C420.08 352.513 419.262 350.983 418.263 349.983C415.917 347.635 411.159 347.462 408.978 349.646ZM409.379 355.522C408.699 356.622 412.045 358.536 414.649 358.536C417.69 358.536 418.346 357.478 416.227 355.993C414.413 354.723 410.058 354.422 409.379 355.522ZM394.009 380.065C379.984 387.095 376.372 389.206 376.066 390.554C375.341 393.745 372.729 415.843 373.041 416.155C373.295 416.409 430.866 386.791 442.093 380.63C444.147 379.503 445.238 378.396 445.249 377.426C445.258 376.611 445.472 375.17 445.725 374.224C446.13 372.71 444.221 373.488 429.808 380.706C420.801 385.217 412.762 388.908 411.945 388.908C410.892 388.908 410.462 388.421 410.473 387.241C410.489 385.382 411.711 376.317 412.37 373.166C412.604 372.045 412.52 371.159 412.182 371.196C411.844 371.233 403.666 375.223 394.009 380.065ZM301.151 427.67L281.772 437.367L280.196 446.288C279.33 451.195 278.319 455.953 277.948 456.862C277.458 458.064 271.816 461.249 257.308 468.513C237.564 478.399 237.333 478.542 236.566 481.305C235.643 484.632 235.571 486.167 236.355 485.829C237.147 485.488 273.476 466.674 297.215 454.312L316.829 444.097L318.839 432.615C319.945 426.3 320.777 420.422 320.689 419.553C320.544 418.117 318.764 418.856 301.151 427.67ZM236.756 435.496C231.582 437.915 229.813 443.802 232.792 448.691C234.665 451.767 237.829 453.357 242.073 453.357C250.389 453.357 255.317 446.007 251.358 439.508C248.376 434.612 242.247 432.928 236.756 435.496ZM236.465 439.966C233.345 443.089 233.628 445.03 236.849 442.592C239.617 440.497 248.365 442.048 248.365 444.635C248.365 445.241 248.599 445.27 249.14 444.729C250.279 443.589 248.671 440.524 246.152 439.034C242.818 437.064 238.999 437.431 236.465 439.966ZM238.749 445.423C237.735 445.937 236.801 446.9 236.673 447.564C236.186 450.096 245.134 451.148 246.625 448.734C247.239 447.739 243.562 444.464 241.847 444.479C241.157 444.485 239.763 444.91 238.749 445.423Z" fill="#50FA7B" stroke="#50FA7B" stroke-width="4"/>
</svg>
